<mxfile modified="2021-03-02T12:19:19.311Z" host="app.diagrams.net" agent="5.0 (Macintosh; Intel Mac OS X 10_14_6) AppleWebKit/537.36 (KHTML, like Gecko) Chrome/88.0.4324.192 Safari/537.36" etag="kNK4E_QAPxO0ruBvtFLW" version="14.4.3" type="github">
  <diagram id="Ht1M8jgEwFfnCIfOTk4-" name="Page-1">
    <mxGraphModel dx="3534" dy="2442" grid="1" gridSize="10" guides="1" tooltips="1" connect="1" arrows="1" fold="1" page="1" pageScale="1" pageWidth="1169" pageHeight="827" math="0" shadow="0">
      <root>
        <mxCell id="0" />
        <mxCell id="1" parent="0" />
        <mxCell id="dlHqHgkgmX-34859HV9w-14" value="EC2" style="outlineConnect=0;dashed=0;verticalLabelPosition=bottom;verticalAlign=top;align=center;html=1;shape=mxgraph.aws3.ec2;fillColor=#F58534;gradientColor=none;fontSize=13;" vertex="1" parent="1">
          <mxGeometry x="190" y="430" width="76.5" height="93" as="geometry" />
        </mxCell>
        <mxCell id="dlHqHgkgmX-34859HV9w-16" value="S3" style="outlineConnect=0;dashed=0;verticalLabelPosition=bottom;verticalAlign=top;align=center;html=1;shape=mxgraph.aws3.s3;fillColor=#E05243;gradientColor=none;fontSize=13;" vertex="1" parent="1">
          <mxGeometry x="389.25" y="-2" width="76.5" height="93" as="geometry" />
        </mxCell>
        <mxCell id="dlHqHgkgmX-34859HV9w-18" value="Elastic Load Balancing" style="outlineConnect=0;dashed=0;verticalLabelPosition=bottom;verticalAlign=top;align=center;html=1;shape=mxgraph.aws3.elastic_load_balancing;fillColor=#F58536;gradientColor=none;fontSize=13;" vertex="1" parent="1">
          <mxGeometry x="190" y="195" width="76.5" height="93" as="geometry" />
        </mxCell>
        <mxCell id="dlHqHgkgmX-34859HV9w-19" value="RDS" style="outlineConnect=0;dashed=0;verticalLabelPosition=bottom;verticalAlign=top;align=center;html=1;shape=mxgraph.aws3.rds;fillColor=#2E73B8;gradientColor=none;fontSize=13;" vertex="1" parent="1">
          <mxGeometry x="192.25" y="660" width="72" height="81" as="geometry" />
        </mxCell>
        <mxCell id="dlHqHgkgmX-34859HV9w-20" value="Certificate Manager" style="points=[[0,0,0],[0.25,0,0],[0.5,0,0],[0.75,0,0],[1,0,0],[0,1,0],[0.25,1,0],[0.5,1,0],[0.75,1,0],[1,1,0],[0,0.25,0],[0,0.5,0],[0,0.75,0],[1,0.25,0],[1,0.5,0],[1,0.75,0]];outlineConnect=0;fontColor=#232F3E;gradientColor=#F54749;gradientDirection=north;fillColor=#C7131F;strokeColor=#ffffff;dashed=0;verticalLabelPosition=bottom;verticalAlign=top;align=center;html=1;fontSize=12;fontStyle=0;aspect=fixed;shape=mxgraph.aws4.resourceIcon;resIcon=mxgraph.aws4.certificate_manager_3;" vertex="1" parent="1">
          <mxGeometry x="430" y="-140" width="58" height="58" as="geometry" />
        </mxCell>
        <mxCell id="dlHqHgkgmX-34859HV9w-21" value="Certificate Manager" style="points=[[0,0,0],[0.25,0,0],[0.5,0,0],[0.75,0,0],[1,0,0],[0,1,0],[0.25,1,0],[0.5,1,0],[0.75,1,0],[1,1,0],[0,0.25,0],[0,0.5,0],[0,0.75,0],[1,0.25,0],[1,0.5,0],[1,0.75,0]];outlineConnect=0;fontColor=#232F3E;gradientColor=#F54749;gradientDirection=north;fillColor=#C7131F;strokeColor=#ffffff;dashed=0;verticalLabelPosition=bottom;verticalAlign=top;align=center;html=1;fontSize=12;fontStyle=0;aspect=fixed;shape=mxgraph.aws4.resourceIcon;resIcon=mxgraph.aws4.certificate_manager_3;" vertex="1" parent="1">
          <mxGeometry x="398.5" y="212.5" width="58" height="58" as="geometry" />
        </mxCell>
        <mxCell id="dlHqHgkgmX-34859HV9w-23" value="" style="endArrow=classic;html=1;fontSize=13;" edge="1" parent="1">
          <mxGeometry width="50" height="50" relative="1" as="geometry">
            <mxPoint x="228" y="320" as="sourcePoint" />
            <mxPoint x="228" y="420" as="targetPoint" />
          </mxGeometry>
        </mxCell>
        <mxCell id="dlHqHgkgmX-34859HV9w-24" value="HTTP" style="edgeLabel;html=1;align=center;verticalAlign=middle;resizable=0;points=[];fontSize=13;" vertex="1" connectable="0" parent="dlHqHgkgmX-34859HV9w-23">
          <mxGeometry x="-0.1333" y="1" relative="1" as="geometry">
            <mxPoint as="offset" />
          </mxGeometry>
        </mxCell>
        <mxCell id="dlHqHgkgmX-34859HV9w-25" value="" style="endArrow=classic;html=1;fontSize=13;" edge="1" parent="1">
          <mxGeometry width="50" height="50" relative="1" as="geometry">
            <mxPoint x="227.96" y="560" as="sourcePoint" />
            <mxPoint x="227.96" y="620" as="targetPoint" />
          </mxGeometry>
        </mxCell>
        <mxCell id="dlHqHgkgmX-34859HV9w-26" value="RDS" style="outlineConnect=0;dashed=0;verticalLabelPosition=bottom;verticalAlign=top;align=center;html=1;shape=mxgraph.aws3.rds;fillColor=#2E73B8;gradientColor=none;fontSize=13;" vertex="1" parent="1">
          <mxGeometry x="439" y="660" width="72" height="81" as="geometry" />
        </mxCell>
        <mxCell id="dlHqHgkgmX-34859HV9w-27" value="Availability Zone" style="fillColor=none;strokeColor=#147EBA;dashed=1;verticalAlign=top;fontStyle=0;fontColor=#147EBA;" vertex="1" parent="1">
          <mxGeometry x="163.25" y="630" width="130" height="130" as="geometry" />
        </mxCell>
        <mxCell id="dlHqHgkgmX-34859HV9w-28" value="Availability Zone" style="fillColor=none;strokeColor=#147EBA;dashed=1;verticalAlign=top;fontStyle=0;fontColor=#147EBA;" vertex="1" parent="1">
          <mxGeometry x="410" y="630" width="130" height="130" as="geometry" />
        </mxCell>
        <mxCell id="dlHqHgkgmX-34859HV9w-33" value="" style="endArrow=classic;startArrow=classic;html=1;fontSize=13;exitX=1;exitY=0.5;exitDx=0;exitDy=0;entryX=0;entryY=0.5;entryDx=0;entryDy=0;" edge="1" parent="1" source="dlHqHgkgmX-34859HV9w-27" target="dlHqHgkgmX-34859HV9w-28">
          <mxGeometry width="50" height="50" relative="1" as="geometry">
            <mxPoint x="440" y="550" as="sourcePoint" />
            <mxPoint x="490" y="500" as="targetPoint" />
          </mxGeometry>
        </mxCell>
        <mxCell id="dlHqHgkgmX-34859HV9w-34" value="Multi-AZ" style="edgeLabel;html=1;align=center;verticalAlign=middle;resizable=0;points=[];fontSize=13;" vertex="1" connectable="0" parent="dlHqHgkgmX-34859HV9w-33">
          <mxGeometry x="0.0578" relative="1" as="geometry">
            <mxPoint as="offset" />
          </mxGeometry>
        </mxCell>
        <mxCell id="dlHqHgkgmX-34859HV9w-35" value="" style="endArrow=classic;html=1;fontSize=13;" edge="1" parent="1">
          <mxGeometry width="50" height="50" relative="1" as="geometry">
            <mxPoint x="380" y="241.21" as="sourcePoint" />
            <mxPoint x="280" y="241.42000000000002" as="targetPoint" />
          </mxGeometry>
        </mxCell>
        <mxCell id="dlHqHgkgmX-34859HV9w-36" value="&lt;span style=&quot;color: rgb(32, 33, 36); font-family: arial, sans-serif; font-size: 12px; text-align: left;&quot;&gt;HTTPS化&lt;/span&gt;" style="edgeLabel;html=1;align=center;verticalAlign=middle;resizable=0;points=[];fontSize=12;" vertex="1" connectable="0" parent="dlHqHgkgmX-34859HV9w-35">
          <mxGeometry x="0.1285" y="1" relative="1" as="geometry">
            <mxPoint as="offset" />
          </mxGeometry>
        </mxCell>
        <mxCell id="dlHqHgkgmX-34859HV9w-37" value="CloudFront" style="outlineConnect=0;dashed=0;verticalLabelPosition=bottom;verticalAlign=top;align=center;html=1;shape=mxgraph.aws3.cloudfront;fillColor=#F58536;gradientColor=none;fontSize=12;" vertex="1" parent="1">
          <mxGeometry x="192.25" y="-150" width="76.5" height="93" as="geometry" />
        </mxCell>
        <mxCell id="dlHqHgkgmX-34859HV9w-39" value="" style="endArrow=classic;html=1;fontSize=13;" edge="1" parent="1">
          <mxGeometry width="50" height="50" relative="1" as="geometry">
            <mxPoint x="410" y="-111" as="sourcePoint" />
            <mxPoint x="290" y="-111" as="targetPoint" />
          </mxGeometry>
        </mxCell>
        <mxCell id="dlHqHgkgmX-34859HV9w-40" value="&lt;span style=&quot;color: rgb(32, 33, 36); font-family: arial, sans-serif; font-size: 12px; text-align: left;&quot;&gt;HTTPS化&lt;/span&gt;" style="edgeLabel;html=1;align=center;verticalAlign=middle;resizable=0;points=[];fontSize=12;" vertex="1" connectable="0" parent="dlHqHgkgmX-34859HV9w-39">
          <mxGeometry x="0.1285" y="1" relative="1" as="geometry">
            <mxPoint as="offset" />
          </mxGeometry>
        </mxCell>
        <mxCell id="dlHqHgkgmX-34859HV9w-41" value="VPC" style="points=[[0,0],[0.25,0],[0.5,0],[0.75,0],[1,0],[1,0.25],[1,0.5],[1,0.75],[1,1],[0.75,1],[0.5,1],[0.25,1],[0,1],[0,0.75],[0,0.5],[0,0.25]];outlineConnect=0;gradientColor=none;html=1;whiteSpace=wrap;fontSize=12;fontStyle=0;shape=mxgraph.aws4.group;grIcon=mxgraph.aws4.group_vpc;strokeColor=#248814;fillColor=none;verticalAlign=top;align=left;spacingLeft=30;fontColor=#AAB7B8;dashed=0;" vertex="1" parent="1">
          <mxGeometry x="110" y="140" width="460" height="640" as="geometry" />
        </mxCell>
        <mxCell id="dlHqHgkgmX-34859HV9w-45" value="Internet Gateway" style="outlineConnect=0;dashed=0;verticalLabelPosition=bottom;verticalAlign=top;align=center;html=1;shape=mxgraph.aws3.aws_iot;fillColor=#5294CF;gradientColor=none;fontSize=12;" vertex="1" parent="1">
          <mxGeometry x="204.87" y="40" width="46.75" height="51" as="geometry" />
        </mxCell>
        <mxCell id="dlHqHgkgmX-34859HV9w-46" value="" style="endArrow=classic;html=1;fontSize=12;" edge="1" parent="1">
          <mxGeometry width="50" height="50" relative="1" as="geometry">
            <mxPoint x="230" y="120" as="sourcePoint" />
            <mxPoint x="230" y="190" as="targetPoint" />
          </mxGeometry>
        </mxCell>
        <mxCell id="dlHqHgkgmX-34859HV9w-48" value="" style="endArrow=classic;html=1;fontSize=12;" edge="1" parent="1">
          <mxGeometry width="50" height="50" relative="1" as="geometry">
            <mxPoint x="230" y="-30" as="sourcePoint" />
            <mxPoint x="230" y="30" as="targetPoint" />
          </mxGeometry>
        </mxCell>
        <mxCell id="dlHqHgkgmX-34859HV9w-49" value="HTTPS" style="edgeLabel;html=1;align=center;verticalAlign=middle;resizable=0;points=[];fontSize=12;" vertex="1" connectable="0" parent="dlHqHgkgmX-34859HV9w-48">
          <mxGeometry x="0.002" y="1" relative="1" as="geometry">
            <mxPoint y="-1" as="offset" />
          </mxGeometry>
        </mxCell>
        <mxCell id="dlHqHgkgmX-34859HV9w-50" value="" style="endArrow=classic;html=1;fontSize=12;" edge="1" parent="1">
          <mxGeometry width="50" height="50" relative="1" as="geometry">
            <mxPoint x="360" y="20" as="sourcePoint" />
            <mxPoint x="270" y="-50" as="targetPoint" />
          </mxGeometry>
        </mxCell>
        <mxCell id="dlHqHgkgmX-34859HV9w-51" value="" style="endArrow=classic;html=1;fontSize=12;" edge="1" parent="1">
          <mxGeometry width="50" height="50" relative="1" as="geometry">
            <mxPoint x="290" y="-70" as="sourcePoint" />
            <mxPoint x="380" as="targetPoint" />
          </mxGeometry>
        </mxCell>
        <mxCell id="dlHqHgkgmX-34859HV9w-53" value="Route53" style="outlineConnect=0;dashed=0;verticalLabelPosition=bottom;verticalAlign=top;align=center;html=1;shape=mxgraph.aws3.route_53;fillColor=#F58536;gradientColor=none;fontSize=12;" vertex="1" parent="1">
          <mxGeometry x="-10" y="-146.25" width="70.5" height="85.5" as="geometry" />
        </mxCell>
        <mxCell id="dlHqHgkgmX-34859HV9w-54" value="" style="endArrow=classic;html=1;fontSize=12;entryX=0.13;entryY=0.172;entryDx=0;entryDy=0;entryPerimeter=0;" edge="1" parent="1" target="dlHqHgkgmX-34859HV9w-41">
          <mxGeometry width="50" height="50" relative="1" as="geometry">
            <mxPoint x="20" y="-30" as="sourcePoint" />
            <mxPoint x="20" y="240" as="targetPoint" />
            <Array as="points">
              <mxPoint x="20" y="250" />
            </Array>
          </mxGeometry>
        </mxCell>
        <mxCell id="dlHqHgkgmX-34859HV9w-55" value="DNS" style="edgeLabel;html=1;align=center;verticalAlign=middle;resizable=0;points=[];fontSize=12;" vertex="1" connectable="0" parent="dlHqHgkgmX-34859HV9w-54">
          <mxGeometry x="-0.3283" y="-3" relative="1" as="geometry">
            <mxPoint y="-1" as="offset" />
          </mxGeometry>
        </mxCell>
        <mxCell id="dlHqHgkgmX-34859HV9w-56" value="" style="endArrow=classic;html=1;fontSize=12;" edge="1" parent="1">
          <mxGeometry width="50" height="50" relative="1" as="geometry">
            <mxPoint x="80" y="-111.59" as="sourcePoint" />
            <mxPoint x="170" y="-111.59" as="targetPoint" />
          </mxGeometry>
        </mxCell>
        <mxCell id="dlHqHgkgmX-34859HV9w-57" value="" style="endArrow=classic;html=1;fontSize=12;" edge="1" parent="1">
          <mxGeometry width="50" height="50" relative="1" as="geometry">
            <mxPoint x="170" y="-80" as="sourcePoint" />
            <mxPoint x="80" y="-80" as="targetPoint" />
          </mxGeometry>
        </mxCell>
        <mxCell id="dlHqHgkgmX-34859HV9w-66" value="" style="rounded=1;arcSize=10;dashed=0;fillColor=none;gradientColor=none;strokeWidth=2;fontSize=12;" vertex="1" parent="1">
          <mxGeometry x="-70" y="-190" width="710" height="990" as="geometry" />
        </mxCell>
        <mxCell id="dlHqHgkgmX-34859HV9w-67" value="" style="dashed=0;html=1;shape=mxgraph.aws3.cloud;fillColor=#F58536;gradientColor=none;dashed=0;fontSize=12;" vertex="1" parent="1">
          <mxGeometry x="-40" y="-200" width="52" height="36" as="geometry" />
        </mxCell>
        <mxCell id="dlHqHgkgmX-34859HV9w-68" value="&lt;font style=&quot;font-size: 19px&quot;&gt;Client&lt;/font&gt;" style="shape=mxgraph.signs.tech.computer;html=1;pointerEvents=1;fillColor=#000000;strokeColor=none;verticalLabelPosition=bottom;verticalAlign=top;align=center;fontSize=12;" vertex="1" parent="1">
          <mxGeometry x="181.5" y="-480" width="98" height="98" as="geometry" />
        </mxCell>
        <mxCell id="dlHqHgkgmX-34859HV9w-70" value="Internet" style="outlineConnect=0;dashed=0;verticalLabelPosition=bottom;verticalAlign=top;align=center;html=1;shape=mxgraph.aws3.internet_3;fillColor=#D2D3D3;gradientColor=none;" vertex="1" parent="1">
          <mxGeometry x="189.99999999999997" y="-280" width="79.5" height="54" as="geometry" />
        </mxCell>
        <mxCell id="dlHqHgkgmX-34859HV9w-71" value="" style="endArrow=classic;html=1;fontSize=12;" edge="1" parent="1">
          <mxGeometry width="50" height="50" relative="1" as="geometry">
            <mxPoint x="230" y="-350" as="sourcePoint" />
            <mxPoint x="230.26" y="-290" as="targetPoint" />
          </mxGeometry>
        </mxCell>
        <mxCell id="dlHqHgkgmX-34859HV9w-73" value="" style="endArrow=classic;html=1;fontSize=12;entryX=0.423;entryY=0.03;entryDx=0;entryDy=0;entryPerimeter=0;" edge="1" parent="1" target="dlHqHgkgmX-34859HV9w-66">
          <mxGeometry width="50" height="50" relative="1" as="geometry">
            <mxPoint x="230" y="-200" as="sourcePoint" />
            <mxPoint x="230.25" y="-160" as="targetPoint" />
          </mxGeometry>
        </mxCell>
        <mxCell id="dlHqHgkgmX-34859HV9w-77" value="HTTPS" style="edgeLabel;html=1;align=center;verticalAlign=middle;resizable=0;points=[];fontSize=12;" vertex="1" connectable="0" parent="dlHqHgkgmX-34859HV9w-73">
          <mxGeometry x="-0.0565" relative="1" as="geometry">
            <mxPoint as="offset" />
          </mxGeometry>
        </mxCell>
        <mxCell id="dlHqHgkgmX-34859HV9w-78" value="React" style="shape=image;verticalLabelPosition=bottom;labelBackgroundColor=#ffffff;verticalAlign=top;aspect=fixed;imageAspect=0;image=data:image/png,iVBORw0KGgoAAAANSUhEUgAABLAAAANQCAYAAAA4wpbDAAAABGdBTUEAALGPC/xhBQAAACBjSFJNAAB6JgAAgIQAAPoAAACA6AAAdTAAAOpgAAA6mAAAF3CculE8AAAABmJLR0QA/wD/AP+gvaeTAAAAB3RJTUUH4QoJBB8I4vwb3AAAgABJREFUeNrs3XecHVX9//H3Z+7M3VQ6llBCSO5uQpAiAaWoX1SwYQNjAQm7G4yKgr3/lOVrQ/1aKUpMdpdEEI0iiA1FoyhgoYgYkt27SQhNAZGShOzemTuf3x8JPYEk7Gbm3nk9Hw+/X002e8/5fM6U87lnzkgAAAAAAAAAAAAAAAAAAAAAAAAAAAAAAAAAAAAAAAAAAAAAAAAAAAAAAAAAAAAAAAAAAAAAAAAAAAAAAAAAAAAAAAAAAAAAAAAAAAAAAAAAAAAAAAAAAAAAAAAAAAAAAAAAAAAAAAAAAAAAAAAAAAAAAAAAAAAAAAAAAAAAAAAAAAAAAAAAAAAAAAAAAAAAAAAAAAAAAAAAAAAAAAAAAAAAAAAAAAAAAAAAAAAAAAAAAAAAAAAAAAAAAAAAAAAAAAAAAAAAAAAAAAAAAAAAAAAAAAAAAAAAAAAAAAAAAAAAAAAAAAAAAAAAAAAAAAAAAAAAAAAAAAAAAAAAAAAAAAAAAAAAAAAAAAAAAAAAAAAAAAAAAAAAAAAAAAAAAAAAAAAAAAAAAAAAAAAAAAAAAAAAAAAAAAAAAAAAAAAAAAAAAAAAAAAAAAAAAAAAAAAAAAAAAAAAAAAAAAAAAAAAAAAAAAAAAAAAAAAAAAAAAAAAAAAAAAAAAAAAAAAAAAAAAAAAAAAAAAAAAAAAAAAAAAAAAAAAAAAAAAAAAAAAAAAAAAAAAAAAAAAAAAAAAAAAAAAAAAAAAAAAAAAAAAAAAAAAAAAAAAAAAAAAAAAAAAAAAAAAAAAAAAAAAAAAAAAAAAAAAAAAAAAAAAAAAAAAAAAAAAAAAAAAAAAAAAAAAAAAAAAAAAAAAAAAAAAAAAAAAAAAAAAAAAAAAAAAAAAAAAAAAAAAAAAAAAAAAAAAAAAAAAAAAAAAAAAAAAAAAAAAAAAAAAAAAAAAAAAAAAAAAAAAAAAAAAAAAAAAAAAAAAAAAAAAAAAAAAAAAAAAAAAAAAAAAAAAAAAAAAAAAAAAAAAAAAAAAAAAAAAAAAAAAAAAAAAAAAAAAAAAAAAAAAAAAAAAAAAAAAAAAAAAAAAAAAAAAAAAAAAAAAAAAAAAAAAAAAAAAAAAAAAAAAAAAAAAAAAAAAAAAAAAAAAAAAAAAAAAAAAAAAAAAAAAAAAAAAAAAAAAAAAAAAAAAAAAAAAAAAAAAAAAAADIESMEAABIXYs97N9b48upWoJ4aIwkeVraS4GNMfmgJHmgh0ppel+QlO+/b7zuX7SHrSNyADZmpntpfHVooqm0u5vt4e7PdWk3k+8o2Y6SdjRpjEzj3S2UJLmvkmmdSWslKXV70AK/2+R3u4L/mPu/pfqK1ZWWVYvM6kQZAFAkFLAAAIUwa6nvXIqSNtWtIvOKzKfIbYKkXSQ9S9LOW/Fr75e0Sq5bZLrFzG9RGqyyIL1lXTm65cKJdh+RB5rfycvWTaqXooM89YPMtI+kVkl7SyqP0EfWJK2U1CfX3wOzv6ZW+mtPxe4hGwCAZkUBCwDQdLoWe7jyuckLzPQCC/wQ9+AQk0/a9i3x2+R2vZmuM9n19ah0Xe8k+zcZAhrXE4pVB0k6SNJOObm1Xy7TYnP9KiyVrpg72R4gYwCAZkEBCwDQFGYt9z3DevxKl71C0sslbZfTpt4p6To3XWfS79fUwmsWTbcaGQTyac7N/txaVH95kKZHuewomZ7TIE1PXLra3BcpiH7A6iwAQKOjgAUAaFizlvrOQRi/JZAd767DGvS6tlamKyX/jSd+Re/U8j9l5mQXyMacO31M7aHkxYHrKJeOkut5TdCtxKXLzW1htLp08dwZFpNpAECjoYAFAGg4nQPxkXKd5q7XSIqaqnOuf7v5b82D3ygo/YJVE8DIm9PnuyQWH+uyN0l6saSWJu7uHWY622rh3PnT7b9kHwDQKChgAQAawqlVb1nr8dtc9j5JBxSk23WTfi/5j+IgunjhFLubkQAMj1lLfedSEL9RZm+WdKSksGAhWCtpniz8PIVyAEAjoIAFAMi1LvfgloH6ceb6ouSTCxyK1EzXpO6Lykn0w7n72L8YHcCWOX6V7zhqsP5aN58p6RVqthWcW2etSWcPWfiFCyr2IOEAAOQVBSwAQG51VpPXufsXJE0nGo9Tl+tKmf+gZtH3mXQCm9blHtyyPDnaUr1D0mtF0WpT7nKzj/RWwoWEAgCQRxSwAAC5M6vPdytZ8i1JxxKNpzVo0mWS5nZXwt+yATyw3vq3ByazzG2O5HsTkc3j0pXy9J29bS3LiAYAIE8oYAEAcqNrsYe3Tkje56YzJI0lIltsiZnPS5Jo4YJpdi/hQNHMdC9tV62/MpXPkfRqFW9fq+EyaKYz9pwSfrnLLCUcAIA8oIAFAMiFk5etm5QE4UUmHUI0nrEhyS9WavN62sLFrMpCs+uo+q5S8m65nyzZHkRk2FzhUXhi7yT7N6EAAGSNAhYAIHPtfckbAvNul3YkGsOu6vJz1o6O5i7aw9YRDjSTzv7BvV2l90k6WdIYIjIi7vFAs3qnRL8iFACALFHAAgBkZs61HtW2r3/d3N9DNEaY698ynVOvh9/m8UI0us5qfKi7PizpDZICIjLiUkmf6GmNvkwoAABZoYAFAMhmArrMx3sp+YFcryIa29SQuf8wlX+BTZrRSLrcg1sG6q8x99MkvZyIZDJ16I4eLL1r7gyLiQUAYJtfhQgBAGBbm32zT0zD5OeSphONzKSSLlGgr/ZMia4mHMirrsUe3rp7fJJkH3VXKxHJePLg+pU8fHP3VFtNNAAA2/QaRAgAANtSZ19t/9TslyY9l2jkhGuxSZ/pbov+RDCQFzPdS2MH6seb63TJJxORPJ0y9NdyKTx67mR7gGgAALYVClgAgG1m1rKh/UpB8FtJuxCNHN4UmK5y6VM9legPRAOZcbf2gfoxcv+cSfsRkNy6PojDo+ZPt/8SCgDANrlXJQQAgG2B4lVDuSJw/9T8tvJfCQW2pc7++OUufVnSgUSjIVDEAgBsMxSwAAAj7qTq0PTAg8WSdiUaDcMl/SwwP31+pXwD4cBImt2fvMblZ7h0ENFoOH/yKDyqd5INEgoAwEiigAUAGFGdy3yCB/E1ku1JNBqSS7rEPf0kby3EcJvdVzvEA/uauw4nGo08ofCLuivR8TJzogEAGLnrDQAAI2TOnT6mtiZZbNIhRKPhJZJ1l8LSZ+btbXcRDjwTs/p8t5LVPyP5yZICItIUs4ov9lSiTxIIAMDIXWoAABgBM91LY6vJpSa9hmg0lftN+sJYC791VsWGCAe2xClLfNy6KPmYpA9KGkNEmoubz+6tlLuJBABgJFDAAgCMiI7++EuSPkokmnSiKlsZmD7ePaW0iMeG8HS63INbBuJ2uX3OpOcSkaY16PJDe1vLfycUAIDhRgELADDs2vuSV5v5z7jOND+X/hq4PtTdFv2JaGBjOgfiIz3VV8WbBYsyvRiISqUZcyfbA8QCADCsVxhCAAAYTrOW+56lenK9pJ2JRmG4yX/gQfTRnil2G+GAJHUM+B5Kk29KeiPRKNwEY1F3a/RmIgEAGObrCwAAw6NrsYerdkuulHQo0SikNZLOiB4Mvzl3hsWEo7jngVsnJO9zU5ekcUSkoNzf0dNWnkcgAADDhQIWAGDYdPTHn5L0OSJR8JsLU3891Snnt0W/JRrFctJA7aDA7TtyzSAahfdgvRQ+b8Fku5VQAACG5R6TEAAAhkN739BUs+AGSaOIBiS5uX8vLkUfXjjF7iYcTX78r/QdLE7OkPReSQERwQZX9FTCo3nRAwBgOHCDAQB4xrrcA1MwXxSv8ChzsxOjNFnW3l97X5c79xxNqr2azLQ46ZN0GveWeIKXd1bjkwgDAGBYbi4JAQDgmersiz/kpv8jEtgk19UmP6W7rXwjwWgO7X1DU03BuTIdSTTwFP5br4etC6bZvYQCAPBMUMACADyzSexKf47FSb+k8UQDTyOR9I01o8PPLNrD1hGOxtS12MNVE5KPyHS6pBYiMiwelLRO0rObcsLhdm53W/ge0gwAeEbXE0IAAHgmOvqTbsk7GrwbsaQVct0r00OS7jf3dansjmD9/x7rsh3M0zGp2RhbP8mcJGk3RsBW6UtTzT5/anQVoWgsJ1WHpgce9Eg6mGhsltWSVkha7tJyky832fKkXr81GNXyYDCktd1TbfXDP9y5zMeHqcbVy0NjEwXbB4ltb4FPcdl0Sfu4NN2k5zZgHBKvp8/vndZyE0MCALC1KGABALZ+MjtQOyhI7a9qrH1vEklXSfqNuy0JPFkarmlZMXeGxVv6i2be5qPHDNb2Lqk02ZVOloJ93P0Qk6ZLKjFCnlIq1zej8eH/mzvBHiIc+caqq80Sm/QPuf1F0l/kyV+621r6h3sD885lg20elF7r0mtNOrxhzjWm3/VUopcxTAAAW38pAQBgK3X0x3+UdEQDNLVm8ovdg0u8XLq8d5LdP5IfdsoSH7eunBwk1wskvcClQxt01cS2uBUZcPfO3rboj8Qin1h1tUl1uf4i0y/SVL9/aGx4/bZ+NHZOn+8SW/IuSadKelbeA+Zmr+uthJcxdAAAW3XXSAgAAFtjdn/ymlT+s5w3c51J30qj8Bu9k+zfWTaks6+2fxrYK831Kq1fNREyih6RmuyceF3pEwv3t7WEIx+6Fnt46+7Jh93VJVZdPew/Lr/cFPy8Xi/9Oi8bk8+8zUePXxef5K6Py2xijuN3fU8lnDHcq9IAAMVAAQsAsOXcrbOa/M2lg3LcyotLFr5vXsVuz1vD5iz37eO0fpRcr5L8tZJ2ZVBJkq1w89m9lej3xCJbHdWhfeRBr1h1Jbn+LdMPzXTRnlPCv3SZpXlt6ok3+thoTPK/7nqfcvpoobu9sbctvISjDACwxXeKhAAAsKU6q8nr3P3SnDbvfpOd3N0a/rgRYtm12MNbJ9SPktK3udkbxNsc3c3OLY8tfZS9sbKJfmd/8kE3fV7FXnX1oMwvMdkFq6eEv11kVm+oc3R//HKXLlA+Hyu8sacSHsgqLADAlqKABQDY4gluRzW5XtIBuWua9A+3+rHnV0Ytb8TQzrzNR497qP46mR8v6ZWSygUeacsC8+PnV8o3cNBtG3Nu9ufWwqTXpKMLGoK6pF+a2cLVo0qXbev9rIZbx4DvoTT5haR983eutuN6W8OLOeoAAFuCAhYAYMsmRf3JMZLncRPe30el8A1zJ9sDzRDn2Ut8pzSK3y7ZuyVNLehwq0n61MRK+LU8P7bVRMd1t4r5OOs97ppfqoffmb+PrWqmjh2/ynccVUsuc9fhOWvaNT2t0WEceQCALUEBCwCwRTr74ytcytur0C8fZ+Hrz6rYUNMF3N06+pIjFejdkl4vKSrgzcpvEw9PWtBmd3AEDq/2lT7KkvpX5P6eAt4XXmNm54xV6UdNee7Y4ISqb1f25ArlbD8zNz+0t1L+M0chAGAL7gkBANg8s5YN7VcKghtzdSEzXRWODY8uwn5Jnct8QlpK3mGud0jarWDD716XzeGxo+Eze2Bo3zQNvq8cPmI2gobc7XulID2nSI+nzl7iO3k5ucZdrfk5efsPeirlt3IkAgA2+9JBCAAAm6ujP5kveWeOLmPL6/XSC/LyKvttpWuxh6t2q8+U/GOS9i/WnYvNSx4qvX/h/raWI3IruVtHf/wemX1F0qiC9HqNTOdZPfxa91S7s4hp71w22KagdI1LO+akSUm9FE5eMNlu5aAEAGzWbSAhAABsjhMH/FlhmqzK0YR3dWrpoedXWpYUNinu1t5ff5WZf1zSiwpz82LqV91P6J5avpYjc8t0VH1XedIt6ZiCdPlemb4V1MKz50+3/xY+/+v3OvtpXuYA7jqzty36BEcmAGBzBIQAALA5wjSZpRyt1jC39xa6eCVJZt7bFv6ipzV6cZrqCEk/k9T0r6Z3V6sHdnVHf/xhufNl3Gaa3R+/2D25UcUoXt1u5h9I1oUTeyrR/1K8Wq+nNfyZpG/l5xymk7oWe0hmAACbd9kAAGAzdPTHN0ualo+rF3unbEr70qHnWck+IdlbVIQvqlyXejls751k95P9TcXIraOafETS5yWFTT4e/m3yz61Oou8umm41kv9kp1a9ZY0nN0mq5CJlZq/rrYSXkRkAwNNOAQgBAODpdFbjQ911dU6a82CUhFPn7mP/IjOb1lEd2sc86HLpTc1/vfdb3fQW3mj2ZBveQDdf68dBM1tj0jlDFn7hgoo9SOafWnt/fJRJv85Jc37S0xodS1YAAE+HAhYA4Gl1VpO57v6OfLTG39fTWv4WWdk8Hf21F5js8y69rMm7OuTyj/W2lr9J1tebXa0dmHqwSPLJTdzNmmS9SVD69MIpdjdZ33zt/fGPTDouB01JPAr36J1k/yYrAICnwh5YAICnNOdOH+Pub8lFY0w3TbwjOpesbL6e1vJfulujl7t0tKS/NXFXW0z2jY7+2oWnLPFxRc97Z39tTup2dRMXr2KXfcfScFJPa/hOildbcToNwg9IysPbPEPF8VvICADg6acCAAA85UQ4Oc7lP8pBU1ymI3sq0R/IytZG0K2zv/4GBX6mu1qbuKfLUkvfVMRN/ufc6WOS1fF33OzEph3G0s/Tev2DC6aN6uegfmba++JPmunzmU9ITFd1V6IjyAgA4KmwAgsA8DSTxfS4nDTlEopXz3iW6N1t4U/CB8J93fUhSfc3aU+nBh78tbMvmVWk9HYuG2yL1yR/aeLi1TIP9Kre1ugYilfDNBHw8CxJmb+h0V2Hzurz3cgIAOApr1uEAACwKe0rfZRkx+RjouVnkpHhMXeGxb1t0ddkYatkcyXVm7CbY9z8/I5q8t1Tq97S7Dnt7E+O86D0N0n7NmH37pf5B6MHw/16p0S/4ggePt1TbbVcZ+fhFF+y+DgyAgB4yosFIQAAbFKt/kpJ47Nuhkm/nd9W/isJGV49FbunpzV8Z0np8yRd3pSddD95jSdXz1ruezZp/6y9Gn/M5T/Mw7E6zFJzX1gKw6k9lfLX586wmKN2BCYDSfhNSWuyb4m9iWwAAJ7ymkUIAACbvkik+Xi1uenLZGPkzGttWdrTGr3SZG9y2com7OLzS/XkmvZq7YXN1KnOZT6+cyC52FxnNts9nZmucvlB3W3lWfP2trs4SkfO/On2X7m+m4OmHH7igD+LjAAANj03AQBgI2a6l9zsVTloyvXdlejXZGTkdbeGP1ZU2kfS5yTVmqx7E8zt9+3VWmczdOak6uBkD5Kr3fWGJsvT/ZK/a88p4Yt7W8t/56jcNuoKvyop6xVuQcnrryAbAIBNXigIAQBgY8ZV4xmSdsm6HWb2NbKx7fROssGe1ujTsvRASX9ssu61mNv8jmpyVtdiDxu1Eyf1xS8LvPRXNdt+V+4/jJJwn57W8nldZilH47azoM3uMNPPMz/fe/oqsgEA2BQKWACATUwkcrH66sFwbOknZGPb66m03NxTCV9ibidJ+k9Tdc79vat2SxafvMKf3WhN7+yvzQlMv5S0UxNl5A6XHdfTVn7L3H3sXxx92UhTOz8HV56jZrqXyAYAYGMoYAEANj7HN70y+7mM/XDuBHuIbGQWf+9uCxcEcdi24W2F3kS9O6KeJNd2LqvNaITGnlr1lo7+ZL7LzpMUNUkOEknfsjSc1tsaXswBl6297iz9TFLW+43tsmH1LwAAT0IBCwDwJHP6fBdJmU8iPPUFZCN786fbf3taw3emrqMkVZuoa7t7YH/o6Evekuvj8WZ/7hpPFkve2USxv0HmL+hpjd7XPdVWc5Rlr+tIS1z6fubnfbNXkg0AwMZQwAIAPEkc1P9HUsaPcdiK3tbwT2QjP85vi367ZnS4v0xfldQsexSNkfn3O6vx5+VueWvc7GrtwDhM/ibp0CaJdyLX/0YPhi/oqZSv56jK2cTAvTfrNliql5AJAMBGr1OEAADwJO4vynwS475QZk4y8mXRHraupxJ9OE31YskGmqRb5q5PdvTHF7Wv9FF5adTs/uQ1qduVknZrkjgvsdQP7WmLTp87w2KOpvzpbivfKOmf2R6NeuHMJV4mGwCAJ6KABQDYmMwLWPUgXUQa8uv8qdFV0bjS/pK+pWZZjWX2ZouT35044M/KuimdfbX3pPJLJY1rgsjWXfqKR+GM7qnlazl68n4c6LKMWzB6XEvCPlgAgCehgAUAeJwTqr6dpP2ybYXfen6lZQnZyLe5E+yhntbofQr0IjXP3liHltL6nzuqQ/tkM/TdOvviLjc7W5k/xjscbEUgvbS3Nfpo7yQb5KjJv7Sun2c+alwvJhMAgCeigAUAeJyWtH541hNn8+BnZKJx9EyJro7GhQeY9CU1wWosk0+SB3/u7EtetS0/t32lj+rojy9y0+lNMCxcsrmj49L+81ujKzlKGsdDbeGfJf0n08Hj2a8CBgDkDwUsAMDjJw7mh2ffBv2STDSWuRPsoe7W6OMmvULSHU3QpfFufml7tbZN3vzXvtKfY3Fypcze3PgnEf3bpVf0tIbvPHe6reHoaCyLzOouvzzLNph0aB5fqgAAyBYFLADAEx2S8ecPRuNKvyMNjam7NbrCo3Bfmf+gCboTmdv8jv74m13uI3bPdFJ1aLrV4j9LOrgJYnZFVA+f39sa/YajoXGZgkwfI3Rpx5MGhvYmEwCAx6KABQB4oudnOnFy/X7uBHuINDSu3kl2f0+l/FaTv1vSuibo0mmr+uPvj8QbCjv745cHHlwls4kNHqMhM/9ATyU8eu4+9i+OggafIMSly5Xx48BBGrKROwDg8dcGQgAAeFj70nV7Sdo5yzZ44L8mE82hu7X8HVk6w6V/NHxnNryhsKPquw7Xr+zor3W49AtJ2zd4dPoC80O7K+VvyMwZ+Y1v/nT7r0v/zPRaYH4QmQAAPBYFLADAo3P0MMr8G+8g1VVkonn0VFpuHm/hIU2ywfuh8vqfZw8MTnmmv6i9v/Y+yeZLihr6nOG+cHQczphfKd/AaG+6K8LVmX66iQIWAODx8wRCAAB4lD8/4wYMjgmiG8lDczmrYkPdrdHH3e21ku5u8GNk73paurKzr7b/1vzrLvegoz/+hsm+IamRN6l+QG5v7W4rz2Kj9iZlujrbQ03PZyN3AMBjUcACADw6X0l1YMYTluvPqtgQmWhOvW3hL0phuJ9Jv23seb2e62Z/aK/G/7Ml/27OtR6tqsYLJb2vwVN5g6n+/J628AeM6ublSq7OuAk7zF6qPckEAOBhFLAAAI9OWMz3yfiqdA1ZaG7z9ra7uivhUW76uBr7kcLtzfWrzmry5s354RNv9LHx9smlkh3fyPkz94XRuPCI7tZRKxjNze38yqjlcv0702tSqb4PmQAAPDpVAABgwwRbsj2ynRwbBawiMPPeSvQlpTpK0l0N3JMWd7+wo1p791P90OwlvlM4Kvm1XK9q4L4Ouvuc7rbyLN4SWqRjNesvFZwCFgDgERSwAADrLwhj46nKeE+ewEp/IRPF0TM1+l29FB4iqZHzXpLbuR198Rkb+8tZy33PNEqukumwxu2iLXf5ob1t5e8yaovFLdtj080oYAEAHp0rEAIAgCSZB1lPFO6aV7HbyUSxLJhst66Jwxeb7KzGPoD0mY7+5LyZ7qWH/+ik6tD0Uj25StLUhu2X61KPSjN6W8t/Z7QWT8ntnxkPQApYAIBHhIQAALB+/u3TMm7AErJQTIumW03SaR19yVUy/66k8Y3ZE58zfiB5VvtKf5vVk+cr1WWSdmrQtCSSPtXTGn5FZs4oLaZ6PV5ipUynC9PIAgDgYazAAgCsn3q7WrNtgd1MFoqtpy38gaX1g6XGLWa66w1BnPxJqX6jxi1e3eOmo3paoy9TvCq23qmjVklanWETtj9xwJ9FJgAAEgUsAMAGJu2d6ed7ygosqHvqqL7RcfhCl37cqH1w6SBJYxq07f/wenJIbyX6PaMRMnOXlmbZhHI93otEAAAkClgAgEdNyvLDUzcKWJAknTvd1vRWwplu+riklIhsGyYtqq8LD+udNvoWooFHx0W25+ZUwSSyAACQKGABACQdv8p3lLRDlm0oK1xKJvDorNm8txJ9KZC9TtIDBGREuUlf2rMSvnXh/raWcOBxh6J7pgUsC5wCFgBAEgUsAICkllqc9QThrrlt9h8ygSea3xr+PLX0cMkGiMaIWC2zN3a3Rh/vMmO1G54kLWW7J527UcACAEiigAUAkGSe+SMay8gCNuX8SsuSoZbSIS79mmgM65G/PAjSw3oq4aXEApucLCT1ldm2gBVYAIAN1yRCAABI3SdmO4/2VWQBT+XCiXbf2kr4apm+SjSG4ZCTfluvl14wf0rLP4kGnsrqsS23SsrybZR7kAUAgEQBCwAgyUzPzbQBbreRBTydRWb1nkr0YZmdKGmQiGzt4Wbn7HlH+MoF0+xeooGnPe72sHWS7smwCc8lCwAAiQIWAGD9lHZClp9u8lvJATZXTyX8npsfKeluorFlB7q5zuithO/tOtISwoEtOElneY7efs6dPoYkAAAoYAEAJLPnZPnxaWAUsLBFeivlP5fS5IWSeHvl5lkrszd2t0VdhAJbyl2ZPuadrBl6DlkAAFDAAgBInu0jGuYpBSxssXlTR68cagkPl+l3ROMpj+9/W+r/w2bt2OoJg2VbwJKXJpAFAAAFLACATMr02+2ayreTBWyNCyfafRNvD1/hsu8QjY1aEtTDF3ZPLV9LKLC1Us/2Me80MPbBAgBQwAKAoju16i0u7ZBhE+6/oGIPkglsra4jLeltDd8t1yeV7dvS8uY3USk8fP4+xls+8UynDJm+aMPS9NnkAABAAQsACm4o1k6SLMMm/IssYDj0tEVfdLO3SFpX+GCYzYseDF8zd7I9wMjAM1WS/yfb4Ww7kgUAAAUsACi4OKplOjEw03/JAoZLbyVc5OYvVXHfUOhm+kRPJXzH3BkWMyIwHBJL7810ULsoYAEAKGABQNFZGuyU8cTkXrKA4fTwGwrN1F+wridm/o7uSnQmowDDep0Iy9mep813IgsAAApYAFBwaZD1oxlGAQvDbt7U0SuTJDxM0jUF6fJD7vb67kp5PtnHcCvfq3uV6f5yPEIIAKCABQBcCNKMH80w5xFCjIgF0+zeZF14lEy/bOZ+mnRfmuro3rbwF2QdI2HD46hrMmwCBSwAAAUsACg6t3SHbBug+8kCRsrC/W3tmlr4Bpdf0KRH8K2pp4edPzW6imxjhMdalqtlKWABAChgAQBsu0ynRKzAwghbNN1qvZXoRJm+2mRdW1Ky6PDetpZlZBkjfqXI8nFv9/FkAABAAQsAmJWMyfTj04A9sLANBpp5TyX6sLk+rEz38hmu7uiqoZbwRfMqdjvJxbbgyvCNsWZjyAAAgAIWADAryXRi4CV/gCRgW+lui75qZidKihu4G5eFY8OjL5xo95FRbCtmWpvhx48lAwAAClgAwLRkdKaf7lpHDrAtdVfCC8x0jBqziHX5xDvCY+dOsIfIJLYld8/yXD1a7kYWAKDYKGABQOFnJWm2j2a4D5IEbGupdKikqAGb/uJVuyeHk0FkMG3I8lxtc/6l0eQAAAp+JSIEAFBwGe8tYi4KWNimOvtq7zFXV4M2f7RcP+1cVptBJrGNZXuuXi32wQKAgqOABQBFZ9l+q53Kh0gCtpWOvuQkNzurwbuxnQf2y47q0D5kFNvsUmGZPkKowZACFgAUHQUsACj6pMRVzrQBacoKLGwTHdXk9TKfJ6kZ9tLZRR78prN/cG8yi23BM96vsBwPlsgCABQbBSwAKPqkRMp0UlD2UazAwog7qS9+mdwvkhQ2UbcmuMLfdC7zCWQY20CmXzYkkYWkAACKjQIWACDTAtaaseyBhZHV0V97QWC6RNKo5uud761SsvjkFf5sMo2RlPkbYxNjBRYAFBwFLAAo+qTEsr0WjIvECiyMmM6+2v6S/UrSuGbto7ta6/XkZydUfTsyjhEbZxnvV1gqiRVYAFBwFLAAoOiTEs92BVbLWtXJAkbCrKWDrW52uaQdmv9A1ozIk8tm3uajyTxGZIhZtnvHeZ0VWABQdBSwAACZTgpWh02xoTZypnOZTyiVgsslFebROpNePG5d8sOuxc5KFYzE+Mr0XG0B8xYAKDouBADApCTTa0G5hWsRhtec5b59GiS/lGyvAnb/mFsm1L8jdwrDGFaurFdgiRVYAFBwTBoAoOiTEpNn+fnr7mEFFobPzCVejuvJj0zar6gxMPPZHdXks4wGDO+4ynbekAZKyAIAFBsFLAAoOs92UhCxAgvDpMs9GBclF0h6OdHQpzqqtQ8QBgzbpSK1bL9sqDv7JQJAwTFpAABkWsAaKrECC8Pj1mr9G5LeRCQ2cPtqZ18yi0BgmCYN2e6BFfLCDwDgWgQAKLpMJwVRyLUIz1xnX9zl8lOJxOPn/G4+r6Mav4JQ4JnK+i2ExgosACg8Jg0AUPQZbsYrsEoPcS3CM9PZX5vjptOJxEZFcl3cWY0PJRR4htcKVmABADLFpAEACs6zLmCxAgvPQGdf8kaXnUskntIYd13SvnywQiiw1SzbtwB6qpQkAECxMWkAgILLuoCVuMpkAVvjpGXx4W5+oZTtxLpBPMvq4S9PHPBnEQps1bUi1ehMPz9oickCABQbBSwAwGCWH27h0BhSgC11UnVwchDoYkmjiMZmlwAmh578/MQbfSyxwJafrJXpuTqqax1JAIBio4AFAEWfk7hnOinwesBkGltkTp/vEnjpl5JYTbTFB5xmlEYnP+ha7CHBwJZdKyzTAta6QQpYAFB0FLAAoPCzkuChbK9ExgosbLaZt/no2JKfSmI/p6095KXXrNqtfg6RwJZIM16BNXk/ClgAUHQUsACg4Fz+UMYNYAUWNkuXezBuXfI9SbxR75kfeHM6+uMPEwdsLvM0ywLWUJcZm7gDQMFRwAKAok9KLNtvtd2MAhY2y6pq8nVJxxKJYfPljmrydsKAzbxYZFbAMukhEgAAoIAFAEXn2U4MTBpHEvB02vviD0o6rQGamrrrU5LuboC2mty/294Xv4gRhs0YLZkVsFw8PggAoIAFAIXnGRew0jRlDyw8pY5q8iYzfaVBDqj39bZFX3D5KyTd3wAtHmWmS9r7hqYy0vDUYzvLPbCMAhYAgAIWAMBXZ3ohCtgDC5vWMRAfJveFDXLP8umetvLZktTbWv67Ar1G0toGaPdOstIvThxw3uqITV8plGUByx8kAwAAClgAUPgrQXB/ppMiNx4hxEa1L123l1L9RNKovLfVTF/raY0+99g/65kSXW3SGyQN5b798klhmlzSvtJHMfKwiTGyQ4Yf/wAZAABQwAKAwl8IPNuJgWsnsoAn6lzm4y0Mfyop/6uCzBd0Twk3+ka/7tboCjN7s6SkAcJ+aBAnC+RujEBsZKDvkuF1ggIWAIACFgAUfkqS+v2Zfr58F7KAx5rpXvIguVCu5+X++DFdMvH2aLbMfFM/010JfyqzDklp3vvj0sz2geQzjEI81oaVedk9Qhg4BSwAAAUsACi6OE3vz3TCbLYzWcBjja/Wvy7pmAZo6hVjFb6160h72tVVPZXwe25+aiPE31ynd1aTExiJeFha087ZjsmAAhYAgAIWABSdRy33Z9wEClh4REdf7WRXQxR6/jw6Dt94VsU2e3+r3kr5XLk+2QB9M3ef11mND2VEQpKCtJbpo94uVmABAChgAUDhDQ7p/oznyjxCCElSZzU+Wmbfzn1DTTcFcfiac6fbmi39pz1t0RfddWYDpGOUu356UnVwMiMTCoOsv2iggAUAoIAFAEW3aLrVJD2UXS3A2cQd6qgO7eOuH0oKc97UaqkUHjV/uv13a39Bb1v0CakBCnXSLoGXLjmh6tsxQgvOLdPztJnfRxIAABSwAACS+z2ZfbS0Q9diD0lCcXVUfVd56TJJ2+e8qbcHSXjUvL3trmf6iyZWSu+V+/caID37tqTJDzhGi808zfiLhuAesgAAoIAFAJDM7s7y05fvIVZhFdTMJV6WJz+WfO+cN/UBr6evnr+PrRqOX9Zllkaro05Jl+c9R2565ardkq8yWovLg6xftuEUsAAAFLAAAJKkTCcHLWmNjdwLany5frakF+W8mTUL9MbeaS03DecvnTvDYkvDmSZd1wCpOq2zWpvNiC0mc2W6V6FZnQIWAIACFgBAyvrb7boFzyIHxdPZV3uPu78j7weHZO3dU6LFI/HLu6fa6iAMXyPZityfJdzOPWlZfDgjt4BXCPlzs/z8krVQwAIAUMACAEiSZTo5MNnu5KBY2vviF7nZ13J/ZEgf62kNvz+SnzFvb7srteRoSXflPBzlINCPOwZ8D0Zwwa4Q2Z6jh+ZONt5CCACggAUAkJTxI4TuvhspKI72pev2MtOPJZXz3E6Xfae7NfrKtvis8yujlrv7ayWtzXn6nq00+emJN/pYRnKRWJbn6P8QfwCARAELACDJ5Hdn+/mswCqKU5b4OAvDn0raNedN/cnaSum92/IDe9vKf5PsrZKSnMfmgHBMPF/uxoguikwfIbyb+AMAJApYAABJbvavTD9frMAqxkBzWxfG8+V6Xq6bKf01Ghe+fZFZfVt/dk9r+DMzf1cDnDTe0t6ffIJB3fzaV/oOksZmeDzeSRYAABIFLACApMDSOzIuGLACqwA6+pMumb053620AbPwmLkT7KGsWtBdKc831xl5z6eZPttZTV7HyG5untQy/YIhMKOABQBYf00gBACAdVE50wKWUcBqep19yRtl+nTOm3lPECSv6qlY5m88626LutzsnLzfR7r7BbMHhvZlhDevkoJsV8imTgELALD+xoMQAAAunGj3SVqXYROe3bXYQzLRnGYPDO3r5gsk5XnPpDVp4K+aP2XUQF4atNftpfdL+lnO0zsuTUs/OX6V78hIb1LuEzL9fKOABQBYjwIWAODhWUKWq7BKq/bQc8lB82lf6TukaXCxpHE5bmZibm8+f0r5ujw1qutIS6Jx4Vsk/SXfWfYpLUPJ97rcua9sQqlbpgUsV0ABCwAgiQIWAOCRSUK233KbJzxG2GS63AOLkwWSKrluqPlp3W3hL/PYtLkT7KEkCF8n+S05T/erV1WTMxj1zccs47fEWkoBCwAgiQIWAODhOYL8joxbsAdZaC63VpNPSXptvse9ndVTKX87z21cOMXuDgJ/raQHc57yT3VUk9cz8pvs2uA+KcvP9zCigAUAkEQBCwDw6DQl0wJWmvoUctA8OvuSV7nUlfNmXr7nHaUPNkI8509p+acHeoukJM8nEbmf37lssI0joKlmC3tn+Om1vfbS3SQBALD+kgQAgCS5r8p05ms2mSQ0h/al6/Zy84U5v89Y5lH41q4jLWmUuPZOiX7l7qfkvJnbe1C69ISqb8eR0Pi63AN3TcywCau6zFIyAQCQKGABAB5mwS1ZfryLFVjNYOZtPtpK4Y8l7ZzjZt4bBPXX9k6y+xstvr1t5e/K7OycN7OtnCYL5G4cEY1txQrtLqklwyasIgsAgIdRwAIArL8gBPVbsvx8kyhgNYGx6+rnSnp+jpsYW6CZ86eMGmjUGK+ZUnq/pJ/lupGm13cOJB/jiGhsoSfZrow1u4UsAAAema8QAgCAJNXWlldm3ITnnnijjyUTjaujv3aaydvz3EaTv7d7SrS4keO8yKxuaXi8S//Iczvd9fnOvuRVHBkNzH3vjD+fFVgAgEdQwAIASJIW7m9rJd2TYRMsGhWzCqtBdfbFR0j2fzlv5v91t5bnNkO8u6faatWT10u6K8/3mW6+sH3pur04QhqTu2X6BkJWYAEAHndjQQgAAI9OFrLdbyS1gI3cG1BH1Xd100WSohyP7V+uqYQfb6a4904bfYulfoykh3LczJ2tFP5k5m0+miOlES8Jnuk52VK/hSwAAB5GAQsA8OhkwZXpY4TGRu4Np8s9kCcLJe2W42beHAXh2xaZ1Zst/t1Ty9e6Wbskz3EzDxi3rv5VjpbGk8oyfYTQSyGPEAIAHkEBCwDw6GRBGRewzChgNZhbBpJPS3pFjpt4V5CEr5472R5o1hz0VsJFbjoj52eXd3dWkxM4YhqLSVkWsIYmTtYdZAEA8DAKWACAx8wxvZrtx3srSWgcnf3xy831mRw3cchMb5y/jzX9Ko7eKeH/Sv79fJ9e/LyO6tA+HDmNYdZS31nSLhk2YUWXWUomAAAPo4AFAHjMVcGqGbdgOkloDO0r/TnuWpjnewl3P7W7El1TiISYuUdRp0zX5riVY03BT06o+nYcQQ1wOQiSrIuNVbIAAHjctYkQAAAemQPXw6wnDLt0VH1XMpFvXYs9tDj5oUzPye9g9gW9beXvFikvvZNssB6Ex0m6O69tdFdrWfFcjqIGuB6YZ1vAMgpYAIDHo4AFAHhE91S7U9LqbFuR8IhRzq3aLfm8pBfltX0u/XWcojlFzM2CyXZrmupYSbXcNtLtLR19tfdyJOWdTcv0090HyAEA4LEoYAEAnmh5xrNbClg5Nrs/eY2kj+S4iXeHFh53VsWGipqj86dGV7n8w7lupNnXOgbiwzii8sulaRkPEgpYAIDHoYAFAHjCrMX7M740UcDKqVnLfc9Ufr4ky2kTEze9ZV7Fbi96rnpby2fJbF6Omxgp9Yvm9PkuHFn5ZFKm5+K0nlDAAgA8fpZACAAAj5+1ZLyRe+ps5J5Dc671KKgniyTtnN+h6x/prUS/J1vreVg6VdJfcnyy2aNmSa/cjWzlS+cyHy9ptwybMLR26qjbyAQA4LEoYAEAHj/pNevLdk7LmwjzKN4u+ZxJh+R45F7YXSl/g0w9qneSDdY9PE6uf+e1jSa9pqOafIhs5SwvFk9TtistBxaZ1ckEAOCxKGABAB5/YainSzNuwrN4rChfOqvx0ZJyu6eSS/9I1hVz0/ans6DN7rBAx0rK855gX+isxoeSrRwdU5bt44NyX0IWAABPmqcQAgDAY4XbRTdLSrNsQ914E2FenDjgz0pdvXm9ZzDpPrf6sQv3t7Vka+O6K9E1cntnjpsYuftFs5f4TmQrHzzrNxDKlpIFAMATUcACADzO3An2kMtWZdmG1NgHKw+63INSmiw06bk5bWKaBjr+/Mqo5WTrqfW0hee77Dv5baHtmUbJd8lUbuyb5Yc7BSwAwEaEhAAAsJHpw82SJmX38cEB5CB7twwkHzHp6Bw38TO9U6JfDfcvnbnEy9E4jX3in49ap9EKhkZtZLyOr5c2fU8VuNw8vf+xf5Z4y1AySg899s/iPfXgSO77szYuvW9clOwr6Yic5vPYzr7ae7rbyudw9GUu03Owp/WbSQEA4Il46wsA4Ena++Mvm/SRDJvwt57W6BAykZ2O/toLJPujpCinTVzi0gcC2XapaYx5OsbNdpBrrJnGyG28Kd3OZS2SxssUmGt7SXLZDuvvgXw7k0oujctpP+smPbi+zapL9qDkNZPWurRO0qCZ1sgVy+z+1FUP5A+4FLtpjdwHA2mdLFibSrVA/oBku7r7edKTC3Q5MRiYHza/Ur6BozCjY7/qu8qTuzNsQjLOwnFnVWyIbAAAHosVWACAJzH50oy/43jenGs9mjvDYrKx7c1Z7tvX6vXvmzzKcTOnm/Rrl8t8/ahd//8l+fr/448dw77hjx/9gSf8t1wqubTjYzqxyxPb7P7of7HH/N3DMfEn/Z3nffiNSj344QlVP+iCij3I0ZjF+T85MMtRYqYVFK8AABvDHlgAgI3J+vGNUfUdam2kIRtxPT7X5JOIBLLhU8ppzH5YWUXfs318MAfXHwBATlHAAgA8iaU5eBOhlw4kE9vWTPdSZ3/tXZIdTzSQ7UnI3tzRX3vnTPcSwdjWfP9MP921hBwAADaGRwgBAE/SPdVWd/QnKyWfnFUbAvkBkhaSjeFz/CrfMarVJpQ8eK7ke0u2t9wnuNlzJdtb1WRPl3FvgJyw74yrJt/p7I/vk7RC0gqX/uWmOyVbEaT+L1n9zj0rLbd0maXEa9jifkCWn+5mN5IDAMDGcJMKANj4JEL+d5MyK2B5KlZgbaHOZT6hrmRSULJJ5j7JZZMknyTZ7pLvoaGkRQo27IK0YX8os0cyDuTzXKQdJR204T8b9vdyuUlSSauqyWBHf3ybTLd5aivNfKXLVgbmK4NSuGLe3nYXUdw8M2/z0VqXtGbaiLR+E5kAAGwMBSwAwEaZ6R9yHZfh5x8gd5MZlZUNTrzRx5ZGx5XAg0mpfJIC29vcJ0maJGmSKxkVSJL7EzbsJoRoaqMkVeSqPHy6MLncpXqSqKM/fkjSSq1fxbXS5SsCC1amSX2lRpWrvZNskBCuN/aheF9ZpqswH1rbWq6SCQDAxlDAAgBsgt2YZeHDpR3blw1O7JVuKVLU51zrUbLd0B5SaW/J93bZdEn7SLa3lOwlWeC24f16TmEK2AxjJE3f8B+ZTO4uKwVSnKizP75PppvdbYmbr5BshVu64qGW6OZFe9i6IgUqMGX6BkKX/rnIrM6QBQBsDAUsAMDGJxJJfKOVsr1MBEF0oJq0gHXyCn92vZZM95JPDTyY6vJWySqxkolSacPG1fb4qR2A4T/XSTvKdbjkhz/8eKK5ady6JOnoT26ReVWufpMvS82WldPwn3Pb7D/NGYxgf2W56NWNxwcBAJtEAQsAsFG9U0et6qwm923YfyYbgc+Q9JNGjuPxq3zHUYPJdJnv88hqKte+9SR5jgLJ3OQ86gfk9D7Zp8g1RdKrXCZzKbYNq7akFXK/OQ1siWQ3B54s6a60rGzkx57d/OBMG2ApG7gDAJ7qwgwAwMYmEuZpf3yTSS/ObjalFzRKuI5f5TuWa8n+5r6fLHie3KdLmqahZIf1m00/ZjWVMbyARvbIxvJmBz2yqbxK6qwm93lfvNQCW5J6epOZ/WOoHP7jwol2X977NHOJl6Vkv4yvO6zAAgBsEgUsAMCm5xLS35VhAculg7vcgy6zNC8x6Vrs4e271Sp1L+2nwPd3134m309DyR6PRI29qYBCcmlHmQ5z98NMJrnUMpSoo792q8tuMtM/lNqNCuo3Tby93N91pCV5afv4Uryfy1qyDF+tHLICCwCwSRSwAACbZva3jIsx2922vLaPpH9m8eEzb/PR4weTAzz1g2TBgSbff5WS6VIwSuaSP7yYiiVVAJ7yZLqnSXvK9Zr1545Aq3ZLBjv74yUu+4crvcECuy5ZG964cH9bm0ULvaSDM36KeaARVqoBALJDAQsAsEn1JPlr6eH9xDOS1u2F2gYFrDnXejS0fa21lJYOcvODzHSQr0tmuNQiM+kxO1UBwDAY5dJBkh9ksg6lUjg6qXf0J6skv9lc16WBXVeqla6aP93+O9KNcQ8OsUzfPOt/ZUgAAJ4KBSwAwCYtmNpSzX4j9+AFkuYN56+cc61HtfHxAYF0iFtwkMsPipXsE3gQ+ob9l3kKEEAGSpLvLWlvNx1j7kqjJO3oj/tdfp2ZrrPU/rZ6THjdoj1s3XB+sMlnZNz3v5F+AMBToYAFAHiKGY152h//zaSjs2uEP+ON3Ofc7M+tRfUZQeoHuenwWMlhJhuzoVTFA4AA8iyQNNVkU+U6wU0aty5JOvrjfnO/TqY/1c2vmjSlvHRr9ws8ZYmPW6dkWqadNGMFFgDgqacmhAAA8FQ6+uPPSvp/GTahbmm4Y/dUW705P9y+0kf5UHKQmV5gpkMlvVDS7mQSQJPf1N8n118k/UWyv1hS+svmPno4uz9+cSr9IcPmJ2tGh9sN96oyAEBzYQUWAOApudlfLdvn6Uqu5GBJv9vYX7av9B1Kcf1wl7/IXS9SnMywQGUyB6BQ5+r1b0B8paRXSi6PEu/oj5dK9ic3/Smsx3+aN3X0yo3+W9fBGX+t/U+KVwCAp0MBCwDwlOpW+kvo2b7p3U0v1IYC1skr/NlJvX5I4H64pJd7nByYrn/EhnXFAPAok7SP5PuYa049CNXRF/9bpmvd9Kcg1VXh6vAvc2dY7PJDsj2B8vggAGDzLmwAADyljv7aKsn2zLAJN7jb9UHgL3JXKxkBgGHxgExXy3WwpF2yaoS7z+ltK3+XdAAAngorsAAAT8tkf3EpywLWgWZ+IG8GBIBhtb1cr8q6EYHECiwAwOZcLwAAeFq83hwAMBIe2vPOaAlhAAA8HQpYAICn5ca34wCA4WemG7qOtIRIAACeDgUsAMDTSh4Kr5XEBAMAMKw85QsSAMDmoYAFAHhaC/e3tTItJRIAgGFlxiPqAIDNQgELALBZPOU15wCAYZ6MBAkFLADA5l0zCAEAYHOYpUwyAADD6b/zJ7csJwwAgM1BAQsAsHkXDDZyBwAMI5eulZkTCQDA5jBCAAB4KicO+LPCNH6jzN4s10uJCABgmCSSfm/yH6dRdEnvJPs3IQEAbAoFLADAk8zp810S1V/t5jMlvVJSSFQAACMoNdM1qXRZyeo/nj9l1AAhAQA8FgUsAIAkqWPA9/A0PtZkx0g6UlKJqAAAMnKzuRbJ69/vnjqqj3AAAChgAUCBdfYP7u0qvcml40w6mOsCCsxNut+lVLIHHvPnqckf2MgPu1z3b+r3rP9vGu+20dWLY00qP+kfSqMlG/WYPxlnUuTSOEkRKUKB/d2ki93SH/dUWm4mHABQTExUAKBgOpcNtqVWOs5Mb5J0IBFBA0kkPSjZ/ZI/6NKDJj0o+WopeNDk96euB03+oJlq7sEDHiiV+/2B5Er9/nooL6XpfZI02NJyXzmV906y+xuh8yfe6GPrO6g8pqaxqQ+V07qN9cjKVrcxgalFZmNSqcVSjTFLW1KzHc01XtI4ycabfLxLO67/3xov+XiTjXdpB+4J0UCWSro4MP/x/Er5BsIBAMXBzQoAFMDsgcEpqZeOl2umpH2JCDK++bhPpnvcda+keyW/V2b/Uap7LfC7lQb/rcsfVMnvD5U+YEHL6gciPbhoD1tH9EbGKUt8XGIaP2hD4y0KxqtuO1hgOwWe7uyync20U+q2k8l3MtPO7tpJ0k6SdhZ75CG7s8kKyb/vnn6vt61lGfEAgKa/hwQANKMTB/xZpTR+i8mOl/RCIoJt6M9y/VTye0zBvan8Pxak95ZK5XsfmKT/LDKrE6LmcULVt4uSwZ0CK+2iku3kbjvL/b0yHUZ0sK249FfJv2cWXdRTsXuICAA0HwpYANBEZt7mo8cO1o8x91mSXiH2zcG2d3/JwufNq9jthKK42peu28tK4Y2StiMa2Mbqkhab28JwfOlHcyfYQ4QEAJoDBSwAaHBd7sHK/uTIQN4uszdKGktUkBWXndDbGl5IJNDRVztZZt8lEsjQ/Wa2SKkv6G4Nr5KZExIAaFwUsACgUSeHA76He3K8uc2RfG8igsy5Lu1pi95AIPCw9v74Zya9hkggByeo20x2YVKvdy+YNqqfeABA46GABQAN5MQbfWw0qn6cm3dIegnnceTI3bJwX/aewWN1LvMJHiQ3af2G70BeXOPm3yvVoovmT7f/Eg4AaAxMfACgAZw0UDsoSIM5kr9N0ngiUgixpOWSlsq0zFJb5qb/Sv4DSWNyd0Phdmx3W/gT0oYnau9L3mrm389bu1z6l7tODOSTZNbm0jSTTZV8L0klMlcIQ5JfbIF9t3ty+HseMQSAfKOABQA51bnMxyuI3ybZHJcOIiLNPIHScpOWyHVzGtgSt3TFQy3RzYv2sHWP/cGO/toFWv9WyZzdTfiCnkr5JFKJTenoq/1AZm/OW7tc+mxva/SZx/7ZnGs9SrYb2iO1cLrk+5jb3mY+3V37SxpHNpt2WjTg5vPCUtg7b2+7i3gAQA7P1IQAAPJldl/tkDQI3iH3tzJZaiprJN0k2T/M05tk1hdYuGxz39bX3h8fZdKvc9ivO4ZawuddONHuI8XYlDl9vkus5CaZnpOzptVSS59/fqVlydP9YJd7cHvf4MQkDNtU1z5mtq/J93NpuqRRZLlp1CT91Ezf3XNKeEWXWUpIACAfKGABQA7MvM1Hjx2M32Zu75H0fCLS0FyylZLfaK5/yOymuiV/nzSlZeXWToRm3uajx62r3yT55Lz11QO9undK9CvSjqfTXk1ea+4/zeERe/XE1vBFW3t8di328PbdapW6l/ZT4PvL9TzJ95NsT7Le8FOlAXf/tsphd+8ku594AEDGZ2VCAADZ6VzmE2TJHDe9R9IuRKThrDapX+43p6brAtmSpB7esGCa3Tus46Qaf95dn8zhbcR5Pa3huxgG2Fwd/Um35B35G8p+Sk+l/O3h/JUnVH27ljTZT+b7uGy6mQ7iMcSGNWjui1LT13pby38nHACQ0eWaEADANuZu7dXk5Sa9V9IxkgKC0hAekOt6N10bmF1bV3Ld+VNaVoz0pr8nVYemBx5cL6mcq2EsWxmkpf27p9pqhgY21wlV367s8U05XJ30QN3D6Qva7I6R/JAu92DFsqEpQSmcYe4zZJoh6UBR1Gokf3K3c8qrSz+eO8NiwgEA2w4FLADYRtY/BhbPkuz9kqYSkVxbI+kGl64LzK5VPbm2u62lf5u/ocrdOqrJlZKOyFl8Uple2lOJ/sBQwZbqWBa/VIGuyOF96MU9rdFx2/za4F4aM1CbGqSlGQo0Q+4zJB0g9tXKuzvMdLbVwrnzp9t/CQcAjDwKWAAwwk4c8GdF9eQUHhPMrVhS1dyvS03XBW7XrU7Cvy6abrWsG9bZX5vjsvNyFzHX13vaog8ydLD1Yzv5lstPzd3Qdntjb1t4Sdbt6Frs4crda22ltHSQmx+04fHDg0RRK4+GzP2HHviZPZWWmwkHAIwcClgAMEJmDwztm6alD0h+gqQWIpKbKeotLl0VuK7xQNdED0Q35fExkJNX+LPTJFnq0o65unEw9a8eFR6waA9bx1jC1ppzp4+J19RvlHxKzpp2e83C6RdU7MG8xezUqresseQgpTpMriNkOkzSroym3Egl/dwCfb17SrSYcADACNyHEgIAGF7t1fh/zPVxSUdzns3ckKTrzXRN6nZVOSldM3cf+1cjNLyjv3aBZMfnrFkeSP8zvzW6kqGFYTpX/i5v50k3O6e3Er63EWLYuWywTUFwaOrBEWZ+mNY/ns51J3vXu9mZe00p/Xhr324JAHgyLnAAMCwzHrf2gfox5v4JSYcSkMzcJelv5rpOpj+tHh1e1YgrhTqr8dHuujx3w1z2nd7W8N0MMwyXjv7kO5K/M2fNShXoRT1ToqsbLZ4nVH27Fk8OkesINx0u6XBJoxlpmU21VrjSb60dHc1l1SoADMNZlRAAwNbrWuzhqt3rb5X7xyVNJyIZcS02q5/c3TpqRaN3Zf1m//WbJJ+cs6bdEZXC6XMn2wMMOAyXDW8l/Kdke+TsDvmm6IHwoEZ/y9ypVW9Zq+QleSyIF8yd5vqaPJzLm1sBYOvx6nYA2MpJQUe19u5Vu8VVuS8UxausJ5ut3ZWWlc3QlXGDyadzWLySmZ1C8QrD7YKKPRgoyN+qPtfzauOTjzR6fM+q2FDqNo6RlrkJbvo/Bcmqzr64q32l70BIAGBrbvkBAJtt5hIvjw/rb3XT6ZLvTURydEFL/eDuqeVrG7kPJ1WHpgce3CApytfNgl/U3Vp+G6MMI6Wjr7ZQZm/PWbOG3NMDettaljV0bPtrvZKdxCjLldUmnWtx+OX50+2/hAMANg8rsABgM8xc4uXO/tqccVGy3M3Pp3iVP2722kZuf5d7UFJwnnJWvJJ0bxBG72eEYSTV0+j9Wr+HXZ60mAXfkXvDfuHb5R5I9kpGWO6Md+ljaZSs6uiPv3nyCn82IQGAp0cBCwCewqlVb2nvr506LkpWuOw8SbsTlZwyvb6Rm39rNT7ZXYfnrmFuH5q3t93FAMNIWjDN7jWz03LYtJd0VuOGXb20annyQkkUR/JrnKTT6klS7azGnz9+le9ISADgqW73AQBPMtO9NHYgPslcp0u2JxFpDEES7jV/H1vVaO0+eYU/O02SpS7lbfJyeU9rxOoNbDOd1fgn7npDzpp1ryyc1lOxexotnu198RfN9HFGVsNMzO5z11eSwfBbC/e3tUQEAJ5wr08IAOAJE6j++OVjq8n15jaf4lVjqYfx6xqx3WkcfyWHxauHTPVTGFXYpsdCGL7bpPty1qyd5fUzGzGeZnodo6pxuLSjTF8IRye3tFfjj7Wv9FFEBQAeRQELADZo74+P6qjGf3PpNybtR0QacLKmxtsHq70vfpHnb/NqufyT3a2jVjCqsC31TrJ/p+Yfzl/LvKOzLz6ikWLZ2T+4t6R9GFUNaRdznam4fnNnXzJr/V5mAABOhgAKr72/dkBHf/wbk34t1wwistWSHLThJXOW+/aNErCuxR7KdLby90j/n/eqRGcxpJGF3ilRj6Tf5KxZlprO6VrsYaPEMVWQh4L+aklrGNVbOejkk9z8/FuqyQ3t/fFRRARA0VHAAlBYnct8Qkd/cp7JrpX0ciKyVR6S9DNzO8nScKKkWsbtKcdJvWH2bLp19/i9OVztV0stPbnLLGV4I5tZu3mQhO/Q+uJHjooJ2u+WCclpjRNGy8Pjg90ehbu62eskmyvpbgb41o09k37d0R//ZtayIVaIAyjy+RAAiuXEG31sNCr5iJs+LGksEdli/5Xs0kD68RgrXXFWxYYe/ouOavxbuV6abfP8wp7W8gl5D2L7Sn+OxUmfpO1ydWPgOqO7LepimCNrHf210yT7Zs6atbru4bQFbXZHnmM3Z7lvH9eTeyRFmZ5PTK/orkS/fvh/z1zi5bEtyUsDt2Pd/Q2SdmWkb7G6ZPNKYel03hALoGhYgQWgONyts7/WHo5O+t10uihebYl7zOy7ZnpF9GD4nJ7WsHN+a/jzxxavJMnkl2XdUJO9as61HuU9oFaLv6KcFa8k9Y0Nwi8y3JEHayrROZL+lrNmjQ8t+XreY7dhJWrW58HVYxX+4bF/sGi61XqnRL/qroRz1lTC51qgl7rZOZLuZMRvtpLk76wnSbWzGn/81Kq3EBIARcEKLACFcNJA7aAgtbMlvZBobPYF4j43+7Hq/v01beEfFpnVn+7fzB4YnJKmpWrmjU/1sp6p0e/yGtvZ/fGLU+n3ObsOu1K9PM9xQ/HMrtYOTN3+KilXe089cWVR3rT3175nsqxXol7c0xodtzk/2OUe3NqfHCbZ29x8pliZtSWq7vb+3rbwF4QCQAHmJwDQvGYt9Z1LpfrnJX+HWHW6OR4y+U9lwfdX10q/WjTdtnhPq47++GZJ07LshEvf6G2NPpDHAHct9nDVbskNkvbNU7tcfkFva/ntHALIm46++Gsy5e14ro6z8HlPXIWao3PMXZJ2yvis0tnTWu7ZmvbfOqF+lJS+zc3eIGk8R8Fm+Vlq9fefXxm1nFAAaFYhIQDQjLrcg1ur8RxX8jlJOxORpxRLutzMLhpVK1167nR7pm+MukwZF7Ake73cPygzz1uwb9ktfo/J9s1Zs+4Pw+hDHArIo9FJ+Jl1UfwmyfbIUbMqazz5sKTP5y1et+6RvEhp1sUrpaUw2qoVQV1HWiLpl5J+OfM2Hz12sH5MID/eXa+SxONym3ZM4KWjOvrj/4vGhV+YO8EeIiQAmg0rsAA0nQ2PnJwn6WCisUnu0h9NfmG9Hv1owTS7d7h+cXtf/CIzXZn5BS71g7unlq/NU9A7qr6rPOmXtEO+7gb8lJ5K+dscFsirjmryerlfkrNmrS1ZOHVexW7PU6M6+5Jz3PyUjJvxl57WaFgf2W9f6TsoiY8N3I536UixqvqpLvG3mAendLeFvyQWAJoJJ34ATWPmbT66sy/uSt3+LIpXm3K7SV9KrV7pbY1e0tNaPm84i1eStLY1vFrSfzK/fQ9sZv7mFPXPKW/FK+lva6ZEczk0kGc9lfBSuS7NWbPG1j3+cp4a1OUepOZvzEFThv2FHr2T7P7eSrm7uzV6ed3DPd30cUlVjo6Nsb3c/Bcd/fFlJ1d9d+IBoGnOboQAQDNo70tebZaeI9leRONJBm39ZGJudyX87bZ4rK6jr7ZQZpnup+Sylb2V0uS8PEbY3l87wGTXSirlaGzUA/OD51fKN3CYIO86BnwPpcnNksbl7G76f3oq0R9yEaNq/BK5fp95SNwP6G4r37gtPmv9S1qCOZK/TeyXtTEPuPz0vSrRWV1mKeEA0MhYgQWgoZ044M/qqNYuMvOfU7x6HJf0B5N3jI7DXbtbozd3t0ZXbKtijgXBZVkHwOSTTloePz8/c1z7hvJVvJKksyleoVH0TLHbZP6ZHJ5tvznTPRfHtrkdl4OA3NbdGv1jW33a+VPK1/W0hu9M1oXPdbNZMv1OEoWaR21vsm/cOpBc2d43NJVwAGhkFLAANKzOavLmME3+Kbe3EI2H51H6l6TPmepTelqj/+luLfcOw6bsWywMSpdLqmUdj1Kaj8cI26vJTEkvydlwubNm4Wc4atBIJt4enSUpb0XX/ccOxO/MuhFd7oHLj826HebBZVmsfF24v63trYQLeyrRy4Ik3NtcZ0i6g6Nmw/2B63Cz4PqO/vjDeSm4AsAWX2MIAYBGc/wq33HUYPxNNzuRaDxyMr9Obt8KV5e+P3eGxXloU0c1/oXWvzUquxv2HDxGOPM2Hz1uXXxz3lYIutmbeyvhIo4eNJrOZbUZHtiflaMVjSbdF3rYOrfNMtv/r7MvPsJNf8xBLI7qbo2uyENe1r+ROHmppDkuHav8rYLNyp/d047etpZlhAJAI2EFFoCG0tGfHNMylPyT4pUk6UHJ5gZB+rzu1mhGd1u4IC/FK0ny1H+S/UTKJ3UMxAdm2Yaxg8lHc1e8kn5N8QqNqntq+VqZfTtnx9SOsdX/N9M2mN6Ug1DcHz4Y/iEveekyS7tboyu6W6M31z2cuGHj99s5ivRCs+CG9mr8MVZjAWgkFLAANIQ5y337jv7aBZJfJmlCoYNhutbNZ0fjwuf2tIbvnD+l5Z95bGa9FF0qqZ75xDLDxwg7BnwPc300Z6lZ51Y/hbMKGllNpU9JujNfrfI57f21A7L5aDfl4vFBvyxPX6Q81oI2u6O3En1pTRxOlttb5Vqs9ftFFtUoc505tpr8bvbNPpGzCoBGQAELQO6dtCw+PK7Hf5fs+AKHIXb5Be5+SE8lOri3Uu6eO8EeynODF06xuyX9KfMJlWVXwLJ6/HlJY3KWmi+cXxm1nDMLGtkFFXtQZu/LWbNKG17WsM21D8QvkGyPHEwtfpL3sbNoutV62sIf9LRFL7W0Ps3czpW0tqjHkkkvTsPk7+19yVs5swDIOwpYAHKra7GHHX3xGUGgPxT4DYP3yvRFS8O9elvLb+9tK/+tkRrv8hxMZnzy7Gptmz9GeNJA7SA3OyFnKekbZ+FXOLugGfRUwh/J9MucNeslHdVkmz/KZ7I8PD74UDi+dHkjjaHuqaP6utvC9wRxuKeZPqHibvq+g5l/v7OvtuCEqm/H2QVAXlHAApBLnf2De6/aLblSps+omJuuLjP5u6Nx4Z49leiT3VPtzkbsRFqKfqIcPKKRatuvwgpS+2rurrOm951VsSHOMGiaG1mrnyYpV2PaXV9uX+mjtuEHmtyPy/z0Yvp13lcGb8r86fbf7kp0ZvRgOMnM3i7p+iIeT252YuT1v3dW40M5uwDI5XWfEADIm85q8jqpdK2kwt1AmekqN3vzmkq4b3dr+TuNOhl42ILJdquka3NwV/6Wbflx7X3JGyS9JGdj65KeSnS5gCYyf8qoATN9NVfHmnySaskHt9Xnze6PD87DKuVUdnGjj6e5MyzuroQX9LRGB5nrRSYtUg72ctzW49ddV3b2xV3r91YDgPyggAUgN7oWe9hRjf/P3S9xaccCdT0x94VBkD6vuxId0VsJFy0ya54bZlceHiPce1ttrjznWo/M/MycZWFQXv8QZxk0o3Bs+HnJb81VEcD0ic5lvk1eOJKaHZeDLse1culnzTSuutuiP3W3Rm8OgvpUyc5Tzlb6jfRh5abTOweSi9tX+g6cZQDkBQUsALkwq893W7VbsliuD0kqyjd+Q5KdV0qT1u628qy8vk3wGU/kvJ6Lb+XN7M3bZBY3Pn6npLY85cClr3S3jlrBmQbNaO4Ee8gUfDBnzRrnQfyFkT+43VzZvajiMf5w4US7rxnH1/wpowZ6WsN31T2c7NI3JD1UlGPLXW+wuH5dR7X2fM40APKAAhaAzJ3UF7+sZMn1ko4oSJfXyvV1S8O9e1rDd82bOnplM3e2e+qoPklLMm9I6seP9OMQ7St9B5mdnrMpyK3lceGZApr5PNMa/ljSb/LVKjtxdl/tkJH8hI7lyaEmn5T5Wcb8J80+xha02R29rdEHZOFeMn1R0oPFOLp8b7ld1d5XewdnGgBZCwkBgCy199feZ9L/FeR89ICksyMPvzG3zf5TpDyb60dump5tI2zi7GryovnSlSP2GXHySUm75GrqYcGHG30vtTyZs9y3T5J4Lw+CvZSme3hgOwduO7vSnU0WuTRWUnnDj68zadDdh2R2r0n3Sn5P6sGtFtRvWTOqvHLRHraOqA7TWPf0NLPgxsfEP2tBavYNuR8usxF5mYXV7QS3zN+TUVcYXVyUcdZTsXskffL4Vf6VllpyqlynSdq5ybs9yszmdvYlB4SrS++fO8NizjgAMrmdJwQAsnBq1VvWeP3bkncUoLv/lfS1qBSePXeyPVDEfHdUh/aRB5mvwjKz73ZXwjkj8btPXrZuUj0Il0pqyc+MXot72qKXcsbZOrOW+56lev1wlx8oaX9z7SfTc4Y5SbdIdpOkf7jbtfVS6eqFU+xuor912vvjL5v0kTy1yd3e1tsWXjTcv3fOtR7F2yV3Kvui+e97WqMjizrmTlni4waj5N2+ftztWoAu/z7ycGbRvogDkA8UsABscx1V31WeLFLO3tI2AtaadHYahWf2TrL7yXv8D7mel/FF776xFj73rIoNDX//ahdt67cdPo2knqYHLZja8g/OOpvn5BX+7DSuv8ItfaVkL5K0eybj1NTvsivN9auwVLqiqIXvrS0mrIuSZZJ2y0+r/JZxFk0d7vNOR39yjOSXZT+Z8Hd3t5a/U/Sxd+KNPrY0JnmvuT4uaYfm7q3flgZ64/lTytdx1gGwje/lAWDb6ajWni+3n+ZrcjHsBuX6toLwixseNYCkjv74U5I+l/ltt+y43tbw4uHtW+0Fkl2Ts+vqN3tao/cz8p7a7Jt9oofJm12aKekg5W9/0ESmK+X+Q1l0MeeUzTkek7dJfmGubrhdH+5ui746zOedCyV7W8ZdqydBOIFVg485pyzxndIo+Zik90oa08RdXWNmJ3RXwp+SdQDb7HpKCABsK+398VEm/UjSdk3axdjcLwq8fnqzb8y+NU6qDk4OvDSQg6Zc3NMaDetr5zv64z8qXy8huNujsI2Vfxu3fqVE/BZzO1nSCxvofqgu06/NbX74YOmn7EPzFMdkX/w7mfL0WNv99Xo4ZcE0u3e4xnA4OrlL6/dcy9IVPa3RUYy4jYzBqu9qnnzIpfcrT4+WD/c5yf39PW3ls8k4gG2BtxAC2EaTidrJJv1CzVm8SuX+vdTq07rbyrMoXm3c+ZVRyyVdn4OmvOb4Vb7j8E1SkjcpZ2/QNPNPUrx6svblg5XOvuSccHRyp7nNl3SoGuvLvJJcr3L5j+Lxya0d/fHn2lf6c8jsRm5wS+lpkpIcNWmHUpB8arh+WTim/kZlX7ySyRcx2jaup2L3dLdGHy+lyTSZL5BUb8JulmR2Vnt//OWRfssvAEgUsACMNHfr7Iu7ZPZdNeebBn8fmM/oaSufuKFAg6f2gxy0oWXUUDxzOH7RzCVeluuLeQqwSdftOSXqYag9qrMaH9pZjX9i9dIyNz9FzVBIX7+Z/KcsTm7p6E+62/uGppLpR82f0vJPl87OWc7e0758sDJM19a356BHiVv0E0bbU5s3dfTKnkr5pJLS52n9F3lNx6SPtFeTRTNv89FkHMBIooAFYMTMdC+1V+vdbjq9CW/XlrvsuJ7W6Mj5lfINZHsz51z15IeSMn/nu8uGZfI3rhy/R/IpeQqxy9/TZZYy2qRZy4b26+yPf+iuq931hia972mRvMMsWNLZH/9w1tLBVjK/XrkUdsn17zw1KaiXPv9Mf8nJK/zZkl6W/XlUv2NPts03r7VlaU9r9Boze72Z+pvurkg6bty65Bedy3w82QYwUihgARgRM5d4eWw1+YHJ25usaw+Y9NFxVpo+3BuBF0HvtNG3SPprDppyRPvSdXs9k18we4nvZG6fzlN8XXZ+T2v5L0UfZ+1L1+3V2R//sBQEf9+wOXsh7ulcmlkqlZZ0VJOzZi/xnYo+Dta/vdE+nq9jVG/qrMaHPpPfUU/itygHK5oD8x9yVdty3ZXwp+ED4b4y/6BJ9zVZ9/4nDZIrOP8AGLFrDyEAMNzm3OljxofJpSYd10Tdqkt2XhKErd2t0VeG+3XohWKeh8cIzUrhCc9oQETJp13aMUeRXVNOSp8s+rmnoz/+nJXCpRsKV0XckyWU+3vTKKl29NXeO9O9VOQxMbG1tFCma/N0BpT0lWf4K47PQT9iq/H44NaaO8Pinkr560k9rMjsbOVrv7ZnOsAPScvJ79mfD8BIXUQBYNicUPXtIk8uM+nFzdInl65UPX1v77SWm8jwM3dy1Xeve7JK2X+JsrSnNdpna/5h+9J1e1kp7JNUztEF/TPdrdFnizqu2vviF5npu5LaOMoe5waZn9xTKV9f8LFxZa6uK2av662El23pv5s9MDglTUvVHHThFz2t0Ws4vIbputg/NC1VcJbn4NHQYbsmmfqTIDxqwWS7lQwDGC6swAIwbE6o+nZlT37dRMWr/5i8o7cS/g/Fq+Ezr2K3S7mYTE47aaB20Fb9y1J0unJUvJJ0ezgu/GoRx9OJN/rYjv7kPDP9QRSvNuZAuV3TUY0/07XYwyIGoLct+qNLP85Vo9w/1+W+xffhdS+dkIfmm9mFHFrDeF1sbVna3Rq93MzeLumuZuiTu1pL9fgPs5b7nmQYwHChgAVgWJyyxMe1KPmFpBc0xX2X2/x6PZza3VrulZmT4eGe/Pj3ctGOdMs3c++oDu1j8hNzFU+3T82dYA8VbRx1LqvNiMYk10s+R6wqfypluc64ZbfkqtkDg1OKGAC3+sck5ebRb5P2u3Wg/rYtvDKZufJQwFo7qla6lMNq+HVXwgs8Cqe67DuSmuBlHLZXqV7/3aw+343sAhgOFLAAPGMzb/PR68Lkp+46vOFvtUz9SvXy3rbw5AXT7F6yOzKGFC2StC4Hk8gTT616y5ZNIoPPSsrTvkI37Nla+l7RxlBHtfYBD+xqd/HWvc0f74ekaem69v7k2KL1/fzKqOWSzspTm1LXZ2cu8c1eydnZnxwuqZJ9y/3Sc6fbGo6okdE7ye7vbQ3fLfODJf2t8Xvkk0uWLO5c5hPILoBnigIWgGekfaWPGrcuuVSmIxu8Kw9J+lj4QLhvz9Tod2R2ZF1QsQcl/TwHTdl5teqv2+zx3lc7WNIbczU1MH2wyywtytiZeZuP7uiv9crta5IijqYttp3Jf9TRH39zzrVeqPh5FH5e0j15aY/JJ40rx7M39+dTWXsu4ujBBRxGI6+nUr5+4h3hYe76kKRGLxhWPEh+c+KAP4vMAngmKGAB2PqJpHvJaslFko5q8K78MbX6fj2t0ZfnzrCYzG6r2Zvl4zFC99mb32T7vPL0qJrr0t5K9PuiDJn2lf6cceuSqyQ7iQPomQ17Sacl45Ofdi7z8UXpdO8ku9/Nu3LVKLf/N+dOH/N0P3bijT7WzN+cgxbfU15d+g2H0LbRdaQlvW3R17yePE+mRv9ybZ8wTX5VpHMOgOFHAQvAVhs3UP+GTK9v4C4MuunjayrhkRseL8E2tKZW+qWkPDymedTsm33i0/3Q7P74xcpXsTaup/WPFmW8nLxs3SSLkyslHcjRMzzc9EovJVcVaZPltVOi8yT9M0dNmhCvSd77dD8Ujqq/SdL47MeM/ZAvera93mmjb+mZEr7c5O9UY6/GOtAtuXSLH90HgA0oYAHYKu3V+HS5v7dR2+/SX93TA3sr0ZcWmdXJ6La3aLrVXLYoD9fCNEqedkVPKp2ZsxCeu2DaqP4ijJXZ1dqBdQuvVi72/2kyrueV6vGfOpcNFuINjovM6uaWt8LvJ45f5Ts+5U+Yd+Rj4uA8PpgVM+9uLc8tpcl+kn7fuP3QkWs97t2at3ACACcOAFuso692srm6GrT5sUlfKj8YHtHb1rKMbGZ8EfKcTIbcT57pvsmN2TuryeskHZqf+3/dV6+Hny3E+aYavyR1WyzTczhiRmxE7eFB6crOvtr+Rehtd1v4S0mX56hJO7QMJR/a1F+evGzdJEkvzsE4Wd49Jfwzx0u25k0dvbKnEr50w2qstY3YB5e99ZZqcibZBLDFcwdCAGBLtPfHR8ns2405R9NN9TSd0d0afZxHIHIykWwNr5JsRR4m8OMHkpdt7G+63AOXfy5PcUtdnyvCWzLbB+JXynW5pO05Wkbcs9zsd+39tQMKcQMcpB+WlOSoSe8/eYU/e2N/UbewXbnYe8+/LzPnUMnD/cyG1VhKD5bp2sa8JdNHOvtrc0gmgC26fhMCAJs9mVy6bi+TLpQUNtyNkvvCaGz4wgVTW/5BJvN1E+45eSTF5Z0b+/NVA/Xj5XpejoK2YnwQntPsQ2N2X+0QS7VIEnulbDs7mezXHdWhfZq9o/OntPzTZfNy1KSxaVL/1JNPTG5udmI+Tj3p9zlE8mVea8vSibeHh5rrDEkN9zZal53dUY1fQiYBbPaliBAA2Bydy3y8B8nVkvZtsKY/KLc5PW3hD8hiXsfWYJsHpTw8zjkUebj73Db7z8N/MOdaj+Lt6ksln5yfK7fN7KmEP2rmMXFy/9C0uoI/StqZIyQTd3g9OaJ32uhbmrmTJw74s8I06Vd+VvjVvJ60PTbuJ/XFLwtMV+RgxnBtTyU6mEMjvzqqyevl3i1ppwZr+l0KwoN7pthtZBHA02EFFoCn524qJQvUYMUrk65Lrf58ilf51j11VJ+ka3LQlJYkiN/+2D9Itotn56p4Jf2p2YtXs/p8t7rbL0XxKku7WSn8xdNuLN7gFk6xu930xRw1qaxSdPrjrmM52bzdUu/lsMi3nkp4ab0UHijX1Q3W9GcrTS6Zc6ePIYsAng4FLABPq70/+YS73tBATXZJ3xpr4eHnV0YtJ4MNkDD3nny0w2Y//N9n3uajXfbpPMXJTB9t5nEwe4nvVLLkcplN5KjI3LSWweTHM5d4uZk7uXZU+C1Jt+fmGJef+PAjnHOW+/YmOzYHzRqyJOLxwQawYLLdOvHO8CUmfWnDvVCjeH5tTf0cMgjg6VDAAvCUTloWH26mMxppPiKzN/e0Ru87q2JDZLAxxEH0A0kP5aAp+3b0114gSePWJadKmpCbia3pku5KdE2zjoEu9yCNkgslTeeIyMug05Fjo/o3m7mLi/awdWbelaMmleTBZyUpqcdvkTQ6+2Ggn86fbv/lgGiQc+mRlnS3Rh93t2Mk3d84pxtv76wmJ5BBAE+FAhaATWpf6TsEgX9PjbNp++1p4C9p9kesmtEFFXvQ5T/JyaWxc85y317K1Wqnel3p/2vmMXBrNfmCpFdwNORuUvmu9mqts5n7uHpK1Cvp5hw16dj2au2FLstF3FO3Xo6ExtPbFv7CS/VDJC1tlDa7+3c6lw22kT0Am7xLJwQANjlxiZP5ku3VIM39UxKEB50/pXwdmWvQ8ZZad05uod8WJ8npytUeTLbg/ErLkmbNfUc1eb2ruR+PbOhj0+2czr7a/s3av0VmdXP7fzmL+XclvSDzs6H0r73uLP2ao6Ax9U4eVfUoPMylRsnhOAWlC06tOm+fBbBRFLAAbFR7X+0dko5thLa62/w1cfiyhVPsbjLXuCa2hb+X/JYcNGW8TB/IUWgG66VSV7Pm/eQV/my5nyfejJxno9zswpm3+ehm7WB3a+kSSX/OUZPy8tKU73UdaQmHQOPqnWT3r62Er5br6w1xTycdtNaTM8gcgI2hgAXgyRPKqu9uZl9pgKbWXf7+3rbw5EXTrUbmGluXWWpu5xOJJ93Nf3vBZLu1OfvmliTJAknPJtG5t8+4wfqXm7Z3Zi7Tx0nzE8OS9hKFxrfIrN7TFn1Q8k5Jud8f1KUPtffVDiZzAJ6IAhaAJ6mnydmSts95M4dk9tbe1vI3yVjzSNOkV1JKJB6xOimFZzZr5zqr8TtNOpo0Nwj395zUF7+sWbvXU4n+INMvSfQj/tJTabmZMDTRGG8t98j0CkkP5LypoZmdz6OEAJ6IAhaAx+moJm+X6fU5b+Yak45hs/bm0ztt9C2SriQSj/hysz4a27nMJ7jsi6S4oVhg+nYzP0roSfoxUUTfkG1nRWwTWl+o9ZdKyvu1ZdraNPkEGQPwWBSwADxi1lLfWe553yPhLpe/qLs1uoKMNeucyXqIwvqxPjoOv9G0hQJLzpW0A2luOJVxg8mnm7VzvdNabpL7haRZg0Pl6CLC0Jx6KuXrvVQ/Iif7Tj7FdUKf7KgO7UPGADyMAhaAR4RB/X8l7ZLfFtqK1OqH97aW/062mlc8WPqxpAcLHwj3z5073dY0Y9dO6otf1gArPbHJsakPtS8frDRr90pe/4ykgu+r6D+5cKLdx2BvXr2TR1UtjQ6X9M8cNzNyD75OtgA8jAIWAElS+9Kh57n5nBw38Z9RUjri/Mqo5WSruS3c39a6rOArIGzFmiSa24w9m+leCkzfYKQ3tHKQlpp2Q/d5U0evlPSdQmc4tXkM8+bXPdXuHGoJX6x8vYHz8VdD6ej2avJasgVAooAF4OEbhFLwVUlhTptXjZLw6Ln72L/IVEEuTp4WevLo0qeb9c2a46vxOyTtyyhv8DHqekNHNX5Js/Yv8vCzKuxKUFvR0xYuZpQXw4UT7b6aha+Q9LfcjkjX19nQHYBEAQuApPa+5A2SjsrnRN5Wlix8KcWrYuluK98o07UF7f6Ne1VKTbn3TPtKH+WyTzHCm4NJn2/Wvs1ts/+46WtFzKubz5WZM8KL44KKPVivh69y6R85HZWTV6fJe8gUAApYQNG5m8zPyGnrbg+UvHxexW4nUQUcmqnPLegh+ckus+Z8C1ocv1PS7ozuZhmrOry9Pz6qWfsX1MOvKf9vahv2o1RhyNsHC2jBNLs3DMOjJS3LY/vM9LETb/SxZAooNgpYQMF1VuvHmrRfDpt2l6X1l3e3jlpBlgp6gfLoIkmrC9btP/W2hb9oxo7NXOJlk32Ukd1cTPpMs/ate6qtdteXCpbSy3on2b8Z2cU0b2+7q+7hyyXL473Xs8LRrMICCj8/IARAgblbKs/j5GO1ub+ie+qoPpJUXN1TbbVk3y9Up1Od3qxdGx/Fx0uawMhuOkd0VuNDm7Vza8eE33apMI+we6DvMqSLbUGb3eH1+GWS7sph8z58yhIfR5aA4qKABRRYe7X+xhyuvkrN7O3dbeUbyRAsTYs0mfpDz9Tod007MZa9nxHdpLl1fbBZ+7ZoD1tn8jMLkshVe00Of82IRu+00beY6Y2ShnLWtF3XRckpZAgoLgpYQJGLA+4fyt39s+mT3ZXwp2QHktQ9tXytpOsLMXc0dTVr3za8rW5/RnTTemPHgO/RtMdmFM2V1Px7MQbW3bT772HLr7+V6Bo3e0cOm/a+Odd6RIaAYqKABRRUe3/tAJkOy1ObzH1hbyX6EtnBEwbGvObvo37XW4l+37QFAPd3MJCbWklpclKzdq53kg2aN/0qrLQehL0MZTxu7FfChZK+nLNmTYi3r7+e7ADFRAELKGpNQMFp+WqPrls9JnonmcGTxkY9+p6afDP3wHVGs/atfaXvYLJjGcnNzmd3uTftfeXqJPqu5Lc0bfakXy6YbLcyjvFEEyvhJyTlamW8u59KZoBiooAFFNCspb6z5G/NS3tMui+w8A2L9rB1ZAdP1D3VVsvsB03cxd/Mb42ubNobjTh+q6TRjORmZ3vdVk2OaNbeLZpuNZO+2Lzps/MYw9iYLrM0KoWz5L4qR/eNL561bGg/sgMUDwUsoIgHfik+Pk8TSpe9Z17Fbicz2OQY8fSc5u2bPtvcubM3M4KLcpzaW5q5f+GDUY9kK5owc7eunVL6BSMYmzJ3sj1gsrdLquelTSUL2skMUMB5LCEAisfccrP6yqUf97SG3ycreCq9reW/S7qm+Y5F/aq3Lfpjs+bt5BX+bJlezAguBjef2bXYw6adxM+w2C39fNOdh8y+vciszgjGU+lui/7k0tfyc77RW2e6l8gMUCwUsICC6RjwPWQ6NCfNubMUh3PICjZzlnVuE074u5o5ZfU4fq0kJhjFseutE5IXNnMH106JzpfU10RdqsUWdjN0sTnGW/hpSTfm4pZAeu745QlfkAAFQwELKFoNIE3euv66n4u7j8750+2/ZAWbY5xKiyTd0yz9cennPa3lvzT3CcdexcgtFje9spn7t8is7mZNtArLf7Rwit3NyMXmOKtiQ15PT5RUy8kJ521kBSgWClhA0SYXUi7eBmamS3oq0eVkBFt04+ya3yyHYpA29+qrDY+SvYyRWzhNX7RcO6V0oZpkFVaaNt/KVoys3mktN0n6di4upO5vaOa3nwJ4Mg54oEDaV/oOkg7OQVPiJKl/jIxgiydbYfht5WgT2Wfgsu6p5WubOVe37B7PkLQ9o7ZwDpy9xHdq5g4uMqu77H+boCs3nj81uoohiy011BKeIeneHDRl19sG4v3JCFAcFLCAIh3wcf1lysF+NCb7zoJpo/rJCLbUgsl2q6SfN3g3PGjyva8kydyOYMQWkqVR/bBm7+ReldJFkpY0+Kno2wxXbI0LJ9p95vpiHtqSuh1FRoACzWcJAVAcLuXhIn9/Ui+dQTaw9dNjNfQjL2a6dH6lfEMBMnUYg7Wg1xr3w5u9j11mqdTQe2E9MDqOLmC0YmuNDcKzJVuRg6ZQwAIKhAIWUCx52I/mqwum2b2kAltr4pTwN5Kqjdr+NPUvFCRVhzBai8mkFxShn2sqpR827LnIbOG5020NoxVb66yKDbmpKwdNOWLmEi+TEaAYKGABBbF+/yufnHEzHqrXQx5ZwDPSZZa66zsN2vzf9LaV/9bsOZq11HeWtBujtaBMhdiTZv0bCf3MhpwAWP08BiqeqfIDpYskvy3jZozarhxPJxtAMVDAAooiSQ6QZBnPahay+grDoTYq7JH0UMPN64N87Bky0kqWsKluse3UucwnFGMCHy2U+6rGOhHpd/OntPyTYYpnau4Mi90t8y+UXHo+2QCKgQIWUJSDPdVB2bci7SETGA4XTrT7XLagwZr9l+4p0eIi5McD59vwgkuDpBBjYO4Mi036SkMdn7JvMEIxbPeXHvYq47cDpwoOJBNAQc45hAAoCs90RYSZ+ntay38hDxguoerfkuQNcwRaQ2/4vKVH/N6M0GIzeWHGQFqO5rv0rwbJzIq9ppR+zgjFcOmeandKuiLTUZ06BSygIChgAQXhZlMyvcFPdTFZwHCa19qyVNKvG+L4k/7RO6X0s8LcXJj2YoQWm8kmFaWvvZNs0KSvNUReLD1r/RsUgeE83v2SjBswmSwABbnHJARAUfjuGTfgF+QAw37P6vbNxjj87Isy86LkxV0TGZ0Fv+KY71Wk/o6Ow+9I+k/Om7kmDCIe5cfwTygt+pmyXRH9rPaVPopMAAU43xACoPnNudYjybLcUHdwbRLy+CCGXXdr6VeSlua7lbZ8rztLPypSXlx6DqOz4NyeXaTunjvd1pj0rXyfiqx37mR7gMGJ4TavYrdLtjzL0V2qD+1OJoDmRwELKIDa2MHdJJUynM1ev2i61cgERmBC5m5+dr4n8umZXUdaUqi0SDsxOIt+bGrnonU5LIXfknR/Xs9EntbPYWBi5G710ky/qEyT0p5kAWh+FLCAItxURKVsJxJmN5EFjJT6Q9H5Jt2X0+bdviaJFhQpH53LfLykFkZmwa87rl2K1ue5k+0BM52bx7aZ6/LetpZljEyM2BiT/SPje81dyQLQ/ChgAQUQpjY246nMCrKAkbJwf1ubSvNyeUNv/tWirT4MU41jVMJUzHGQJOHXJK3JW7vSkr7JqMSI3umZrcz2epuOJgtA86OABRRAasr0om5md5AFjKRSEp4jKW+P6f0nfij6btFyUbNBVl9BKugqvAXT7F658nbc9/VODi9nSGJkJ5V+e6YNcI0lC0ARzjUAmp6lNibbe4r8fRuN5jJ/H1sl6ZKcNeubC/e3tUXLRSorMyIhqSx3K2LHvRx+WdJgbu4B3M8q0ltQkdG5P0mzvdezbO91AWwbFLCAYhzpUab3FKnYwB0jP2l0y9Pr4dd5FJ5dxDyUS1ZiNEKS5lynsIj9XruX7pH83/m5BwjuZzRipKXyoUzvASS+PAEKMa0FUASZfhOc9SOMKAYzPzJHzRlt9WSfIubBA48ZjZDkc2dYIcfC2P76TMn2yk8m/AMMR4z4NTgKxmc7zLWOLADNjwIWUIhphD+U6U2N0u1JAkbSiTf6WJNm56pRqT5exFzE1sKKS0jSUCF77W4y/0SumiQd1DEQH8aQxIiq2w6ZTmot23tdANvoWCcEQAHuKdJsv5Uyt4lkASMpHBPPcmnHnDXrmI5q7flFy0XZClq4wBMVchx0DNRfZ9J++bsR8PcxJDGyk0qflOXnpxasJQtAEc41AJqeBZ7pRd3lk8kCRm6AucntvXk89CR9tGjpeGCd7mNQQvJCjgN3/2Q+bwTs2I4B34NxiZEbYjYl24NPFLCAAqCABRRAGEb/yviu5iCygJHSMZAcLSmf+025valz2WBbkfKxaLrVxJtHmczK7i1anzur8dEmHZLXWwGvJ6cwMjFylzsdnO1JJ72TLADNjwIWUADzJuluZbuRe9uc5c4+WBiZm2bXqTluXikNwgLuheX/YWQW/LiUCjcG3PXJPLfPTHPm3OljGJ0YbjPdS/JsC1ihotvJBND8KGABRWDmkm7L8lyT1OsvJxEYbu3LBysmvSrXh5/8hJOXrZtUrMzYvxidxeYFGwOd1fhQSS/JeTN3itfEJzI6MdzG9ieHScryLYTxA1PEdQcoAApYQFGmk9Kt2U5m9BqygGEf12l4WgNcy6J6EH2kWJnxWxidBT82zVcWasS7Tm+QzJwmd2OEYniPdx2T7T2m3b7IrE4mgOZHAQsozN219WXcgNefWvUWEoHh0rnMx8t9VoMcgJ2z+ny34kxmbCUjtOCXHBVnDMyu1g6UdHSDNHef9mrCimgM48HuJtlx2V5zfBmJAIqBAhZQmMlEekPGTdhprdePIRMYtjFdik+WtF2DNLclDJIPFmc+4wOM0GIz8+VF6Wvq9mmtf+too3gfIxTDpXN58j/K+m3TruvJBFAMFLCA4hztmV/cXf4OEoHh0OUeyIP3NFKb3fXOOX2+SxHyY6luYpQWmtc8/GcROnpSdWi6pNc31PEpvWr2wOAUhimGRepzsh/U9ncSARRlSgugENbUon9KqmXcjFd09tX2Jxt4plZV66/O/BvfLTc2tqQQKx9Wj42WSGI/koJy2S0XVOzBQtxIu32yAe+nA/fSuxmpeKZm3+wTXfamrNthnrACCygIClhAQSyabjWX/p6DpnyIbOCZT5D9XQ3a9FPnLPftm/58s4etk9THSC3ozaX5jYWYvA8MTpHsLQ16Eu2Yc6ePYbTimUjD5IOSwoybcU93pYV9F4Gi3GMQAqBIkwpdkfk9s9kJ7f21A8gGttbJy9ZNMulVDdr87eN68t4i5MndrmG0FpTr6iJ0s14PPy6p1Jgp0o61tfFbGazYWhseQ838yyST/1ZmTkaAgsxnCQFQHKn0mzycd8zsq2QDWz2Og/CdDX79+kDnMh/f/HcY6dWM1mLyQFc1ex87+wf3NmuUt6BuYuLv9h5GK7ZWPS2dKamc+T2B5eLeFsC2ur0kBEBxrK2FV0tak/3sRi/t6E94IyG22KlVb3Gpo8G7sbMHyWnNnqs0Sf/EiC2kdeM8vK7px7fCT0uKGrwbz2+v1l7IkMWW6qzGh5p0bB7aYhZRwAIKhAIWUCCLpltN0u/z0Rr/ctdiD8kKtsQa1WdKelaj98OkDzX7XlgLpo3ql2wFo7ZYzPWHsyo21Mx9nD0wOMXkb2+KiUCqUxi12LLbN7fU9Y31l7LM3dwzxW4jKUBxUMACCje5sEU5acq0WyYkHyUj2MIb56aYbLm0Y5IkH2j6dEm/ZtAWS2r+q6bvowefVvYbVw/PMWo2s6PquzJysbnaB+J3m3RIPsavfkhGgGKhgAUUrgBQ+omkdXloipnOaO+rHUxSsFk3zes3/z+0aQ5F0/tnL/Gdmvomw/RLRm7BbizTtKkLWO3LBytyO76JujTKlXQycrFZ479vaKq5fSUv7UmT+vfJClCw+wxCABRL91Rb7dIvctKc0MzOn3mbjyYzeDpmQbNtOLx9GjX3Kqw0LP1a0oOM3qIcpLqpe+qovqbuYz04XU2y+uqRtLmfMtO9xADGU+la7KEsOF/SmJycb65d/6g6gCKhgAUU8sC3PH1jNW3cuuRMsoKn0r7Sd5D725qwa++b0+e7NGveeifZoMsvYwQXhOsHTX0e6huaarK3Nl/PbM+xA/VXM4DxVFbtlpyel0cHJclTsfoKKOQ8FkDhrI5Ll7n0rxw16dT2gfiVZAabnF7F8SxJY5uwa+MTSz7c1DcaFrBHSUHU6/VFzdw/M/uMpKZcqWTu72IEY1M6++IjJH0iR00aLCtcQGaA4qGABRTQoulWC1xz83TvHKS6cNbSwVayg00MkTnN2jOX3nvyCn92s/Zvz9tLv8hZwRwj40/N/DhPR3VoH8ne0sT5e+Xsm30iwxhP1LnMJ7jpIuWqeGvfn9tm/yE7QPFQwAIKKqyH50mq5WgSv2OpVPpp+0rfgezgcRPHgfgwSdObuItj6/XkI83aua4jLZHrfEZyczP5/KbuYGqnN/l9c+ClpIORjMeaeZuP9iC5RNJuuTrfpOm5ZAcoJgpYQEHN3cf+JfmPc9asNouTH3Yt9pAM4WGe2juav5N6z6w+361puxfU50lKGc1N64F4XdS0jw+eVB2aLrM3Nf1pyDSbzdzx6IBwGzcY90jK29uir+meWr6WBAHFRAELKDLT/0nynLXqqFW7JV8lOZCkOct9e5PPLEBXR5Us+Wizdu78yqjlkn7GiG5a5y3c39Y27aXSgzMKcs+8O5u542Ed1eR/5fl7bNbcvkJ2gOKigAUUWE+lfL1cP81h005r76+dSoYQp/Hxas7N2zdmTjOvwgokCtNNepgqCM9u1s519tX2N+nYoiTT3N/BkEZHX3KSpE/lsGl/724tXUKGgOKigAUU/SQQ+BnK3yosmeybndXabDJUcG5FmkyNClX/ZLN2bn5rdKVLf2VQN91BemHPFLuteS+S1iXJCpTQV59c9d0Z18XVXk1mynx+Hse9uf2vzJwsAQWeuxICoNjmV8o3mOnSHDbN3O289v7keLJUTCcN1A6SdGChSgHmJ7cvXbdX0950uHUxsptK3dL0i83audl9tUPc9fqC5bRUV9LJ0C6m9mryWnO/QLl64+AjWH0FgAIWAClN0s9IqufxRtrk53f2JW8kSwW8QKVBER9lKQdB6X+btXPdbeEvJf2R0d0c3K23e+qovqbtn9kXVKzVVw8nls3cC6izGh9t7oskRTk933yK1VcAKGABUO+0lpvM7bycNi9084s6+pNjyFRxnHijj5X8bYUsCpid0N5fO6B5+6fPMMKbwmCpXvpsM0/mXXpZMVNre47vrx/NEC+OjoH4MHf9WFJLTpt4RW9b+AsyBYACFgBJUpKWPiPpvzltXlnyRazEKo7SmPgtkrYr7rXZPtesneutRL+XdDGjvOH93/x9bFVT9szdXPp8sWcIPochXgzt/fFRSnW5pHE5bWJcUnoamQKw4SYZAKQF0+xeuZ+e4yaOcvNFbOxeDFaszduf3H/pNbP74xc3a/9KafJhSYOM9IZ1x+g4/FLTTugH6m+Sa0aRE+yuY9pX+nMY6s2tvZrMNOlnym/xSpLOndfaspRsAZAoYAF4jIl3Rt+RdGOe573u9t32avwxstW8Tu4fmibphUWPQyqd2ax9mzd19EpzfYnR3qDcPnTudFvTjF3rWuyhuX+WJCsM4uREwtC8Ovtr7zL370sq5/dco38PtYRnkC0AD6OABeDRG/cjLXF5u6Q4x800c53Z0R9/s8udc1gTShWcRBQkSYe29yVvaNbOrU7CL0haQpobjOmXPW3hD5q1e7fuFndKaiPRkkuseG5S7dX4Yy77tvL5tsFHx6DZey6caPeRMQAPY/IH4HF6W8t/l+n/GqCpp62qxt1zrvWIrDWPme4ll/jW/+Fagfnnm/VtYIumW02B5iifb0DFxq2Whe9s2vPPbT7aZZ8mzY9o6+ivvYAwNI8u96CjP/6meQOs8HX/YW9ryH6JAB6HAhaAJxmn8Aw1xMoIOynZPll88gp/NllrDhvefDWBSDxin7EDcdOuSOuZEl0t05dJc2Mwt/f2TLHbmvbaty45VdLuZPoxNQQF7UShOXQu8/G3DiQ/lv5/e3ceJ0dV7n/8+1RX9UxgEkBEEQ0hZHomC4tKFAS8iuKCihtEBSHMTGJQFPH6U8F9vPeiuHAviqJEMjOECy4BFVHUC4qKrAaUJct0TwhhRwUh60x3dT2/PxIwQPbMTFV3f96vV16+HJLpU89zTlWdp0+dUi1siP5YLorYuB3Ac1DAAvAc5xdsyM1nS4ozf3PtOqIaV26euXToIDJXB5OlIOHxwecUDdTdsdyb6/X4JjwQfkHSLWQ642NTuqKnPZxfr8c3Z5nvJulTGYr3w5k4/8jfN+N+H8MIqG2zBgZbPYhvdtc7a+OEYx++aH97lMwBeDYKWAA2qa+Qv1lSd41M8ffLBcENXf3xu8hc7epY7rvL7R0ZaEpZ7j/OUP8eb5X4I/Wa9+6jLPZc9WRJTzIKMnuOvUdROLuej7BSjT8pac+stCcn+4CysRJ6913XVbm21rCuYuXoJMndImlqjZxveup5nz0AO4cCFoDNmlAIvyLp2hppboubX9FVrJzD5u41OkWOKydISn2lkUtXRdXoY5LWZiY20mdmLfLn1Wvu+yY1l9zsZEkJIyFzBmXJjL6J9kS9HuDJA/4CZeixKjPdMK8t/KXM52Xj/OMdDIPa1FUsz3Hpakm1cv0oWZL7GJkDsDlM8gBsVrdZEsXhTEl/q5Emm0tn3luKf/z+ko8jgzXGbWYWmpGT9c6dag+bdH5mQiPtkeTjT9Rz+vsK4VWSvsxAyNqwtDm9hfzt9XyMOa9+QdLYDF3IPiNJURJdIqmcgSa9fuYy35fRUDtm3O9jOotxj8sulFQrL7sZNPcZPZNtFRkEsDkUsABs0dyp9rAHOkU1tDLCpOPyXr29a2l5OhmsDR39Q5MlHZb6ZF16ePyDud9IklXCrylLj7W5zuha6nW9wX1vIfyCZL2MiMz4r75CeEk9H2BXcXB/c/9Ahpr0m3lt0R8laW67/cOkK7MwXwirMfsT1ojZxaEpLeviWyXvrKmGm3+8pz1/BxkEsMULEiEAsDV9rdGv5fpcbbXaJ3lgN3QUy2fI3chi5i9HmZgcmXRJ91EWS9K8afa4pG9kKEi7KFftrutuYObRytypWv/IC9KdTP5ofUGxvrkFX5aUz0pzksA/+8z2KROPEbrsFK6l2ddVLHdUFfxZ0gE1NQ7d5vUW8t8lgwC2OmMgBAC2RW9beI7Ma21TzbzJzussxj+t5/2Dat0M95zk6cTjAABd30lEQVSZTs7GTXTyjNU/YyrheZIy8yYkd+/qWDJ0YD33h7nTrRKvC98j6WZGR0r9TPq/FkWnyMzr+Tg7SuXD5PaeDDXpiotb87dt/IMJreE1kt+XgV4xqaMYH8noyKbTFnlLV395vq9fwbprjZ1wbhwb5D5MFgFsCwpYALaNma9ujjplWlh7bdc7kqjy167+CjffGbRLMX6tpBdnoCk39bU3Ld34BxdMs9WSZ2lfppyFwXn13icuOdjWVKvh2yQtYYSM/jjYpRIed37Bhur+sub2dUlZWVVUzSl5zoq3brNEbn3ZuA2w9zM8sqezNDR1XRTftOFFGDXFpYerCt/TCOcbAMODAhaAbbZgvK2rBuFxytCKlO249R7vpus6ipX/mLPQI7KZoQtRRiZF7r7JvZdaLLpQ8nszdMf/ulnF+K313i/mT7HHqrnwzZItY5SMmpvKFr55feG23if98fGSjszOsLZLLmpr2mTBNqiGPcrAPpQmf8/pJW9imGRDt3vQ0V/5uDy4TTX2yOAGa+X+jvnt9iDZBLDN8wZCAGC7JpWT7L4k8LdKqsUJTmjS5yvj4ts7S+WXk830dSz3ZsnfnYGmrFM+WrCp/3B+wYZM+lKW4pbIz22EQuz8SXafR7kjZbqL0TLi/mBJ+KZLC7ay3g90xiLPy/WVDDWpHCj+z839x3lTbYWk36bdSJf2WJNU38JQSd/spesmrijFvzXTuZKaa/AQquZ2Ul97/s9kE8D2oIAFYLtd3Jq/TYneoWy83ntHHCC3m7uKlXNYjZWyuHqspN3Sboa5X9430Z7Y3H9fVYgukbQ4Q5Frr4ytnNoIXaRvoj0iha836TYGzIj5uUfhmxvl9fVjw/h0yVuz0h6TXdjT1nzPFv+SWyY2c0/MeYwwTe7WVSzPqQbhnZJeW8PH8bGe9vCnJBTA9qKABWCH9E6OfueyTkm1uslv5NKZlXHxn7v6yweT0ZQmbklGJkM5693Sf15gVnXZ5zMVO7P/mLnE92yI803B/l5ZF75G0s8ZNcPej74/4cHwuL6JNtgIx3viCt/DTZ/OUJPWJFFuq/vsrY5zP5X099T7i3QsL0VJx6zFPqGrFF/jsgsltdTqcbj0n73t+W+TUQA7ggIWgB3W1xZelrGJwI442M1u7ixWPtF9nYdkdRRvxhf582Q6Jv2baVu+76TwD1vt74XcT126NUOTgD3CMP5Mo/SXSw62NasL4bslfYvRMyxiM//3nkI4p/soixvloPND8RckZafwa/rW+lWGW7ZgmpUlXZaFEFbDynEMn9E82bt19Jc/kITxnS69vrYPxnr6CuEXSSqAHUUBC8BO6StEX3XpP2v8MJolfX3Fi+OFHaXyYWR1dCRRZYakfPr3035xt9nWN0g280D6bLbmNfrIzCWDbY3SZxaYVXvbojNc9n5JaxlFO+wfJh3TU8if10gH3VUc3N+kD2WoSU8E5fAb23zTHiQXZaHRvI1w9HQsGyx0leJrzGyupHG1fCwmLZjwYO5UmTmZBbCjKGAB2Gl9bdEXJH2tDg7lYHO7oaMUf3vOMt+NzI747WwWJkGJ4vjibf3LPW3RtZaBzZQ3kg/D3Fcb75wTXubyI8xUZBxt56gz3ZCz8GU9bdG1jXbsiXJfk5SZt+i56+vzptnj2/r357U23Z2RVaD/NmuxT2A0jZwZ9/uYrlLlbKvmFtX+qitJ0uX7Phie2EirPQGMDApYAIZFb1t0pkvn1cN50dw/XK7GSzr64/eR2ZGxYfKT/ivsXX/omzLm3u0qALh/Rhna+81d7+woVV7baH2ory3/11XN4UvFI4XbKjbpq+GT4VEXFeyBRjv4rv7KkSZl6dG3R6uD4Te3+wLlPj8DbbckF5/IkBqpvhof07Kuere7PiOp9l8047oyWknxCsAwTdQIAYBhm1AWwo+72Xfq4VhMepGZ/6CzWPn1KaXBSWR3mO9no/iE9WFOOc+BX7q9/2Zee/5WST/LVH91/Xe3e8Nd0xeMt3W9bdEZMnunpIcYWZu12M1f3dMWnTV3ulUa74Tj5qZvZKxRX77kYFuzvf8qVPQjSenn0HQSw2p4dS31fbqKlR+7+dWS718nh/WLliB8b0OedwCMCApYAIbxhta8rzV3uurjccKnvCnw3F2d/ZUvnXyH70qSh2nqJmXh2/vBJIyu2JF/mFjyeUnVDIX0ZStKlVMatT/1FsIro1w4VetXYyWMsKdVTPpqi4Uv7yvkb27UIHSWqu+TdGh2ToC+osWiC3fkn85tt39I+nUGjmLqzKVDBzHEdt6MRZ7v6q/8Pw/iJS7NqJtbQmnB6kp43PkFGyLLAIYLBSwAw3zHYt7bFp0p6XN1dFRjZPpCOCbu7+yPT2nElS7DaXZxaIpcB2agKVf3TbQnduQfXlxoWuSySzI2+P7rtEXe0qj9au4ke7K3LTrDEj9UrhsZabpWlry0py06q5EnkB3LvVlKvpylNnkQfH5ncmJm/5uF4whzwXsZZjunqz9+V0tUXbRhheC4ejkul/WtKoQnbHh7JgAMGyZhAEZEb1t0tuRnKEN7BQ2DF8u8b8VAfEtXf+VIsrxjYgvek5Eb7Et35t+Hlvu8svUmvH3WRfGZjd6/eibnF/a2hUea2ymS39dox+/SnTK9ubctekNvoWlxw59wyvHHJdsvQy36636tuZ0696xqzl0laWXqfc2NAtYOmlUqv6yzWLnOzX8ieWtdnYPMvtNXyHUtMKuSaQDDjQIWgBHT25b/lsm7JNXXxp2u6W76Y1ex8uPZS9dNJNPbx1xZKGA9oSh39c78gg0bYf9PxsL7CfZsk2TmPe3h/Ghl1GryUyU92ABHvcTcTllTCF/eW4h+w5lGml3yl5jpM9m6fOhT3WY79ZjrgvG2TrIrMnA0k7qWlqfT07bdnMX+os5iPC9xWyjptXV4iGf3FcKPyMzJNoCRQAELwIjqacv3eaBjJa2qtymySzOqQbi4o7/ylTnLfDeyvXWzBoYOkDQ19WmX2xV9E21wpztBEn5V0qMZCnFz4Ln/oaetN3e6VXra8nNXV8L916/I0qJ6O0aTbjO3UyY8GB7U0x7OZ9XDv1RV+YakzOxd6NL/9bVF1wzLL0s8E48ResAqrG0x5yHfpbNY+WwljIta/8VeUHfDTf7B3rboc2QbwAjf9wDAyOtYMnSg5eyXko2v00N83Fzny8NzeybbKjK+mX5QrPyHSZ9P/eIX6HU9rdF1w/G7OkvlD8ntgizFOZC9bV5b+Et63DN1uwf3l6rHJOtXZb1FUq5GD2VQ7pcnbt+7eHJ0A5l9rq7+ypFu+mOG7nUTmb+it5C/fbj68opS5d70r6l+f28hmsCKm02bs9CjeFyl02VflLRPnR7mGjc7oa8QXkXGAYz4PTwhADBqE4qlvo8H8S8lvbSOD/Pvbjp3rMLzePPOc3UWK4slTUm5GQ+tLoT7DtdKlRnuuZZSfIekaRm6vC/zKHfAcKwyq1cz+/3FgeJTzHSCpANqoMku102S/2CoObr0sgn2T7K4xTF5m6SDM5S+i3vb8h3DfD79qqRPpX62MR3eU4huouf9S7d7cO9A9ThzfUXyen6s+zEFentva8SLMwCMCh4hBDBqeibbQx6FR0m6po4Pcy9znbPKq0u6+uOZM9xzZH5DwWD9K9enZKAplw3nY1YLzKpu9ulsRdsnWSX+BL1u8+a324N97dGXe9uiA2XJNHN9SdKfJSUZamZF0u/N9YlqLtyvtz06orc9/22KV1u2a6lymjJVvNJgNRd9Ybh/aTVJLs3CwbnrffS6p4NhnaX4+BWl+G5z/3GdF6/uziXxKyheARhNrMACMOpmuOfGluKzXWqEN6YtcbMv9rXmLm/0Ryy6SpWz3dPfUNnlL+try/912I+vWLnWpddnKOTrvBpP7Zsy5l7OOtuus+R7mapvdNe/SX6E1u/ZNlr3S7FMf5XrBnf7feC53/JI8vaZucT3zOXifkl7ZqhZX+tti0bketdRrNxh0kEpn1QfWd0WvqTR91/rKlaOdtNX5GqEje2vjnLhiXMn2ZOcdQCMJgpYAFK82St3uOx7kpoa4HD/YrKz9y3kfrqzb6Cq2cJAsVKUVEi5GYt726IRedSva2l5ugd2izK0utmlK/raouM52+xEgWC5725D8cs98APlwYFm3i5potbvZ7Oj91Gx5A/IbbnMlkrJHUlidydD4V8vOdjWEPWdOM+U4u/LfXaGmvTYUFNYGKlVc13Fyidd+loGZhSv7S1Ef2i4DuduHcXqMSb/rEyHN8IRm+kr+7aGn2/UexkAaV9uACDNyWGpfJjcfmLSixrkkBfL7CsTHsj9sPsoixslz7NK5Zclbren3Q53fbavPfryiE2ei+U+yU7J1GxDeuOwvfkMTzu95E0rNfSSwIPnuwd7KtCegSdjJAWJ2W7mcpM/sf5uK1iTmD8WxP6POIr+1vxPPTx3ulWI4vDKZhHZP9rXlj9/pH7/zH5/cc7i+9I/Zvtub1t4WqP0tW73YMVA9d1y/4yklzXIYa9zt66+9vCHnG0ApHa1IQQA0p90+D4exD+SdGQDnX6XyZNzVsfR/AXTrFzvR9tZrPyXpM+mPZfMJfGkiyaPWT5SHzBnsb9o/WvS1ZKh8C9dXQkPboR+hga2fu+hGyUdlqFW9UcrwwNHuliZiceXXY9MaAtfXO+rcrqv8/C+faonuvmnJU1upHuWwJIZ8wr5v3CyAZAmNnEHkLqeyfbQhAfDo1z6uqQG2SfKJ8ns+y1RZaCzWP7ojPt9TJ0f8LvSD7luGsnilSTNnWoPy/XljMV+cksUf4wzDepZV6lyirJVvJKbfXJUVtqZ/yD1gzXtvbw/flW99q/TS97UVSx/8N4XV4tufrEaqniln0a53CEUrwBkASuwAGRsEhK/Xe59Lu3RYIf+qLu+lSThhfOn2GN1ldOlg+0e5JamfsEz//eeQv68kf6cjuXebJXqIsn3z1AaVlc9nDy/3R7kLIN68/6Sj8t7XJT0wgzdYP+2py06ejQ+a8PG9Q9LitI9x+q/ewrR/6unvnXiCt+jaSj+gKQztH7fu0ZScddZfW3h/zT6S2gAZAcrsABkSk8h/HmQxIfItLDBDv2FZjo7l4vv6yjG3+1aOtheN0eWy70rA61wt+iK0figvok26NInM5aFlpxVvs4ZBvUon8TdylDxSlJV7qNWyJk/xR5z6bq0Dzpxe1e99KlZA4OtHaX4201D8X2SvqrGK149kCQ6qq89+m+KVwCyhAIWgMy5aPKY5dGT4eHm+pKkRnvLzS4m/6AHuSWdxco1HaX4WLnX9GpZd707A824ubfV7h+tD+trC38iKWMbp9sJXQOVozjDoJ7MLg5Nkekj2Rpq1tvTnr9jVD/SfUHqhy2fOKtUrukNzbv6K0d2FSs/TpLcUnP/sLK1n+Fo+Wm1Gr704snRDZxhAGQNBSwAmTR3ulV62qPuxPVGSY342JNJOtrcf95Zim/v6o9nzljk+ZqbXJb8JZKmpx5M1xWj/5n+SUnVLOXDE31rzkKPBNSJRMH5SvnRuWdZHVVyXxjtD40U/UxS6m+2TdzeXWt9aMYiz3eU4pM7i5Xb3XS9SzMk5RpwOK1x9zm9bdG7620rAwD1gwIWgEy7uD36bbUaHizpJw0chpe6+cW7RvG9ncXK5+Ys9hfVzOQyqbxD6e+36FYNLx/tD12/AsMuylhKDqiMi/+dMwvqQUcxPjH1t+891zlzp9rDo/2hc9vtH8rAY4SSaqaA1bHc9+4sVj63axTfa+7zJb2sgYfT7ZZUD+lrz3+fMwuALGMTdwA1o7O/PFtm/y1pbIOHoiLpSiX6bm97eF2W96fIwuvdXbq1ry06NJU+W/K9zOP+jL2UYK1X42l9U8bcy1kFtapjue9u5XiJTHtnp1V+7+ox0dQF421dKjHpL3/AzOamPrlIqpN7Jjf3Z7LjuFvXsvi1SvQhl96pbK3eS0NV0rmrK+HnF0yzMmcWAFnHCiwANaO3PX9REIcHSrq2wUMRSTpegX7bWYr7O0qVM+f0+/Oz1siZS3xPl16T+mRKSm1vmN6C/T0x/1zGUrNLEITf5YyCmr6BLVfPzlbxSjIFn0ireCVJeUU/VQYeI3TLZW4V1pxlvltXsTynsxTf6Yl+t+ExwQYvXtk9gfS63rboTIpXAGrm+k8IANSSeVNtRW8hfKPJT5W0ioioYK5zKhY/0FWs/LirWDk6Kw0Lc5VjJYXpTyqrqT5+ul9r9D2Xbs1Sp3HTmztL8fEMH9SirqXl6W5+aqYa5bqupy28Is0mbHiM8Pepx8KUmbcRnjJQPqSzGF9YqcYPuuxCSQcwguSSzY3X5Q6a1xb9kXAAqCU8QgigZnUsWbefheE8uV5HNJ7hr3KfF8TRZfOm2eOpTTJLlZ+6650pX+Ru62mLUt9EvrNYPlSyG5WtL44eKls45dKCrWTIoFbMcM+1lOJbJb08Q82qVpPk5fMnN92ZdkO6iuU5Gwo1aXIF4YTRfPPrxk5c4Xvky5UTArculw5h1Dzjqjhg7p097dGfiAWAWsQKLAA1q2/KmHt7W8OjJf+gpCeIyNNeKrPzkyh+qKtY+XFHf/yWGe6j+kaljuXe7K43pH+vrsuzkJDetvwtMuvJWD/ZJ6/q2QwX1JJdS5XTlK3ilSSbm4XilSS5ZeIxQpNX3jaaHzjDPdfRH7+ls7/8o6ah+GFz+w7Fq2eIJX0jaskdTPEKQC1jBRaAutCx3PcOypWvudnJRGMTkxrpYZMWVJNk3mhMtLr642Pc/Oq0jzsIqoV5rc0DWcjBrEX+vCSK+yVlab+yxM2P6Cvkb2aUoBbO81aJl0jaPUM30v8MPWzb8PheJmTh5Rky/aq3EL1lxPtE/9DkQMH7XN4hswmMkk36q7vP6WvP/5lQAKh1FLAA1NcEpz9+i1nyHcn2IxqbdZPJ+8Jc9KO5k+zJkfiAzlJ8vtw/kvZNe29blKnXoncVyx90WdY2UP/LhAfDV3YfZTFDA1nWWSr/UG7vzVKbXP7Rvrb8+ZmKU7F8qmTfS7kZg2Mq4V4XTLPVw/2LT1zhezSVK++T2ymSDmVkbNZqM//8qtbo/AVmVcIBoB7wCCGAutLXHl4dr4sOkOlcZeBtTBn1KpddWKnGD3cVKz/u6o/fdXrJm4Z3Vpe8Le2DdE/v7YObs28hmivTwow162X37hN/lGGBLOsqVd6YteKVpEX7PRhl742eFv0kA9e/5sGwOmyPkc+438d0leL3dJUqP20aih+W2wWieLUlV1Vz4bSeQv48ilcA6gkrsADUrVkDQwck1eBbMh1FNLbqCcl+avLLVhXC63bmhnfWwNABSRLclfoFLqlO7pnc3J+5ftlffmVidpOy9SXS6mounDZ/kt3HUEDWdCz3ZqtU75K8NUvtSlxHX9we/TaLMevsr/wu/Wuf9fS2hbN29F/PWehReWz1DabkBJm9Q9JYRsNWYz4QSB+b1xb+klgAqEeswAJQt+a1Nt3d2x69zs3eLvm9RGSLdpe806VrWkrxo53F+MKu/sqRct/uLzqSanBsBo6nP4vFK0ma156/1czmZaxZLblq/F2GATI5JS/Hn85a8UrmP8pq8UqSLPCfp98Kf1u3+3bNNbrdg67+ypGdxco3K+Pi+838lzI7SRSvtmatub7kUe5AilcA6vqegBAAaAQn3+G7hmPiT0v6hKQmIrLNl4l7JP+BuS/oac/fsS3/orNYuV7SkSlf3c7tLUSfyGpUZy7xPXO5uF/Snllql7u9q689/Bn9HtkZK4NtuVzuzoydt1fnLJxyUcEeyGrcuoqD+7tyy1I/p5i/aqsviXC3joHKoSY7Xq73SnoJPX+7Ttw/Vi76RG+r3U8wANT9zIQQAGgkp5QGJwWe+5qkdxON7b5kLDP55Yn7FX1t0UKZ+XMnm75nLhc/KimX8tXttb2F6A9ZjmZXsTzHZRdmbCZ0vyXRtJ7Jtor+jizoLFaukXR0xm6eP9XTFn29BmJ3l6QDUo2V6cs9heizz/55t3twXzE+PDEdZ/LjJBtPb99uf3HTx/sK0e8JBYBGwSOEABrKxYXmZb1t0XHu+jeXbiUi28MnuXSmmd3aWarc29lf+e+u/sqRGz8iEobVNyvt4pX0+IQHwhuyHs19C9FF2euDNt6D+D/p68iCzlJ8kjJWvJK0JFwZnlcL8TNT6o8RuvT0I+Uz3HOdpcprOkvx+StK8f1uut6kj1G82m4PmrxzQiGcTvEKQKNhBRaAxuVunaXq++TJV2Q2gYDs8ATl4cDtp+5+hQX6oEsz0m2PX9rXlj+pFmLXtbQ83QO7Rdn6Qikx05E9hegmejfS0lnyveTxYknPz1TDEr2+d3L0u5qIYbF8qGQ3p3+NsPdLerXJ3yXphfTuHbbGTV+vrg2/ccnBtoZwAGhEFLAANLyO5d6sOD7DXGdJ2p2I1DZ3O6GvPfxhzUzUi/H3JD81Y81a0mLhy84v2BA9CumMi/Klkp2YrZtm/2FPW/6EWolht3uwohg/KNPe9KiaVpXsYktyn++ZbA8RDgCNjEcIATS8vok22FeIvhpUwknm+pIk9v+pXRXlc7+uqQtxJfcZSX/PWLOmrPb483QnpKGjP35L1opXklbFnt0XQ2xKt1ligV1Fj6pp15r7Ib1t4SyKVwBAAQsAnjZvmj3e0x51WxJOluy7kipEpcaYru+baE/UWr+T+2cy2LRPdRTLL6VTYTS9v+TjzJLvZbBp/zG/3R6stXi6p78PFnbkUqbfBu6H9rZFb9jWNwADQCOggAUAz9Iz2R7qbQtPM1Uny/1/JSVEpVZu+r0mVxtMaIt65LoxY82KTNbTfZ2H9CyMlqak+pXMbeptuitaGX6zFuO5ekzut5LW0rNqxp9NekNPW3T0vPY8L5oBgGehgAUAm9HT1nxPb3v+5MSSg2T+I1HIyjyz5Be12O5usyTIJacqe6v+XrZin/iT9CyMhq7+ypFu/sGMNSsx6dS5060mV+QuGG/r5LqG3pV5t5vZO3oL4aE9bdG1hAMANo0CFgBsxcWFpkW9hfz7ZMmB5n6JpCpRyaTF81qbB2q18fNam+6W6RuZa5jpi52loal0L4yk00ve5KYLs3dvahfW+hs5PXAeI8wq011u9p7eQji9pxD+XGZOUABg8yhgAcA26i00Le5pz8/MiUJWNucBqvnNilsUfklSf8aa1SQP5s1wz9HLMFJWK/6ipGwVSl2PDDXlPlvrsa1a9AuuV5m7YK0vXLWGB/cVwgUUrgBg21DAAoDtdFFb05Ke9vxM9+QAmc8Xm71nZbL5i1o/hPMLNmTSRyRlbTJzWEup8mE6GUZCV3/5YLky+IY/+9hlE+yftR7fS1rtb3LdQk/LhFtk9k4KVwCwg1dmQgAAO2fWYp+QhPHHJc2WtAsRSc1/men6IYU3X1qwlTU+oZ/vZidnrFmrvRof2DdlzL10NQyXGe65loH4ZrmmZ+oG2fXrnvbomFqO7ckD/oJctXq4BX6k3I+TbD96XDpc+r8g0Dk9rdF1RAMAduL6TAgAYHjM6ffnx4o/4qaPSNqTiKSmKqnf3G+T6U9V8xsuLjQtqqUDmLnE98zl4iWS9srYXcPvelvDo1k1gOHSVax80qWvZaxZ60zVA3ramu+prVgO7i8Pj3TTEZIfKWkK9/qpSiRdLfl/9bblWQEHAMNyKwoAGFanLfKWtWE8x8zPkGxfIpIJD8r8T3LdmAS6YeL90R3dR1mc5QZ39senyLwva+1y81l9hXwPXQo7a9bAYGuS5O5QxlauuumsvkL01SzHrmO5NwfleHoS6AhzHSHpcPHFSVYMmtklcRx/Y/6U5iLhAIDhQwELAEZI93Uertinepybf9ykVxKRTFkj0y3uukFuN1dzuYWXtNrfMtVCd+sciK+V63UZi90TloTTeibbQ3Qj7FT/Lsa/lemojN0Z3xU9GR4yd7plam/DWYt9QhJVXyH3Q+U6XKZDJDXRkTLlb266oGrhdzN3PQGAOkEBCwBGwSkD5UNyVZ3hZidIColIBufT0sMm3Wau25LAbjPlbu4t2N/TbFPHssGCVXN3SmrOWLiu6S2Eb+JRQuxw3y6WTzfZtzLWrESBXt3bGt2YamyW++5BOT5gw+qqIyW9QtIL6TWZVXL5d/It0ffn7mNrCQcAjBwKWAAwirqKg/u7ch+V1ClpHBHJ/GVywJQslNtCD7TQquHtPZNt1Wi2oLNY+Zyk/8xaZNx9Tl97/vv0EWyvDY8O/lXSrpnq07Lv9bWFHxrNz5yzzHerVOJDPKdXyPUKk7+CR89rgku61tz+p6ct92uK+QAwSnfmhAAARl/XUh+b5Conm9uHJU0lIjUj0foN4he6aaGb3VnOh3dcNsH+OVIfOGOR51ui+HZJ0zIWi1VejQ/irYTYrv7snhs7EP/B1+/blB2uRzwfTumbaE+M1EfMWuTPS3LxSy3nB3miQ2T2Cklt3I/XlJUmu1hJ/J2eyc39hAMARhcXTABI2UaPF75PUkREas+Gxw8XSVpsbrdVc8micR7dfX7Bhobj93cWy4dKdqOkIFM3EaYb9m0N/63bLKEXYNv6cuVTkjK3Qbq7ndDXHv5wOH7XDPfc2NLQhMTCaUHih7jpEMmmSj6Re+8anTCZionUozC8cCSLnACArZyPCQEAZMPskr+k6vGpcs2WaW8iUvOGJC1y2Z1yvysw3ekW3rGj+2p1FuPvSX5q9iZ2/u89hfx5pBtb7cOloany4DZlbE83c/26pz06Zkf+7YkrfI98OT5Y7gebgoNMfrCvXy3ZTMZrXkXSVUr0nd728DoeEwSADFyzCQEAZMuchR6Vx1WPNfkcSW9QxlbdYCe5HpHpLklLTL5EgfUnuXBJ30R7ZEv/rGO5765KvNikF2XsiNa5Jy/va29aSnKxOd3XebjiJfFNck3PWNPWmqoH9rQ137OlvzRzie8ZBvGURD4lCGyyEk1182mSjSe79XaKtuVyvyhfDXvnTrWHiQgAZAcFLADIsJn9/uIgiE+yxD8kswlEpK49adKApHvkWpwEtshVXby2Nb90gVlVkrpK8Xvc/UcZbPvt0crwsLnTrUIasSkdpcoXzdWduRth06d7CtE5T/3/rqW+j4J4quT7u2yapKmS7S/5/mSxrlUlXedmc9e05n7y1DkXAJCx6zYhAIDsW796ofpWd/+ASW+SFBKVhjEkU9FcS13ql9QlaZ8MtvNzvW3R2aQLzzarVH5Z4naLsrfH3zq5vi7zgmTtkiZL2oWMNdRUaJm797DaCgBq5KxNCACgxiaDi/x5HlWOl9nMzL3JC40stsRf1TM5v5BQ4Cmnl7xplce3mnQQ0UBGrDPpF5Lm9hTC37K3FQDUDgpYAFDDZheHpiQevDcxm2nr33AFpGmxR+EhfRNtkFBAkjr6K18x01lEAhmY9Nwm+dzmSnTZBdNsNREBgJo8lwMAal23e3BfKX6dm58st3dLaiEqSIO7zulrjz5NJNBRKh9mbn+SlCMaSGmqs8zc/1dWnb+1jfoBADVwVicEAFBnk8bl3qy4eqy5z5T0ZrFfFkZX4q7X9rVH1xOKxj4PWSW+TdJUooFR9rhkl5v7JT1t4Q08IggA9YMCFgDUsa6lvo8sPiExzWQPGoyikmRflPnjnvjjgSWPhbmmx+ZOsicJTX2ZucT3lIb2zEW557vbnoEne8ptz8R0lElvJUIYJWsl/5l7cOl+D+X+r/soiwkJANQfClgA0CgTzaVDB+WC4P2SHSf5JCKCFFQlPS7pMbkel+lxmT/ubo+b9JibP64keDwI/PEk8X9KvipRflU10KpLC7aS8I2M00veNJRobGxD46pBsEdONk5uY92TPSXbU9Jekj1f7nvKtKekPSU9f8P/BkQQKVkn6ddmdkVzOXcl+1oBQP2jgAUADaijWH6pZO826TjxiA9qx5OSVm34s1rSky49KdkqM62WfJVLTwbuT7o05BasVqJKYL46McVuvipXVSxLVsW5pjgOtap5neKeybaqFg6+a6mPHRyjcMwajfNwKJcoGOeBcjnZOCXKSbZbYgosSXZToMjX/3z3QDbOlYyTbKykcWYa57I9JB8raZykJroWasQak66W2eXN5dzVFK0AoLFQwAKABje7ODSlquA4rS9mvZSIoEFVTVrpUlXaeLWXD5m09tl/2df/bOg5N1am1XJVNvydnNYXiJ6tyaRdNvE7d5Usv9FPxpoUujRW7GWHxrVS8l+4givWjMn9asF4W0dIAKAxUcACADxt1mKfUA0r7wzMZrjrcK4TAIAUPGHuVyVBcFV1be7qSw62NYQEAMDEBACwSZ0DPt6SyjEuO1a8zRAAMLIeN/dfJkGwYE0595sF06xMSAAAG6OABQDYqo7lvndQqbzTZR+RNI2IAACGZTJiukGu7n0fDH/P2wMBAFu8ZhACAMC26iyWL5PsBCIBABgOLl3R1xYdTyQAAFvDq48BANtz2XglMQAADBeTc10BAGzbTIQQAAC2xaxF/jzJ9ycSAIDhY+O7lvo+xAEAsDUUsAAA2yTJx68Qj54DAIaZ56qvIAoAgK2hgAUA2Cbm4jEPAMDwc6eABQDYKgpYAIBtm19ITDAAACOBL0gAAFtFAQsAsE1cmk4UAAAj4JXd7sxLAABbxIUCALBVnQM+3qQXEQkAwAjY7b7+oQJhAABsCQUsAMBWeZL6BrsrJf+g3P9X8nvJCADslCck/ULSmQp0hKTPp36dyYU8pg4A2KKQEAAAtiaQv9JT/HyT/tzTlr9Q0oWSNGexv6gcVacH7kfIdKSv32A+IlMAsAmuR2Ra6KY/ufm1EydFf+k2S576z52lSiRPt4kbXhTyvyQLALA5FLAAANsi7f2vFm78f+ZOtYclXbXhj95f8nGRxYdboiMkvXpDe3clbQAaUCJpsbvdEljyp6ol11/c1rxsS/8gXhsuDMfEcZpzA5ezkTsAYIuMEAAAtjyrcOssxY9L2j29iY0d19cW/mRb//4M99wuA+XJuSR3iJsfYtIRLr1MPDoPoP6slHSruW5IArstV87dMG+aPb69v6SzWPmLpJemeBxDLRbudn7BhkgpAGBTWIEFANiijmK5XRbsnmYbLMj9eXv+/gKzqqRFG/7Ml9av0mry+JUuHap//XkBGQZQQ2JJd5rbzUmgm5M4vmX+lObiMJ1pb5H8pSkeW9OaauVAPWvFLQAAT6GABQDYsiD3CnmKm6O4Hulttft39tdcWrCVkq7d8EeS1LFk3X4WRtMlf7m7DjHp5ZKeT9IBZEAsaZFkt7klt5nrNo+iO/om2uBIfJgpudllp6Z5wElOrxQFLADAZlDAAgBsZVKjV6bcgFtH6lf3TRlzr6R7JV3+1M+6lvo+Sa56SJD4IW46RK7pMu1NTwAwgmJJRXO/LTHdFrjdFo4Nb5+7j60drQYE8luqKe8usmEj9wvoDgCATaGABQDYMve0X23+59H8sJ7J9pCkh7Rhg3hJ6hzw8fLqy839IJcOknSwpEliTy0A2+8JSXeY7E735E5z/TVpiu4eqZVV2+olhXz/ilL8hFLc71AyNnIHAGz+KkEIAACbM2ehR5Vx8UpJzSleqd7cW4h+k7XYnHyH75pvrkyrSgdbEBwk9wNNOsilPeg5ACQlZhqQ6w6X7nCzO3OV3J3zptqKrDa4o1j5jUlvTDNmYyrhbhdMs9V0HwDAs7ECCwCwWeVdy5NNQXOKTfBqHGZyP5RLDrY1km7d8OdpM5f5vlG1emAin+ayKSafJmmypLH0KKAuJZLdK/liSYtNviRxLcqPjRaN5iOAw+QWpVvACtZFlWkb2gEAwDNQwAIAbH4mEeYO8jQ3cJfdM3+KPVZLMZs/ye6TdJ+kX27885nLfN8wiSe7fJopmCL5VHdNkfQ8ehpQE2Iz3eOuu820NHFblLNkycrmaOmC8bauHg4wJ7slkafbCNeBooAFANgEClgAgM3PI9wPSrcByW31EsuNClv/t/HPZ9/jL4yr8RQlXjCzNrkKMrVp/R5beXohMOoelFQys5K7F2VWynm1+GQlv2zBNCvX84FXo9xtVonTbYTZAXRBAMCmUMACAGzJwSnPZP5a7wG+aH97VNKjkn6/8c9nuOfGloYmuOUK7t5mFrS5e5tkBZOP5xoO7ATXIzItl3lJbkUzK5mSUlM5KjXy/kt9E+2RjmLlYZNelNpZX6KABQDYJG5+AQBbmuQdnObrPqwBClibs8CsKumeDX+esYn9nIUexS3aqxpWXmQe7C/5/ua2v+T7S7a/5BPFi1rQ2AYle0jyeyS7x+2p/03uycVRsWeyrSJEm3W7pLemd9mhgAUA2DQKWACATTp5wF+gJN471UZ47g4y8Vxzp1tF0kMb/jznMcvTFnnL2qA8MQhzExNPJprbBDO9xKXxkvaVtLekgEiiZq1fQXW/tP6Pu+5TYPcrSe7NK1o+t93+QZB2jEl/UYoFLEkvPHnAX3BJq/2NbAAANkYBCwCwSVESH5TyVr5/65lsD5GJ7bfhEai7Nvx5jjkLPSrvOvhiBeF4C2yCEh8vs/Fa/2jiyyS9mCgida5HZHal5Pe72X2S3++q3j9OTQ+c32ZDBGikwm5/sZQ3cg+q8YGSfks2AAAbo4AFANikxHWQpfgQmkt/JQsjY8MKrns3/Ll+4//WOeDjlcR/kbQnkUKKqoHpvfPawj8SitGOfOV25dKdIpj5AaKABQB4Fh4fAABsZgJh01K+QP2FLIy+3la7391mSikvwUCDn4D0H/PaIopXKeib3LxC0uPpXn8C9sECAGxqfgAAwKb4lDQ/PZHdSQ5SmsC2h1fLdV7Gmxlv+IPtV854+36/ujU8mzSlxMxlKa+AdT+QRAAAno1HCAEAm5NqAcus+ldSkJ7VcXhWSxQfKekVGW1iokBH9bZGN3Ys992TQeXC3NBuShRVw6AlkDVZol1ktksiNUnJ2MAVumx3uXJm2k2myN1aZEmzuY15eu4sjZOU2+izIpNanjG/lloki/71gyRnZuM2OReXYmlTb73zdSYNPuenpiflSp7141UmxYlsjUnlp/+tazAJtM7kZXOtSSxYF7jWSv6kTGuU+FpZssqtadWYstbFzcrFSXyru9oymtd/VD08acNbOJEW1+2SXpdiC6bJ3WTGSlAAwNMoYAEAnqNrqe/jindPsQnrJjyQL5KJ9CyYZuWu4uD7XLnbJe2WwSbmlegns0s+/aKJ9sCGnz1G5rbA3TpL8eVSZotXLrPZ89vsQZKVeiLS3si9ZXb/4H4XScvJBgDgKTxCCAB4jqrFU1Juwt3dRxmPh6Wsp635Hjf7QIab+MKqx5efXvImsrV1nQPx5yW9O6vtc+mbvYXwSjKVgVxY9Y6025DkIh4jBAA8AwUsAMBzmPnUdCeytogsZENfIVzgsu9luImHrkkq3ydTW9ZVqrxRri9k9pwj3TbWwrPIVDY0PZkvSqqk2YYkcTZyBwA8AwUsAMAmJpNBuvtfyZeQhQyJcv+uDL8V0s1O7uwvf4REbVrHssGCu36kZ+7rlSWrlVTff37BhshWNsydbhVJA6leB4wCFgDgmShgAQA2VRJItYDlZhSwMqRvog26JydKWp3ZRpr9d2ep8hqy9UynLfIWq+Z+Imn37KbOPtgzubmfbGXOopQ7BgUsAMAzUMACAGxKqps8u+LFpCBb+tqblrrZaRluYiTXj2cu833J1lMDyW1dWJknKbOFAJf19RTCS0lWJpOzOOXPL3S7M1cBADyNiwIA4BlOvsN3lfSiFJswuLa16V4ykT19hfASyeZmuIkvyFXjK+c85LuQLamzFH9SZu/JcBPvzrfkPkymssrS/iKh+Z579BLyAAB4CgUsAMAzRM2VVkmWYhOWLjCrkolsarHcR026LcNNfGllNZu6n9Jfeb2kszPcxNU5Je+Zu4+tZVRldJKQq6b+Mg2L4wKZAAA8fW0iBACAjXkQpDxhcB4fzLDzCzZkcXicpMey20o7sau/8v8aNUczl/m+gekHksLspsg+dFFbE3vdZdjKoXxRUpxmG3LmFLAAAE+jgAUAeKYk7QkDG7hn3byptkKyDkme1Ta66atd/fExjZabjuXenEviKyTtldU2mtsFvYXwfxlJ2bZgmpWV8psIZUYBCwDwNApYAIBMTRiMAlZN6G0LfyHp6xluYk7ml84aGGxtqOFbqX5HrukZbuIdq3bJfYIRVBs85TcRuosCFgDgaRSwAADPnjKkOuF3q1LAqhETHgw/69IfMzz53iNJcj99f8nHNUI+OorlMyTvymr7TPpnLonftWC8rWP01AaT0j4fU8ACADyNAhYA4Nmz/jQnDNXV5fwASagN3UdZnI/D98n1SIabeUBe8Q9nuOfqORdd/fExJjs3y2cWN+u8aPKY5Yyc2mHyZSk3Yf96H7sAgG1HAQsA8LQZ9/sYmV6Y4hT3gQ37rqBGzJ1qD3ugE5TyZs9b7lc6Zmyp+j/1moPZxaEpbn6ZpCxP9M/tLYRXMmJqS+KWdgEr37JM+5AJAIBEAQsAsJFd15YnSLLUGmDG6owa1FeIfi/XF7LcRpef3tVf/nC9xb6z5HvFyv1S0u5ZbaOZbohWhp9hpNTgRMHDZamP3Wq8H5kAAEgUsAAAG080g2BCyi24hyzUpt628BxJP89yG93svI6BypvrJeanl7xJHv/E5BOzG3Q9Eifhe+dOtwqjpPb0tOthSanuWRbIJpIJAMD6awIAABuYpz0RdgpYNdt5zC0JT5K0OMOtDC3RjzuWDB1YDyFfo+r5ko7McBNjBXrf/HZ7kAFSu+NaUrorY80nkAgAgEQBCwCwkcSNFVjYYT2TbZUl1XdLWpnhZo61nP189j3+wlqOdUepcqa7fyDLbXT5J3oL0R8YGTVvWbr9yPYjBQAAiQIWAGAjlvo33QkFrBrXM7m5X2YzJXmGe/p+1Wr8izkP+S61GOOO/vgt5jo72630H/S15b/JiKh9nnIBS+b7kQUAgEQBCwDwrIl9uh8fUcCqA72F8EqTvpbxWfn0eHXcJ3erpdh2FMsvNfMfKctvHDTdFa+LPsBIqBcpP9rtrMACAKxHAQsAsLF9U/zsVb0F+zspqA+rCuFnJV2T6Wm5NKOrGH+xVmLasdz3tvUb5bdktY0m/TNR9V2XHGxrGAV1woOU30To47vdmbMAAChgAQDWm+Gek7R3alOUtDcKxrBaYFatVsMTJL8303Nz0xc6ivGJmR+f9/sYq8Q/k2x8hpuZmOzkiwvNyxgB9aSa9srY6N579QLyAACggAUAkCSNKWpvpfhYkkn3koX6Mn+KPRaY3i1pXYabaSaf1zlQOTyzLXS3lnWVeZIOzXK+3fQf89rCX9Lz68sucf6B1PtWtfJiMgEAoIAFAJAkRUp7gmAPkoX6M6+Q/4uZZX0/pGYl+nlH/9DkLDauoxh/WbITMh7DX+zXGv4nPb7+XDDNVkt6Ms025DyggAUAoIAFAFgvCYIXpdsCf4gs1KeeQnipyc7PeDP3lOWu7ljue2epUZ2l8ofMdFaWA2emokfhyd1mCb29bqX7BYMn+5ACAAAFLADA+klokrwk1c+XP0AW6teqQu7fZfpVpseAfKLF8f/NWea7ZaE9ncX4bXL7VtZTW1Xy7r6J9gS9vH659EC6n2+swAIAUMACAGyYIJilugIr4RHCurbArBqUw5MkG8j4TP3AShz/9PSSN6XZjI7+8isk/6GkMMPRSiQ78eJC0yJ6eH2z1M/PFLAAABSwAAD/miCk+oiGW8IjhHVu3jR7PLHqOyWtyvhs/ag1SeX7crc0Pr5j2WDBzK6WtGumw2T6bG9b+At6dv3z1FfIOo8QAgAoYAEAnpqNprv3j4V5VmA1gIsLTYvM7CRJmd4vyc1O7irFXxntz519j7/QquGvJT0/25n0H/S0hl+lRzfI5UGe9vl5b7IAAKCABQBYP0FxvSDFj1/DHjqNo6cQ/lzSF7LeTpfO7CiWzxitz5vzkO9SjeOfSb5/xkPz16glmi0zpzc3zJThwZTH4gvIAQCAAhYAYMMEwfdK67PNxOqrBtNbCL8s+Q+y3k6T/XdnKT5+pD9nhnuusiq+TNJhGQ/JowrCt8/dx9bSixvp+pA8kO441PPTeqQXAJAdFLAAAE9NEfZMbXLkYv+rhutu5lFLNFvS7Zm/V3K/pKO/8uqR/JCWger3ZHpHxmNRNtfxva12Px24sVSDKO1zdHTifdqdTABAY6OABQDQjPt9jFLdMNofJguNZ+4+traaC98l6dGMN7U5MF15Smlo2kj88o5S5Ytyn531fLn7R3raoz/RcxvP4CQ9ppT3rQvXDu1FJgCgsVHAAgBoTFmpTgzcgsfJQmOaP8nuSxIdJ2koy+10aY/A7Vcz+/3Fw/l7O0rlLnN9Met5Mtn5fe3579NjG9MCs6qkJ9JsQxjk2AcLABocBSwAgMwrqRawgsT/QRYa18WToxvkdoqkjG8KbuPDIP7d7Hv8hcPx27pK8dvN7UJJWd/b5zf7Ppj7OD214a8UKX/RYKzAAoAGRwELAKDA7flpfr6bswKrwfW2hz+SdHbW2+mutmo1/sX7Sz5uZ35P10DlKHf/kaQw44d8d9nC93QfZTG9tNGl/EWDJRSwAKDR5yyEAADgie2R6rzEgsfIAnoL4Rckvyz7A0bT80n8q5Pv8B3aN66jv/wKT3SlpOaMH+k/Equ+89KCraR3wqXH0v18250sAEBjo4AFAFBgSaoTg8ScAhYkM/comiXp5uy3VYeHY+Kfnl7ypu35ZzOXDLaZ2S8kjc34EQ6a6e0XF5qX0TGxYXg+lu7nazeyAAANPmchBACAxCzdiUGVAhbW65togx6F75L7ihpo7htWe/yD7ut8mx4D7Bzw8blccI2krG9G7WY2u6cQ3USPxFNMlu4jhAkrsACg0VHAAgDIlO432x4k7IGFp/VNtEcU+FskPVkDzX3XihdXLpL7FjdiP3nAX6AkvkayfbN+QG76Uk8hvJSeiI0lSbqPECaWsAILABocBSwAgCxJdwWWhU2swMIz9BaaFnug90mqgc3D7ZSuUvWbm/uvc5b5bmES/1pSe+aPRFrQ1xr+Bz0Qz+kbqT/qzQosAGh0FLAAAGl/s13dbz+xSTSeo681+rXLP1ELbXX56V39le5n//zkO3zXSjX+laSX1cBh3JRE4UyZOb0Pz2YW/DPVSYtpd7IAAI2NAhYAQKZUV2Ct7jZLyAI2pa8t/02ZfbsW2uqmL3aWyv/+1P+fscjzuTHxTyS9qgbOAsviIHxn30QbpNdhkz3EtSbV8eVs4g4AjY4CFgBASvGNaC6tJfzYktWtuY/JdWVNNNbt3K5SedYM91xLFF9q0htroNWPVavxWy5ptb/R27DZrh14qudql+1KFgCgsVHAAgDIpTFpfbbJ1pABbMkCs2o0NjzRpVtroLnmbhe2FONrJB1fA+0dTBK9Y/6U5iI9DVvs2FVP9Vxt8l3IAgA0NgpYAACZlNrEwOWswMJWzd3H1uY9fKukUg00NyfTUTXQTjez2RdPjm6gh2HrvTr1c/UYkgAAjY0CFgBAkqW4AotHCLFt5rbbPxKrHiOJR92GY+y5PtlTCC8lEtim/hInaa+WZQUWADQ4ClgAAHmaj2YYBSxsu4sLzcsC92NF4XNnB96FPe3RucQB2yzfnPaYC2cs8jyJAIDGRQELACBL89EMpxCB7TOvPX+rmZ0gqUo0dmTI6ZerC7kPEwlsj/w6pb5f4R7NPEYIAI2MAhYAQJKa05tNswcWtl9PIfy5zD9JJLZzuEm35lvC9ywwo/iH7fKCqVq7vgulJ66INxECQAOjgAUADT+jdVOKBSy3gAIWdkhvIf8/kr5JJLaVLasG4bFz9zHGHLZbt1kiaTDNNiQ+yCOEANDAKGABQKNPSn6vXMpNGCQL2FETCuHHZf4jIrFVjyYWv+mSVmMDfOyMVFfueWg5UgAAjYsCFgA0uMdekm4BK3AlZAE7qtssiZ6MTpb0G6KxWatk/paLC83LCAV2Uqrna49FAQsAGhgFLABocE+sVZjqbChId08V1L65061iSTjDpNuIxnOUzXR8byF/O6HAcJyy0/zwXGghKQCAxkUBCwAafTayS7rfaJsoYGHn9Uy2VaGHb5bUTzT+NbzN7OSeQvR/hALD1afS/HBWYAFAY6OABQANzvMpF7CcAhaGx9x2+0cuiY9x6WGiIZn5/+sphD8mEhhGrMACAKSGAhYANLiWwXQLWC6ngIVhc9HkMctVTd4k6YkGD8XZPYX8efQIDPspO0XVRBSwAKCBUcACgAa3Lpf6tYACFoZV35Smu9z0LklDjRkB6+kthJ+nJ2AEztZVggAASAsFLABocFZJ+bXoFLAwAvoK0e9ldpLUcBPuqyY8mDtVZowrjMAFI+U9sHK8tRYAGhkFLABocM15xanOh9gDCyOktxBe7u4fUuMUSf+wekz43u6jLCb7GCGpjiVLWAEGAI2MAhYANLhwMOUVWCYjCxgpfe3575vrk3V/oKaFZQvfvmC8rSPrGEFRqp9edQpYANDAKGABQIP7+7h0C1gmayILGEk97dG5kv6rXo/PTMVcLnzbpQVbSbYxwsak2tdDVmABQCOjgAUADW6PR5X240bNZAEjrbct+rxM59bfkfn9cRC+4aL97VGyjHo/XxsrsACgoVHAAoAGt88haa/ASsaQBYyG3tbwky7rq5sDcj0SBMnr5k+y+8guRlq3e6CUHyFMIjZxB4BGRgELABp9UmKWSCmuwjJjBRZGq6/5mkJutqTLa/5QpH96krxxXmvzAInFaHjo4fRXy5o3DZIJAGhcFLAAAJKU3sbPCY8QYvQsMKtGK8MTJV1dw4exVq63901puouMYrRU/5n+ubpa0VoyAQCNiwIWAEByrUnto008QohRNXe6VaKWcIak62tyuJq9r6c9+hOZxKj2u1z6Bax1LRSwAKCRUcACAEhmaU4KWIGFUbdmjUJ56i8w2LHh6v6pE1f4HmQRoztpGEz7jbHJgpeIRwgBoKGvRQAAyFMrYLlYgYXR1bHc9857/AeZjqrRQziyaSi+fnbJX0I2MVoquWCXlJuwTmZOJgCgcVHAAgDIleZjGTaWDGC0zBoYbLVK9QZJL63xQ5lW9cqNnaWhqWQVo3KmToLnpdwEHh8EgAZHAQsAIEtxYmDyPckARsMpA+VDkiR3g+T718nIHS8Prj9laeUIsosR722BpVvAcqeABQANjgIWAEByPZnip4+bscjzJAEjqWugclSQ2O8kvaDODu15QaDfdpbi48kyRvYykaT7ZYPZP8kCADQ2ClgAAHnKE4Ndd9HzyAJGSkcxfrcnulrSuDo9xCa5/7CzWD6VbGOkmKe9AksUsACgwVHAAgAoMH881XlJXOYxQoyIzv7yR0y+QPX/tsucZN/rKlbOIesYEZbyFw1GAQsAGn7OQggAAJ7yN9uhBxSwMNyd2jpLlS/L7PxGut9x6cyOYvzd7us8pBNgmIfUHum2wJ4gCwDQ2ChgAQDkaa/AcqOAhWEzY5Hnu4qVi+X6dCMev8k/uOLF8dVzlvlu9AYM36Qh7RdupHudAgBk4VoEAGh45kGqK7BS3xwYdWPWIn/erlF8jZud3OCheEO5Gv9x5jLfl16BYZL2XoVPkAIAaGwUsAAAMvPH0vx8l72ALGBnnVIanJRE8Y0m/RvRkEw6KKjGN3ctLU8nGtj587ReknIL/kEWAKCxUcACACiJk4fTnWnbeLKAndFRKh8WeO5GSe1EY6OhJb3IA7u+oz9+H9HADnM3Samu5nMLHiIRANDYKGABAGRh/pFUP998AlnAjuosxceb2+8ksZJv05rN/LKu/ko3ocAOjbEBPV/SmFQbkSSPkAkAaGwUsAAA6m3VPySVU2uAi316sEM6iuUz5P6j1CfX2Wdu+mJHf3zRnIUeEQ5sj8QqqZ+jwyB6mEwAQGOjgAUAkMxc8kdTbAErsLBd5iz0qKM/vshk53E/s11DfVZ5XPwL3lCI7eo31SDtx7z9ybL+RiYAoLFxwwcAWD87kKX57XbLzCXOmwixTWYt8ufF4+JfmfksorH9THpjpRrfNHPJYBvRwDb1GUvSXoH1+IJpViYTANDYKGABANZPUFypPp4RhRUeI8RWnVIampZE1Vtdej3R2ClTcrncLV398TGEAttwhUh3BZaJDdwBABSwAABPTxBWpPnx1STgMUJsUVcpfnvgwU2STyIaw2J3N7+qo1Q5c8Nb5oDN2S/VT3ctJwUAAApYAID1zO9N9ePNW0kCNj15desoVc50959KGktAhlXOXOd0DlR+MOch34VwYDOmpvz5FLAAABSwAABPXxLuSfPTXTaNHODZOpZ7c2exMt9c53DfMpID0N5bWR3f2LFk3X4EAxvb8NbKVL9gsJS/YAEAZGS2QggAAJJUrVZT/Ybb5BSw8AyzS/4Si+PrZXYS0RgVB1suXNi5tPI6QoGnVHYrFyTl02xDkgT3kgkAAAUsAIAkqaWavyflJkztdue6BEnSrGLl36oe3y7XdKIxqvZUoF93lMqnEQqsl5uaehMsuZc8AACYKAAAJEkXTLPVkv6eYhN2XT4wNJFMoKNYPj2RrpW0V40ewiqZnSzp7hptf2Ru3+nsL19y8h2+Kz2y0XnqBayKRfeQBwAABSwAwNPMVEzz83MKeYywgZ22yFu6iuUfmOxbkqIaPYzHzfSm3kL4vx6Fr5Z0fQ2fEE4Kx8QLTykNMS4bWuoFrAcvLdhK8gAAoIAFANh4xro4zU9PEj+AHDSm2cWhKeui+FaXva9mp/my5Z6rHtZTiG6SpL6J9sTqMeGb5LqyhlMzOfDgps7++L300gblqb9gYzFJAABIFLAAAM+QpDpRsMAPIgeNp7M/fm9Vwa2SptTsHF+6Mx/njuib1Fza+OcLxtu61W3hcWb2/RpO0ViZ/7CzFJ8/Y5Hn6bGNo2upj83AuFxCJgAAEgUsAMAzJuG2JOUGvIosNI7u6zzsKlbOkfkPJbXU8KHcnFTD182dag9v6j8uMKv2FMI5bjqrtk8Q/pGxUXzj7KXr2KuuYWYK8aGScil3PFZgAQDWX5YIAQDgaRamPFGwfWeX/CUkov7N7PcXr9gn/oNLZ9b4ofx89ZjwdfOn2GNb+4t9heirbv5hSUmtHqxLh1SD8M9d/fEx9OL656bDU2+DGwUsAIAkClgAgI30TtIDklLdLDdR9XAyUd+6ipWjcxb/RRmYHO8MM/v+6kL47gXjbd22/pu+Qv4Cmb1X0lANH/qebv6Ljv7KV+Ys9IgeXdcOS7sBuThcRBoAABIFLADAM2fkLumONJuQuPMYYZ3qvs7Drv5Kt0u/kbRXTQ8V6as9rblTF5hVt/ff9hbCy930ZklP1vI9pJnOquwW39ixbLBA765D7ibXoak2QbZ83jR7nGQAACQKWACA584YFqZcGDiCJNSfU0qDk+59cXyDm75Y4/cfidxP72mLztpQ8N0hfYXo9+b+GpcervHzxXSr5m7r7I9PoZfXl9ml8mRJz0u5g91OJgAAT6GABQB4BgvstpSb8NIZ9/sYMlE/OkvxSYHnbjfplTV+KGtdNqO3Pf/t4fhlPe35O3Jx+CpJd9d4XMbKvK+zWL5szjLfjR5fH2K3I1O/HrluIxMAgKdQwAIAPEOSVNOeMES7rouPJBO1r2upj+3qL8+X+yWSxtX44TwauB/V1xb+ZDh/6byptqJs4RFa/1hljbMTKtXKXzsHKuxjVwfM7M0ZmKmwAgsAsNFlAQCAjfS15fuV8t48Jr2VTNS2rqXl6R7Et7nZyXVwOCXPVV89rz1/60j88ksLtnJ1IXyrm32n9kNl+ynRH7r6K90z3HOMhNq0YXP+16fdjigJWYEFAHgaBSwAwLPmn+aS/pJyIyhg1agZ7rmOUuVMD+xGSbW/ubfpdx6Fr+yb1FwayY9ZYFbtK4QfMdcnJCU1HrXQTV8cOxD/gQ3ea1OlJX61pJQfB7Vlc9vtH2QDAPAUClgAgE25Id2P99aupYPtpKG2zF66bmJLKf6tuc6RFNX68bisb3U5PKZvoj0xWp/Z0x6d627HSVpb8/FzHWHV3B0dpcqZ3e7cc9aSnN6S/vjT9SQCALAxbiYAAM9lGZg4WO5tJKJGuFtXsTynGoR3SnpNPRyRub7UV8h1LZhm5dH+8L728GfmfrikB+oglmPMdc6KYnw9q7FqaQSkX8CSJRSwAADPQAELAPDceUM1vFFSnO78iX2wasGsxT6hcyC+1mUXSmqpg0MactlJPe1R94bHaVPR056/o5oLj5Dprvo4qehwq+Zu7yiVT5O7MXKya/bSdRMlTUl/lkIBCwDwrEsDIQAAPGfyPNlWyfTXlCe8R87p9+eTjezq7C/PTsL4TrleVyeH9Ji73tDXFl6WhcbMn2T3lRUeqbp4Q6EkqcXcvtNViq+ZtdgnMIKyqRqEJ6beCNcjI73vHACg9lDAAgBsWpL6Y4RR2SonkIjs6Vrq+3QWK7+U2fcljauTw1rqueqr+tqjTK36uLRgKyc8GL7NZOfXS/9x6fVJGN/VWSyfymqs7DHTzAz0kj+SCQDAs1HAAgBsbhbzu/QvUnYKicgQd+vsL89WEN8tZWCPnOE6LOmXUS48LKsrPrqPsrinLfyo5F2Shuok7GMl+17XQHz9rIGhAxhc2dBVqrzKXW0ZaMo1ZAMA8Ny5AQAAmxCvy12X9mTZpUNmLh06iGykr2PZYKGrFF8js++7tEcdHdq31hTCd8ydZE9mvaG9bflemR8u+X31Enx3HZEkwV86i5VvnrbIWxhpaecjG18aVMPo/8gGAODZKGABADbpkoNtjTLwGvNcLphJNtIzZ6FHHaXKmVbN3eXS6+vo0AbN7ZTetuiMBWbVWml0byF/uyyaLukPdZSLUNJH10XVOzoGKm9m1KVjxiLPS358Bppy9/xJdh8ZAQA8GwUsAMDmmV+dehtcJ3Vf5yHJGH2dpcprKuPiu8x1jqSm+jkyvy8wP7ynPZxfi63vLdjfWyx8k7vNq68e5/tbol91FsuXdSz3vRmBo2vXqHq8pD0z0JRfkw0AwKZQwAIAbFbOPQsTiReueHF1BtkYPbMW+fM6i/E8ua6T1F5nh3d9HESvmFfI/6WWD+L8gg31tYez5X66pEp9pchOsEq8pLNU/tAM9xwjchS4m8k/mYWmJE4BCwCwaRSwAACbdVFb0xLJ7kl9biU/i7eVjbxu96Cjv/yBJIqXbtgwvM5ibheuroRHX9Jqf6uXI+ptz39bpjdI+nuddcfd5XbBrqX49q6BylGMzpHVsSx+k6SXpj5CpX+ujcPryQgAYFMoYAEAtsjlV2RgUnNQZ6n6VrIxcmb1l1+5ohTfaGZzJe1VZ4cXu+ms3rbwgwumWbnectdbiP6Qs/Dlkv5cb8dm0kGe6HedxcpVXcXB/RmpIxTnRGdl43pjP6vHMQoAGB4UsAAAW5lR+IKMNOQzJGP4dQ74+K5i+QeJ2c2SDq3DQ3zIXEf1FaKv1nMeLyrYA6vHhK+RrKdOD/FtrtyizlLly7ytcJjPAcXyoZJek5GJyRVkBACwOTyOAQDYMnfrLFXukWy/1JtiOqqvEP2epOy8Gff7mJbB+JNynSlplzq9y/ldbOEJ9fTI4LboKpY7XPades2rSw+b26cntOUu6TZLGM07p7NYuUrS2zLQlCdWV8IXsgILALA5rMACAGylCGAus0x8K26JzmYvrJ2d/bt19sfvbVlbWSLXl1SfRQ6XdPbq1vCNjVa8kqSetnyfV5PDJPXX5SlJepHM+1aU4oUd/fFbGNQ7rqs/PkbZKF7J3K+ieAUA2Mo9AAAAWzarv/zKxOyWbLTGu3rb8r1kZft1DFTebInOlvTyOj7MxwPZzHlt4S8bPd9dS32s5yrfl9t76/pm1nSDuT4zry36I6N8251e8qbVHt8lqZCRWcmbewvRb8gMAGDzlwoAALZBZ7GySNLUDDTlsWo1bJ8/xR4jK9umo1Q+zBL7skz1/ja3203VGT1tzfeQ9X/pKpbnuOxbkprq/FCvtcQ/3TM5v5Csb8N5ob/yGTOdnZHmPLi6EE5YYFYlMwCAzeERQgDANjFXVjaH3jMMqv9BRrZu5tKhgzqLlavM7aZ6L16Z2wUtFh5O8eq5etryc9391ZLfW+eHerQHdmtnsbJgdnFoCpnfwrlhme9rpiy9GKOP4hUAYKv3e4QAALAtTh7wF4RJ/ICkKAPNqbr7q/ra838mM8/V0T802cw+L9n7VP9fVq122al9beFlZH7LZi3y5yVR3Cfp2AY43Krcr1Cgr/YW8reT/X/pdg9WlOJfS3pDRprkQVBtm9faPEB2AABbQgELALDNOouVn0h6V0aaU7IkPKRnsq0iM+t1LS1PTwI7y9bnqBFWWd8tS97bW2haTPa3tVTg1lWMP+7rHx1rapCj/o2bzuENphvOE8XKJ136Woaa9Ifetui1ZAYAsDU8QggA2J6570UZak7BrXIBWZG6BipHdRQrv/HA/mzScQ1wfXeZfduj8BUUr7aTmfe0R+e6/DBJSxrkqN9krus6i5WbO/rjd3a7N+z9b2ep8hpXZva92tAljfM4AGDbrhmEAACw7WUDt85SvERSe4Za9cnetugbjZiLroHqse7+aUmHNdCR/12yrt628BcMyJ0z5yHfpbK6+g3JP9hg94SL3f286mB02SUH25pGOejZS9dNrAbhrZKen6ET2X0THowmdR9lMSMSALA1FLAAANuls1T+kDxT35gnLpvR1xb+pBHiP2eZ71auVmaa7DRJkxus+/3Go7Cjb6I9wkgcPh2l+FhznydprwY79CclXeyefLevvWlpXZ83FvuLKmH1j5K3ZqxpjfkFBABgh1DAAgBs30ToId+lsjq+X9LzMtSssgd6R19r9Ot6jfvMpUMH5YLcaZK/X1JLg3W7IZl/urc1Ok9mzigcfh3LfW+rxH2S3tSAh+8yXSfZd6Mnc1fOnW6VOsztNZIOyFjTVnsUju+baE8wAgEA24ICFgBgu3WWKl+W69MZa9Y6dzuxrz38Wb3EecYiz7dE1ePM/MPuOqJBu9sSl5/Y15b/KyNvhLlbR6nyUZOdI6m5QaPwkJn6qkouu7jQtKjWD6arOLi/K/w/ySdlsHnf6m2LzmDgAQC2FQUsAMB22/CN/jJJu2SsaVW5f6y3Pf/tWi4inNIfH54zO9HN36NM7Vcz6rcpF0YtuY/P3cfWMupGz/rVfsGlyt6KndEditKdJl1azYU/nD/J7qu19neVKm9016UZPYcMVj1snd9uDzLiAADbfGdICAAAO6KzVPmGXP8vo1PPy8ZUolMvmGarayeeQ1PlwYkuO9HkExu6c7kescBO7SmEP2ekpaNjuTcHlbjbpU9IyjV4OBKX/hTIf1AJop9c0mp/y3ruLI6/INenspo7k53f0xZ+lJEGANi+6wcAADvg5AF/QZjE90jaNZMNdF/hCk7raw+vzmoMZy4dOijIBceY672SXkavkiS/LKhEp8+bZo8Ti/TN6i+/MjHrkTSNaEiSEplud9evZH71mtbozwvMqllpXMdA5c2W6H+U7Rc8DFoSTuqZbA/RnQAA24MCFgBgh3UVK+e4dGamG+m6ToG+2luIfpN6vJb6WFn1aAU6xt2PkfQSetHTeXrEZR+qpz3M6sXpJW9ao/gLvn5FT0hEnuExyX/jFvzaFd94caF52Wg3oNs9uHeg+lZz/3+SXlMDMWPvKwDADqGABQDYYXP6/fkViwck7VYDzf2L3L4ZxLmrRmt1z4krfI98JT5UrkNN+je5jpSUp+c8m19WrUYfnT/FHiMW2XXKQPmQwK1XrgOJxmb93aVbA+kWmW5JwvDWkXjLXvd1Hq4YH79Sid4l+Xsk27dG4vOELGzrLdjf6SoAgO1FAQsAsFM6+isfN9O5NdTkWK7rLfCfm/m1uSfy/XOnW2Vnf2lnyfdyVSZJerlJh8rtUEltXGu36FFz+1BPe/hTQlEbZizy/K5R/DmTzpIUEZGtcskfkGyZuy0z+TLJ7jFPllkS/X3drlpZ2VcrN/cY4mmLvKWc1+6VJG4PAm8zD6a4fLKkwySNrb2Zh3+8t5D/H7oFAGCHLiOEAACwsxPalii+U1J7jR5CWdISl99tsqUm/0diwWNW9cc88MdV9apC2zVwa3Gz3ZVoVw+SXQO3fV2apH/9GUdv2K55/Q+q1eh0Vl3Vplml8ssSt15JBxONYTEoaY1kT8p9F5l2qcNzytJoZXjQcHxhAABoTBSwAAA7raM/fouZ/5JIYBs8ZG4fYdVV7Zuz0KPKuPhTkj4raQwRwRYnHW5v6WkPf0UkAAA7fC0hBACA4dBRrPzCpLcSCWxG1WQXDFnuc5cWbCXhqB+zl66bGAfh+Yx/bI5LV/S1RccTCQDAzqCABQAYFjP7/cU5i++WtDvRwLP8RfIP9bblbyEU9aujFB9rSXK+zCYQDWzksVwYTrtof3uUUAAAdkZACAAAw2F+uz1o8jOJBDbypMs/troQvoLiVf3rK4RXRWOjqeb6ktbvLQfIZR+leAUAGA6swAIADONMxa2zFP9K0psIRsP7hYLwtN5Wu59QNJ6ZSwbbwlzuApdeTzQa+zzQ2xYdSxgAAMOBAhYAYFh1LFm3n+XCv0rajWg05K3FgMw/0luIfkMsGpy7dZYqHZJ9TdLzCUiDpV96OAzDl7H6CgAwXHiEEAAwrPqmjLnXZLPWz1/QQNaY9AWPcgdSvIIkycx72/K9HoUFmc4VjxU2kqqZTqB4BQAY1lsLQgAAGAmdxcp5ks4gEnXPTbrc4vCT86baCsKBzZm5zPcN48p/udlJ3IPW+UnB9dm+9ujLRAIAMJy4eQAAjIgZizzfEsV/lHQo0ajTSar0RzP/995C/naigW3V1V85MjGda9IriUZdunpCITy22ywhFACA4UQBCwAwYjoHfLyS+GZJ+xCNurp9WObSp/rawp8QC+wQd+soVU8wJV+RbF8CUidple6sWPjqSwu2kmgAAIb9DpQQAABGUmep/HK5/UFSC9GoeavNdW6SD8/pm2iDhAM7a8Yiz+8aVT5ksi+JFz/UNJceTnLhYfMn2X1EAwAwEihgAQBG3Kxi/NZEfqWkHNGoSUMmm+uW+8/egv2dcGC4dZZ8L3n8KUmnSdqFiNSc1TJ/DY8TAwBGEgUsAMDoTFCL5VMl+y7XnppSkaxHQe7s3la7n3BgpM2+x18Yx/FZJp0qaQwRqQlrlejY3snR7wgFAGAkMYkAAIyarmJ5jsu+x/Un8xKTrrCg+pl5rc0DhAOj7eQBf0GUxB936aOikJVl60x6e09bdC2hAACMNCYQAIBRRREr0xKTroir1c/Nn9JcJBxI20aFrDMkNRORTKF4BQAYVUweAACjrrO//BGZfYvrUGYkcr88Z959UVvTEsKBrJm5zPfNVaufkfwUUcjKwgTin256V28h+gPRAACM4vUHAIDR11WK3+PuFzMZTdWQZJfKquf2FpoWEw5k3ckD/oKwGn9YptMkPZ+IjD6XLQ9VfSvFbgDAaKOABQBITWexfKhkP5f0AqIxqlZK6stZ+PWLCvYA4UCtOb3kTWuS6nvd/CxJU4jIqPlzLgyPvWh/e5RQAABGGwUsAECqTikNTgo8d6WkaURjhLmvsEDnNZejiy6YZqsJCGpdt3twX7H6DgX+/9x1BBEZwUmD2fdXNefOWDDe1hENAEAq1yJCAABI25yHfJfK6ur5kncRjRFxu2TfmPBgbkH3URYTDtSjjlL5MJM+Jrd3ScoTkWGzyt3m9LWHPyQUAIA0UcACAGRGVyl+v7t/V9JYorHT1pn75ZLN7WmP/kQ40Cg6S76XJfFMN82WNJmI7DiXblWuelLfpOYS0QAApI0CFgAgU2YNDLZ6kvueS68nGjt0Zb/L3b9fbor+97IJ9k8CgkbW1V850gP/gNxmSBpDRLbZKpd/fk0h+vYCsyrhAABk4zYXAICscbeuYvVkNz9XvGlsW6yR7Mduydy+Qv5mwgE8U8dy3z0oV97vZrMlvZSIbNFVCsIP97ba/YQCAJAlFLAAAJk1c4nvmctVv7xhb6yQiDxDIukGmf8gCqLL5k6yJwkJsHUdS4YOVC6YYdLx4g2GG7tFiT7TOzn6HaEAAGQRBSwAQOZ1LR1sT4Lc2Sa9u8GvXS7XTW7+48Sjy+e324P0DmDHzRoYOiCpBjNkmqFGLWaZ7pLs872F8Ep6BAAg25csAABqZbLZX35lYnampHdKChrksF3SLTL/sSy6nMd6gBE6v/yrmPVuSQc0wHnlVy6d11cIr5WZ0wMAAFlHAQsAUHO6ioP7u3JnSOpUfb6xcLWk30t+TRBHV86baivIOjCK55ilvo+serSUHJ2YHW3Si+riwFyPuOmHQVL9Xs/k5n4yDQCoJRSwAAC1PMkc61Z9t8xPknSUpFyNHkpV0p9duiYnXZtbGd40d7pVyDCQDbMGhg5wt6MTt6NNeo2klhpq/hMy/7nJLl3VGv6WtwoCAGoVBSwAQF3oWur7eFA5XrK3SPo3SWMy3NxBSXfI7M+W6HdJPndd30R7giwC2TdnoUfx2MrUJNAhQRIc4uYvl3Rwhs45iUy3y/XrJNGvJz4c3tJ9lMVkDgBQ6yhgAQDqzoz7fcyuQ/FrzHW0XIdKepmkXVNqzqBLd5rsNrdkYZDotn0fihYxoQTqR/d1Ht7zovLUMLCXS8HL3bxVrv0k7aeRLWzFkpa7dGcg3ZKY/hxUw9t6JtsqsgIAqDcUsAAADTG5vG+fyrQk0CGBW5tLBZdaTSoM0+RynWQPSv6gZMvkPqDAStVqtdi8Or+ExwGBxjX7Hn+hVyoTPAj2k/sEN9tXnjxPst3l2l2mXSQbJ0nyJCcLNjzi52tNGnJpnZn+4W6Puvxvkv9dHixTGJfy/2y6l/MLAKBRUMACADS095d8XC4e2tsst1eQs+dLGmue7OKSudnuT/29wP1JSYlbsDZw/TNO/Ikgl/yzGucfnT/FHiOSAAAAAAAAAAAAAAAAAAAAAAAAAAAAAAAAAAAAAAAAAAAAAAAAAAAAAAAAAAAAAAAAAAAAAAAAAAAAAAAAAAAAAAAAAAAAAAAAAAAAAAAAAAAAAAAAAAAAAAAAAAAAAAAAAAAAAAAAAAAAAAAAAAAAAAAAAAAAAAAAAAAAAAAAAAAAAAAAAAAAAAAAAAAAAAAAAAAAAAAAAAAAAAAAAAAAAAAAAAAAAAAAAAAAAAAAAAAAAAAAAAAAAAAAAAAAAAAAAAAAAAAAAAAAAAAAAAAAAAAAAAAAAAAAAAAAAAAAAAAAAAAAAAAAAAAAAAAAAAAAAAAAAAAAAAAAAAAAAAAAAAAAAAAAAAAAAAAAAAAAAAAAAAAAAAAAAAAAAAAAAAAAAAAAAAAAAAAAAAAAAAAAAAAAAAAAAAAAAAAAAAAAAAAAAAAAAAAAAAAAAAAAAAAAAAAAAAAAAAAAAAAAAAAAAAAAAAAAAAAAAAAAAAAAAAAAAAAAAAAAAAAAAAAAAAAAAAAAAAAAAAAAAAAAAAAAAAAAAAAAAAAAAAAAAAAAAAAAAAAAAAAAAAAAAAAAAAAAAAAAAAAAAAAAAAAAAAAAAAAAAAAAAAAAAAAAAAAAAAAAAAAAAAAAAAAAAAAAAAAAAAAAAAAAAAAAAAAAAAAAAAAAAAAAAAAAAAAAAAAAAAAAAAAAAAAAAAAAAAAAAAAAAAAAAAAAAAAAAAAAAAAAAAAAAAAAAAAAAAAAAAAAAAAAAAAAAAAAAAAAAAAAAAAAAAAAAAAAAAAAAAAAAAAAAAAAAAAAAAAAAAAAAAAAAAAAAAAAAAAAAAAAAAAAAAAAAAAAAAAAAAAAAAAAAAAAAAAAAAAAAAAAAAAAAAAAAAAAAAAAAAAAAAAAAAAAAAAAAAAAAAAAAAAAAAAAAAAAAAAAAAAAAAAAAAAAAAAAAAAAAAAAAAAAAAAAAAAAAAAAAAAAAAAAAAAAAAAAAAAAAAAAAAAAAAAAAAAAAAAAAAAAAAAAAAAAAAAAAAAAAAAAAAAAAAAAAAAAAAAAAAAAAAAAAAAAAAAAAAAAAAAAAGrX/wdrsw7gq2kmHQAAACV0RVh0ZGF0ZTpjcmVhdGUAMjAxNy0xMC0wOVQwNDozMTowOCswMDowMCLKfdkAAAAldEVYdGRhdGU6bW9kaWZ5ADIwMTctMTAtMDlUMDQ6MzE6MDgrMDA6MDBTl8VlAAAAAElFTkSuQmCC;" vertex="1" parent="1">
          <mxGeometry x="456.5" y="-20" width="74.72" height="52.8" as="geometry" />
        </mxCell>
        <mxCell id="dlHqHgkgmX-34859HV9w-79" value="Rails" style="shape=image;verticalLabelPosition=bottom;labelBackgroundColor=#ffffff;verticalAlign=top;aspect=fixed;imageAspect=0;image=data:image/png,iVBORw0KGgoAAAANSUhEUgAABLAAAAHFCAYAAADi9gAaAAAABmJLR0QA/wD/AP+gvaeTAAAgAElEQVR4nOzdeZicVZn38e+p7nQWsrAjMCIgASVKSLo6HQKMRhFHRLYR3FEQd8VRB3Ac3tERRkVxBnVGER0VFZeIKIs6uBBUjEm6qpPARBkjKKAosgYCId1ddd4/nkYjZOnuqnpOLd/PdeVKrl7O/VN6qbrrnPuAJEmSJEmSJEmSJEmSJEmSJEmSJEmSJEmSJEmSJEmSJEmSJEmSJEmSJEmSJEmSJEmSJEmSJEmSJEmSJEmSJEmSJEmSJEmSJEmSJEmSJEmSJEmSJEmSJEmSJEmSJEmSJEmSJEmSJEmSJEmSJEmSJEmSJEmSJEmSJEmSJEmSJEmSJEmSJEmSJEmSJEmSJEmSJEmSJEmSJEmSJEmSJEmSJEmSJEmSJEmSJEnNK6QOIEmqj7UwfQSmDcF0YBYwDZgWYEeAADsAPY99fBV6CnB/L1yWJrEkSZIkjY0NLElqUkug60B4UgWeDOwV4W8C7A7sWoXdCrBLhF2BXcj+7p5AmUcmwe5z4eF6ZpckSZKkeprIkx1JUoMMwsFV+G+yptWTRqBr8/fH0b/DZv+u0bRhOAb4Rn2WkyRJkqT6K6QOIEn6iyqsAw4E9uZxzatGifD3edSRJEmSpImygSVJTaQIw8DVedYM8KJSNi9LkiRJkpqSDSxJajIRvpVzyWkBnp9zTUmSJEkaMxtYktRkNsC1wEN51vQYoSRJkqRmZgNLkprMYngU+F7OZY9bClNyrilJkiRJY2IDS5KaUIJjhDNmwlE515QkSZKkMbGBJUlNaBpcQ7YTKzceI5QkSZLUrGxgSVITmgMbIvwg57InrIWenGtKkiRJ0nbZwJKkJlXI/xjhjo/C4pxrSpIkSdJ22cCSpCY1Aldlf+XHY4SSJEmSmpENLElqUv1wb4Drcy574lLozrmmJEmSJG2TDSxJamIRrsi55K6z4Fk515QkSZKkbbKBJUlNbCRrYFXzrFn1GKEkSZKkJmMDS5Ka2EK4C/h5zmVPWgJdOdeUJEmSpK2ygSVJzS/vY4R7HACH51xTE7AMdk6dQZIkScqDg3olqclV4Ftd8NGtvDsCDwDrgQcf+xPgwWr2bwAK8EDMPpYAGyM8+tjyYbOPe8zIFt6m5tMDS0vZ7/KrgWt6YVnI+cipJEmSlIeQOoAkaftK8C5gJMKfgD9EuHsy3H0I3B1GG1PqPCW4DdhnszfdHeB/Ilw9Fb43BzakyiZJkiTVkw0sSZJaVCnbfTdrK+/eCPwowNURri7CH3KMJkmSJNWVDSxJklpQhEIZhhnbPMsK2WUAl1fh6wvgj41NJ0mSJNWXDSxJklrQKtixAvdP4FOrwM8DfHEYvrbQeWeSJElqATawJElqQYPwlCr8tsZlHgV+CHxxKlw5B4ZqTyZJkiTVnw0sSZJaUBkOibCmjkveF+GrXfDJ+fCLOq4rSZIk1cwGliRJLWgQ/rYKP27Q8uUIHw/w1WI2Z0uSJElKaiyDXyVJUpOJW799sB56A1wK/KYE566CHRtYS5IkSdouG1iSJLWgaj5Npb2B8ypwewk+dCPslENNSZIk6QlsYEkdbAl0pc4gaWJCvruiZgDnDME7c6wpSZIk/Vl36gCS8hchlOHFwPkD8J4++GbqTEqnBLO6YL/tfdww3LsA7sgjk7Yvwsy8B1kGeDDnkpIkSRJgA0vqOANwVBk+BPQCBPjUIPxkPtydOJrGYQlM/RtY0ANzAxxUhQMC7BFhRoCpEaYCPQG6I3QFCAFCNfv7CSpjqFkASo97W4A4+s9YhRigEmEEGAqwMcDDwINVWA/8rgA3j8CanWHlbL/matXIGVhbsz5BTUmSJMkGltQpVkJfgA8GeO7j3rVbFT4CvCZBLG1BCZ4JLAb6Y9aY2hPYMcLUAnQ9vgkV+cuVso//e/N/R+p/9WzcrOToP7oC9ADTRjM/IUMXWReklL09RqhGGA6wAbg7wh0B/jfAzyL8qGjTZItyPkL4GP9bSJIkKYm8Tx9IytkAHBTgPLIjg1v9ng/wgl74n/ySdbY1sPsIvBpYXIU5AXYDpuDP5S2KUAmwMcK9wG8ClCrwvX64LnW2VErwdeCUPGv6c0KSJEmp+ERJalOrYe9h+JcApzO23Za3PwrPOAIeanS2TlOCEwKcFqEI7EK2Q8mfv/UTyZpbdwdYC1w3C77Y7kcUS3AtcHSeNQMc1gvL86wpSZIkgU+gpLazDHaeBO8O8FayOUjj8ckivKURuTrFKlg0DG8uwOEB9owwOXWmDhaBoZg1stZ0w+WHwlcCDKUOVg+lrJHUn2fNAAf3wi/zrClJkiSBDSypbSyF7plweoTzyY6jTUS1AIvnw0/qma2dDcKLq3AmMC/ADtGfq01v9DjigxHWFeAHw/CJhXBX6lzjVYKbgYPyrFmAvefDnXnWlCRJksAnWlJbGICjAvwH8Iw6LLduCOYugo11WKvtrITnBngH2Q6rWfhztF3EAA9HuBW4/Fa48JQm/x4owR+BPfKsOQTT/NkgSZKkFHziJbWw0QHtFwLH1nPdAB/uhXPquWarWgZ792S3ND4f2Al/bnaSEeCuAD8twAXzYHXqQJsrwRHAy8kGue+SQ8nhYja/TZIkScqdT8SkFrQMdu6Bs8l2AjXiCWWlCoctgIEGrN30Stlg7HMj9IXsZkCJkM3UehhYOwKXLYBPBqikzrUEuvaDxQU4NcKJwPQGlbq7CLs3aG1JkiRpm2xgSS2kBJNGb7P7N2DXBpe7aSoU57TJwOttKcGkCOcHeCWwJ/5s1NhtAFZPgo/NhctTh1kL0x+F42O2M+toxnYD6VjdUoQD6rieJEmSNGY+SZNaxOicq4uAOTmWfW8R3p9jvdxEKJTgvABn4K4S1cHoDq0HgYEqXNAHP0yZZxB2i3BKhJcBi6j9d/5gEXrrEE2SJEkaNxtYUgsow7/H7Lhg3jZVoXcBrE1Qu+4iFAbg7AK8FdgLfwaqgQLEKqwvwLXD8PaUNx2uhCcX4CTgVGD+BJe5rgjPrWMsSZIkacx88ia1gDIcErN5VCkGKK+8FRad0gSzfiaqBG8D3o3HA5XWEPDLCvxnP3w2VYgBmAe8NsArgB3H8anfKmZNMEmSJCl3PpGTWsQAvC/AexOVf1cR/j1R7QlZCXMK8Cmyo1NdqfNIm9t8d9YUePMcuC/vDOtg8no4LsDrY7azapuPCSJ8vg9OzymeJEmS9FdsYEktYil0z4CVZLsn8vZIgLm98OsEtcfsTph2J3yUbID1zNR5pHHYFGD1JjhnEfw47+JlOKAKrwxwGrDPlj4mwkV9aY4yS5IkSRRSB5A0NothJMJrgeEE5acBn41N2vQehNNL8Ps74WHgjdi8UuuZHKG/B64fgOEBWLkajsireC/8ug/e9xA8NcIJEa7miceG1+eVR5IkSXq8pnwyKmnrSvAh4JwUtSO8sQ8+naL2443utroEeDEwOXUeqUEqwNoI78r7VsNSNjPuVLKbOg8I8I7e7CZUSZIkKXc2sKQWMzq3ZhA4OEH5B6vwjAVwR4LaAPwc+ifBZwPMadYdYVKDjABrC/CP83NsZkUIg7C4Chv6smPMkiRJUu588ie1oDIsjHADaYaTf7cIL8y76OgQ+3fg8UAJRndmdcNZh8L3U4eRJEmSGs0GltSiStlRnrfnXPbWCO8rwpcDxEYX+wHM2hEuD/AcnNknbc1IgBtH4Kx+uC51GEmSJKkRbGBJLaqUDVZfAxyQQ7k/Af8+Cy6aDZsaXWwN7DcEXwvQhz+npDELMFyFn0U4NeVRX0mSJKnefGIotbABeHbIdlw06nv5XuAjQ/DxRbCxQTX+bBU8rwKfB/ZudC2p3UV4IMDnivCu1FkkSZKkWtnAklpcGS6O8IY6LzsEXAz8SxHW13ntJyhn+T8YYadG15I6UIxwewHe2QtXpA4jSZIkTYQNLKnFLYeZ3XATsE+dlrwmwtv74NY6rbdVJTgPOBvoaXQtSRCy5vSPhuG0hXBX6jySJEnSWNnAktrAABwVspvIJvw9HaE0ukPjp3WMtkUl+BDZjYI2rqR07gcuLsJ7UgeRJEmStscGltQmSvAF4NUT+NQ/Rjg7j5sFV8L7C3AONq6kZhKBX3XBS+fB6tRhJEmSpC2xgSW1iRLMAtYy9gHo1QifDVnzqqFzrgbh/VUbV1LTi/BAN/zbPLgwdRZJkiRpczawpDZShhdFuGp7HxdgoAJvWQADjcwzABcEeCfQ3cg6kupupAo/2gFePgfuSx1GkiRJsoEltZkB+FqAl2zl3fcC5/XCJwJUG5VhFZxRgY8B0xpVQ1LjRaAAd3bD2+fC5anzSJIkqXPZwJLaTAl2JTtKuPtmb64GuGwE3tGfNbEaYhW8sAKXArs0qoakNAIMV+H7v4GTT4GNqfNIkiSps9jAktrQALwswFcgu10QeEsfrGxUvTIsjHAlf900k9SeYoRfDMOLF8HNqcNIkiSpM9jAktpUKRvQfsN8uLRRtwuWYB/gu8CcRqwvqend0wVnzMsa2JIkSVLD2MCSNG4lmARcAxydOoukprApwIW9cG7qIJIkSWpPNrAkjUsJLgTeARRSZ5HUdCoBLp8PrwhQSR1GkiRJ7cMGlqQxKcOJEb4ITE+dRVLTi8BNBXjBfLgzdRhJkiS1PhtYkrZpdM7VdcBTU2eR1FpGh+/dFuHkBTCQNo0kSZJamQ0sSVu0Fno2wg+BI1NnkdQW7u2C1zrwXZIkSRPhDBtJT1CGdzwCj2DzSlL97FKBb5fhoQE4PXUYSZIktRZ3YEn6sxI8Dbge2CNxFEltLsLGAvxDL1ySOoskSZKanw0sSUQoDMKVEY5NnUVSx9kU4P298IHUQSRJktS8bGBJHW41vLICn40wOXUWSR1tUwU+1A/vSx1EkiRJzccGltShBmGvKvwEbxeU1EQCDEe4sAjvSZ1FkiRJzcMGltSBSvDZAKdHfwZIal7DFbioH85OHUSSJEnp+eRV6iBleHqEG4CdU2eRpLEIMAy8zxlZkiRJnc0GltQBIoRV8JUqvDR1FkmaiAgbgbf2wedSZ5EkSVL+bGBJba4ERwDXAtNSZ5GkWkXYWIXX9sNXU2eRJElSfmxgSW1qKXTPhGsiPD91FkmqtwgPACf3wQ9TZ5EkSVLj2cCS2tAqOKECS4BJqbNIUoP9DjimCDelDiJJkqTGsYEltZEIhRJcE+AFqbNIUp4i3DYMf7cIbk6dRZIkSfVnA0tqEz+DwyZnR2mcdSWpYwVYcQssPiUb+i5JkqQ2UUgdQFJtIoQyfLkHlmHzSlKHi9C/Pzxcdsi7JElSW3EHltTCVsCB3bA8wk6ps0hSswkwHOGfivDR1FkkSZJUGxtYUosqwUcDvCP6fSxJ2xRgQxVO9MZCSZKk1uUTX6nFLIc9uuFGYPfUWSSplUS4NcKzF8AdqbNIkiRpfJyBJbWQlXDaJLgTm1eSNG4B9g9wexmWL4GpqfNIkiRp7NyBJbWAJdD1VFga4cjUWSSpHQSoVuG/+uDM1FkkSZK0fTawpCa3HA7ugpUBdkidRZLa0KYAL++FK1IHkSRJ0tbZwJKa2CCcF+GfHdQuSY0V4bYK9C+Eu1JnkSRJ0hP5pFhqQkthygwYAJ6ROoskdZAY4bt9cGzqIJIkSfprNrCkJlOCxQGujTApdRZJ6lBDXfCGefCF1EEkSZKUsYElNZESfBR4Z+ockiQA7nkYFj0L1qUOIkmS1OlsYElNYB1MXg8lPDIoSU0nwvVFOCpAJXUWSZKkTmUDS0psNcwbgZ8Dk1NnkSRt1UgB3jYfLk4dRJIkqRPZwJISGoRzI7zfWwYlqWXc0wV98+C3qYNIkiR1Ep80Swksga794XrgiNRZJEnjEyAG+NJ8eHXqLJIkSZ3CBpaUsxWwXzfcGGF66iySpJo8XIHj+uG61EEkSZLanQ0sKUdlODHC5UAhdRZJUt3ceCssPAU2pg4iSZLUrmxgSTkpwWeAM1LnkFQfERi9la4SoVKAoWr296Mx+zNUgPVVeITsz5gUYNcIUwNMBXaIMDlAdxV6CtAVswZ4F/4ObzaVLnj3PLgwdRBJkqR25INfqcFKMCnCqgBzUmeRtH0B4mgj6uEI90X4I/C7SXDLJrixB37eLAO8I/SshCMKMBd4JrAvsHuAXcNo8wvoxt/3uYnwx244rFm+RiRJktqFD2ilBloJTy7AL3DeldRsIvAocA9wW4Abu2HpffA/i2FD4mx1txSmz4Tjq/Bc4BnAk4EdQ9bg8rFAnY02QT/X565bSZKkuvFBq9Qgq+HEEeddSUmFrFE1FLNG1S+64Ps98Lk5cF/qbM1kBTynACcARwbYD5iBP7tqFmB9hCOLcFPqLJIkSa3OBpbUAGW4KMLbU+eQOk2A4SrcWYDlBfj4PFiWOlMrWw1HV+D0KiwkO5o4BR87jFuEq/rg+NQ5JEmSWpkPQqU6ilAYhBURiqmzSO0uQDXC3RFWdMPn5sGVqTN1gp9C7zR4fYSjgL8BelJnagURHpkEzz8UbkidRZIkqRXZwJLqZA3sMAzrgD1TZ5HaVIywHvhZN5w7D1anDqTMCnhZAV4PHBpgFj6+2KoAK3qzHW2SJEkaBx9gSnVwEzx9CFaN3vglqQ5GB2HfX4AfBHj//OxCBLWAgWx31ttC1qjZFedpPd6mCvx9P3wndRBJkqRWYQNLqtEg/H0VvoHfT1I9DAdYF+AT8+Hi1GFUH4NwcBU+EOFZ7tD6iwAr5sPhASqps0iSJDU7H0BKNSjBB4B/Sp1DanEPAz+cCe88EG5NHUaNtwLO6IK3Ak/HGVpDPXDCIfC91EEkSZKamQ0saYLKcGWE41LnkFpRgA3Ad2bC22bD3anzKJ2lMH0GvCPCawM8mQ49buhsLEmSpG2zgSWN0zqYvD6bxbN/6ixSi3kwwjcDvKOYDWOXnmB0fta/BZgHTEqdJ08RHu2G586DZamzSJIkNRsbWNI4/BJ2eRh+A8xInUVqEZsCXBfgjPlwZ+ow7WQADgL6A9wb4F7gngh3t1Nz8KfQOw3+PUI/HXJJRgQCfKsIJ6XOIkmS1ExsYEljVIKnATfSYTsCpAmoBljdDW+eCytSh2lXZXhLhP/cwruGyRpavw/w+wi3jf77d8DtI/C7R+COxTCSa+AaLYOnTYKPBTgSmJo6T6MF2BBhURFuSp1FkiSpGdjAksbgRvjbIVhKh85mkcYiwgMF+EhvdrmBGqwE5wLnTfDTR4DbA9xahVtD9ucXVVhbhN8GqNYxat0thz0mwceAF0aYnjpPIwX4Wi+8LHUOSZKk1GxgSdtRhtcDF0e/X6QtqUT4aRe8wiOC+SrBhcC7GrD0Q8CvAvwiQhkoT4JVc7PbIpvOOtjtAfhkgGOBKanzNMh9VTh0AdyROogkSVIqPiGXtqGU7ST5p9Q5pGYTYeMk+Nihfn8kU4LPAGfkVK4C/F+ED/XBl3KqOW6r4NBq9oJDEehKnafOYoBz3eEoSZI6lcehpK0ow1fxybn0Z6PDpe+swLF9MM3mVVoBdsqxXBdwcIC9c6w5bvNgdS8sLEJ3Ad4U4baYOlT9hAj/NgC/jdCTOowkSVLebGBJjxMhlOHnEV6aOovUDEI2lH1FF+zdC3v3w3dSZxLEfBtYj9W8P++aEzUfLu6DfYswuQqfDbAhdaZ6CPCUMjy8Al6YOoskSVKebGBJm1kLPaXs1e2FqbNIqUV4tAs+1gtdvbAw5YyrlTBnBRyYqn6TmpWg5voENWsSYGgBvK4XZgCHRFgZsyORray7C64ZgKtSB5EkScqLDSyNSQmmLW3f4bhA9r/xEbgzwD6ps0iJ3V+Fl/bB1HnwDykCRCiU4IgSfKQE6wrwv13wnhRZmtiOeRcstNAOrC0pwk190N+XNYDOAh5InakWAV5Uhgd+BfunziJJktRoDnHXdq2BHYbhamBSBU7oh3tTZ6q3tbDzo9mslLa+jl3ajrsivLIPfpii+DqY/CA8L8LxwHHA7o/7kAemwh5zYChBvKZTgnuAXXIuu7AIK3Ku2VAleGaErwSYQ+s+LooBPtAL56YOIkmS1Cit+kBNOdmsebV49E23VOCYfvhVylz1tBz+phvW0eY7zKStGR3MfsICGMi7doRCGRYBJwMvB3bdzqccW3QG12Oz+obJ+aa9LjhwXvbzsu1E6BqAiwO8IsDU1HkmIsJtRTgw2OSVJEltyAaWtmq0eXUN8OzHveveCMf3wc8SxKqrQTi4CmuA7tRZpDyN3sx2W4AXFeGmvOuvhDkFeBVwKrDnOD710iK8pjGpWkcpm3+V+/G3Auw+H+7Ou27eVsDLuuHCCHulzjIBwxGOSbWTUpIkqVFsYGmLRp8c/Q9bH2b+SISX98GVOcaqq1VweBV+Ep0Fpw4y2rhaXYG/Wwh35Vl7NexdgVdHOA04YILLeIwQKGWz+m7Lu+5UmNxJ/98Pwl5V+DrZLsGW+l0R4JJeeEPqHJIkSfViA0tPsAp2rGTNq/7tfGgFeEcRPpFDrLoahOOq8G38HlAHCVCeCS+YneMOmiXQtR8sDvB64ETqs9ux448RDsLcKqzOueyGYnaTX0daDR8chre32PHCOx6CgxfDhtRBJEmSatVSryaq8ZbBzpXs2MH2mleQzV75eAk+2kq7mJbD6dVs55jNK7W9mP0ZmAq79EIxr+ZVGQ4owYX7Zzd7/oBsxlW9juqeXKd1WtmsBDXXJ6jZNA6Ff+qDaQFeGVvnMpMnT4cHfp5diiBJktTSfAKvP7sRdtoE3w9QnMCnf2sIXrEINtY9WB2V4I3Ap1LnkPIQYMUUOGYO3JdHvQihBM8d3W11Eo0bMP7ALHjSbNjUoPWb3gAcH7JdpHm6qQiH5Fyzaa2B/mH4aoT9WuHBVIRv9MEpqXNIkiRNVMvsmlFjDcJuQ3D9BJtXACdOhh+Wtn+DWDIlOBObV+oAEf44BE/vhYV5NK+Ww8wy/EMZ/m+z3VaNvB1vx/VwVAPXbwXuwEpsLqwowv5dsHeEgfDnEXPNKcDJJbirlOZrR5IkqWY2sMQa2L0KP6LGV9ZjNuR2xQAcVJ9k9VOCdwIfS51DaqQAwxU4sw/2XAQ351V3Euwb4T+A2XnVpMOPERZg57xrhpx28rWa+XBnHyyYD1NiNputmRtZuwP3rYEXpw4iSZI0XjawOtxy2GM4a149s05L7h9gWQmOqNN6NSvDWcBHU+eQGigG+Fov9PQnuFShF24kx4bZqOPXQk/ONZtGFXbMu2aEB/Ku2UoCDPXBsb0wJcDXA1RTZ9qKwjB8YxAuTR1EkiRpPFphbIMaZPR68OtozI6pjQFe0QvfasDaY1aC84BzU2aQGinCzdPg8LzmXG1Nou+1jr6NcC30bIAZBZgVYWYXzKjCdGBWyHba7AnsBTxps79rOeb9iWJ2FFtjEKGrDJdGeGlo7JHaCYtw22/g6ac0+fxKSZIksIHVsQZhtypcDxzcwDJV4J3FREf3BuEDVfinFLWlHIxU4E398NnUQQDKcEiENTmXvbQIr8m5ZktbB5Pvg6d0wewAs2N27HM2cACwD9tutLy/CO/NJWibKWW7gM+kfjdx1tNIBZ7fn72gJUmS1LRsYHWgVbBjJXugOi+PehEuKsK78jxOMQAXBDg7r3pSngKsmA+HB6ikzrK5UnaMMM8ZeA9MhT3mwFCONdvWWujZCAdFOLQA8yIcSvZnJ4AI7+zLZp1pglbCZwpwOk02wiECAS4sZkfuJUmSmpINrA6zFqZvzG4JW5hn3QhXDMMrF+VwTGEAPh7gbY2uIyXw0CR43lxYkTrIlpTh/Aj/nHPZjj5GmIdVsG8la2TdUoSbUudpdRG6BuGymF1E0FSNLODGIsxNHUKSJGlLbGB1kGUwtSd7orc4UYQVk+C4ufCnRhUowwXRnVdqM6NXmv13H5yRNsm2DcLcKqzOuazHCNWSRmdkfRM4jiZ6PBZgQ4CD5sOdqbNIkiRtrmkeMKmxRo+GXAG8MHGUWyMc0wf/V++FB+B9wfksajMRNnbDonn5N4YmpAS/BJ6WY0mPEaqlRegpwRUFOCY2yeOyANVueMlcuDx1FkmSpMc029Z1NcAS6NoIXyJ98wpg/wDLynBkPRctw9k2r9RORnddfasPprVK8wogZDtK8rTjI3BUzjWlugkw1AfHToFdQ5McD45QGIZvlOHTqbNIkiQ9xgZWm4tQ2B8uBU5JnWUzO0e4diA7NlGzlfCuCBfUYy2pGUR4dBIcWYSTUmcZrwDfSFDzRXnXlOptDtzXCwsfhgMj3JY6D0CE1w/AqtQ5JEmSoEm2qqsxIoQyfBJ4Y+osW7A+wuK+Gh8Yr4I3V+C/6hVKSi3C9X3p5tTVRU7HCO8PcA3wjSlwrUcI1W6WwbN64FuM3gKZ2EMjMHsh3JU6iCRJ6lzuwGpjpWxXUjM2rx4Bjq21eVWGV9q8UrsIUO2C01q9eQUNPUb4QIAvBThuKjypF07thattXqkdLYIfF2HnCrwu5nCD73bMmAR3lltwV6gkSWof7sBqU4musx+LoQgn9MH3almkDC+pwtf8AlY7aLdbv+p8G2E1wHVV+NIwfGNR+ifyUhKr4YPDcFaArsRRLi7CmxJnkCRJHcjn/22oBC8HLkudYwsqEV7aV+OtRivg2C64ul6hpJQiXNUHx6fOUW+l7KbRA2tY4lbg81W4dAHcUadYUkuL0FPOXgB6TsocAQZ7oTdlBkmS1Hk8QtiGpmYNoi+mzvE4McIbam1eDUKxAFfVK5SUUDXAK9uxeQUTHuY+DCwBntMLBxThfJtX0l8EGCrCcwuwN1mTOIkI80uwYRD2SpVBkiR1HndgtanRAe7nAv9KE/x3jnBOH3y4ljVK2VDo/yX98QmpJgHunwIHzIH7UmdplHEeI/wTcEk3XHwo/L6RuaR2sgqOH4GvBJiWKEK1B449pMaxAJIkSWORvLGhxirBycClwNRUGQJ8urfGYfI3w14Pw28jTDs84m0AACAASURBVKpXLimFACt6YWHqHHkYw22EgwE+vQm+5GwraeLK8O/A22OinfUV+Eg/nJ2itiRJ6hweIWxzxewYz9HAPYkifPsWeEstC5Rg1gb4tc0rtboKfKRTmlcAEa7YwpurwJVVOLwIvb1wic0rqTa98M75MDXA8pigfhecNQDXJigtSZI6iDuwOsQA7B/gO2x7N0RdBRjohsVz4eGJrrEMpvbAH4BZdYwm5a3aBSfNgytTB8nT444RDgf4WgUuWABrkwaT2lgJnglcB+yad+0Ad86HfQJU8q4tSZLanw2sDnIj7DSU7Yh4dg7lbpkEi+Zms20mpJTtuLodeFL9Ykn5CrB+JsyeDXenzpJCCUrAz6pwoQPZpfyU4T0R3k/+cyMfngX7derPPEmS1Dg2sDrMWuh5FD4b4VUNLHM3cFgRbpnoAqND6H8JHFS/WFK+ItzWB/umzpHSEug6xd0YUhIRukrwQ+DZeT7gi1CZBM8+FG7IsawkSWpzzsDqMHNgaD68Gngv0IhRGY8GOK6W5hVAGX6OzSu1sAjf7/TmFYDNKymdAJU+WPwoFAPcn2Pdrgr8ZLDGC1wkSZI2ZwOrAwWIxexYwUuo7/DkGOB1vbC8lkVK8HWgv06ZpNwF+I8+eH7qHJIEcCSUe2HnCvxryC5SaLgIoQqfWgmfyaOeJElqfx4h7HCDcFg1Gyy9Wx2WO78I/6+WBUrwr8C/1CGLlLuQ7Wp8Yy9ckjqLJG3JUpg+A34GHJJXzQCDvdCbVz1JktSebGCJEjwVuIYabiiMcEURTq7lld1V8OoR+IJflGpR1S44ch4sSx1EkrZnDbx4GC4DenIqeVdvdkPhUE71JElSm7FXIACWwc498E0mdkPhqklw5Fx4eKL1V8KiQjbs1a9JtZwII10wdz78InUWSRqPMnwtZiMFGi7A0CaYuwhuzqOeJElqLzYL9GdroWdjNqvi1HF82h+rsGAB3DHRusvggJ7swWzeV31L9bCpAPvPhztTB5GkiSjBMwP8OMJOOZSrDsFzFsGPc6glSZLaiA0s/ZUIoQTvDdkcqu19fWwK8OxahrYvh5ldcFeAKRNdQ0roYWDvIqxPHUSSalWCjwDvosGPDwPEKpzRB59rZB1JktRebGBpi8pwSoRL2UZjKcDre2u4XWh0x9cfyecVX6ne7u+FJznPRVI7GYS9IgxE2KvRtSrwkX44u9F1JElSeyikDqDm1AtLqvBc4O4tvT/Ap2tpXkUIj2bzgmxeqeUE+FMRdrZ5JandzIc7e2HvSnYrcGxkrS44azB7sUySJGm73IGlbRq9ofA7wEGbvXn5LHj2bNg00XXL8N0IL6g5oJS/u4uwe+oQktRoJZgFrOCvHwPUXYDlvXBYI2tIkqTW5w4sbVMRbhmCReEvw1bvGoGTa2xenW/zSi3qnl7YM3UIScpDEdYX4WkR3glUG1UnwsIyrGvU+pIkqT24A0tjsg4mr4dPA58twg0TXWcAjgnZji6ppUR4oAi7BqikziJJeVsK02dAiQbuxgqw/kH4m8WwoVE1JElS67KBpdwMwEEhm3vlzj+1lAj3FmEPm1eSOt0KOKcLPkiDHkMG2DgTnjJ7KzM4JUlS57KBpVzcADOmwJ/Yxq2GUpN6qBd2snklSZkcZmONzISDDoRbG7S+JElqQe6EUcMtga4p8CtsXqn1bHoI9qpH86oE55ThFfUIJUkpPTYbCziPxtxU2L0efjUIBzdgbUmS1KLcgaWGK8FyoD91DmmchmfB3rUeY4kQyvBh4B+Be6vwjAXwx/pElKS0BmGvCKtiY25nrU6CRXOz3V6SJKnDuQNLDVWGS7B5pdZTnQlPq1Pz6iKy5hXALiH7npCktjAf7uzNZgR+sgHLF4bh56vh6AasLUmSWow7sNQwK+ElBfha6hzSeASIFehfAAO1rLMEuvaDzwQ4bQs1XtoLX69lfUlqNoNwcIQVEabXeekY4FW9cFmd15UkSS3EBpYaYgUc2AU349eYWswwHH8YXFXLGiWYRPZE6+StfMjdBZgz31u2JLWhMvwgwlH1XDMCBXhDr7tYJUnqWB4hVN0tg6ldsAqbV2o959XavFoCXcAX2HrzCmC3KvxnLXUkqVn1wvO64ARgpI7LjnTBb+u4niRJajE2GFR3ZfhVhNmpc0jjEeHyvm03ncayRijDp4HXjfHjT+6Dy2upKUnNKkJXGQaBQ2pc57YiHBhgqE7RJElSC3IHluqqBF+xeaUWtKZOzav/ZIzNK4AAn1rTmJu7JCm5AJUizK3Ce8hOAY5LBLrhQ32wr80rSZLkDizVzQp4dVd2dEpqJXcX69BEKsGHgHMm8KlfKcIraq0vSc1sEPaqwhpg17F8fIRKFY7uh+saHE2SJLUIG1iqi5UwpwA34deUWkiAoVtgx1NgYy3rDMD7Arx3op8f4YQ+uLKWDJLUCgbg2gBHb+fD7gZmF2F9HpkkSVJrsNmgmq2F6RuzB5tTUmeRxipArED/AhioZZ0yvC7WfivWH4dgziK4r8Z1JKnpleGkCEvILr34KwF+0gvPShBLkiQ1OWdgqSYRwka4EZtXajEj8PZam1cleGGET9YhzpN64D/qsI4kNb1euALYBbjzsbcFiF1wls0rSZK0Ne7AUk0G4NIAp6bOIY3TlcXsivcJG4RiFa4HdqhPJABOLMK367ieJDW1Mnw6wiu64Ih5sDp1HkmS1LxsYGnCVsCxXXB16hzSON1ehKfUssAA7B9gGbBHnTI95g89MOcQuL/O60qSJElSS/MIoSbkJtijy50iajEBhnphdi1rrIBdAlxL/ZtXAHsOw4UNWFeSJEmSWpoNLI1bhMKm7MbBJwxflZpZN/xtgKGJfv5S6O7KBg8fUMdYfyXC6QPwgkatL0mSJEmtyAaWxq2U7bzaLXUOaZwungsrallgBnwUeE6d8mxVgM+sgh0bXUeSJEmSWoUNLI3LIJwe4EWpc0jjEeDXRXhTLWsMZJcVnFmnSNuz9whckFMtSZIkSWp6DnHXmK2CfatwS7TxqdYycivMPAU2TnSBQTisCkuByXXMtT0xwAt6s3lbkiRJktTRbGBpTEowCbgHmJk6izQe3XDkoXDDRD8/QqEMvwb2q2OssfrtEBy8qIbmmyRJkiS1A3fSaKx+hM0rtZgAX6ileTW6RjXCxfXKNE7ftXklSZIkSe7A0hisgtdV4JLUOaRxurcIu9ZjodFdWD8BDq/HemN0WS+cGqCaY01JkiRJakruwNI2lWDParrdJ9JExSrMq9dio02kM8hpN1SEq4HTbF5JkiRJUsYGlrYqQiHAGoe2qwWdvwDuqOeCRbgZ+Nd6rrkV12+AU4ownEMtSZIkSWoJHiHUVpXg68ApqXNI43RrEZ7aiIWXQNf+8DOgvxHrRyhV4LkL4cFGrC9JkiRJrcoGlrZoORzTDd9JnUMajwDVB2HWYtjQqBoleBqwCphS56V/MwKHLYS76ryuJEmSJLU8j4bpCdbC9G74duoc0nhV4NxGNq/gz0cJ31fnZe+L8AKbV5IkSZK0Ze7A0hOU4Jdku0ykVnJbEfbNo1CdbyUcAv6uCEvrsJYkSZIktSV3YOmvlOECbF6p9cSRBs2l2pLNbiV8tMalYoDX2rySJEmSpG2zgaU/K8MhEc5KnUMarwpcmPfxu3rcShjgnF74cp0iSZIkSVLb8gihgD/frnYfMDN1Fmmc7inCbikKj37fLAMWjPdzA3ypF05tQCxJkiRJajvuwBIA+8NXsXmlFlSAZ6WqfQpUgFcz/qOEg5vgDQ2IJEmSJEltyQaWWAl/C5ycOoc0XhG+Px9+kTLDBI4S3jUCxy+CjY3KJEmSJEntxiOEHW4dTH4AHggwJXUWaZxGemFKyHZBJTWOo4TDBThqfnaDoSRJkiRpjNyB1eEehO/bvFIrinB2MzSvYFxHCc+0eSVJkiRJ4+cOrA5WhpMifDN1Dmm8IvyhD/ZKnePxSvBu4INbefcXi1mTS5IkSZI0Tu7A6lDLYWYVvp46hzQRs+CI1Bm25CG4EFi5hXfdMgJvyzuPJEmSJLULG1gdqht+GqA7dQ5pAm44EG5NHWJLFsMITzxKOBLglQvhwUSxJEmSJKnl2cDoQCvhTOCQ1DmkCYi3wtGpQ2xLEW4uwfuBD4y+6f/1wvKUmeqhDKdF+FzqHJqwDcA6YF2ANcBggPJ8uDtxLkmSJGlMnIHVYUowK8K9AbpSZ5HGK8Ln++D01Dm2Zyl0z4RlVdj4G3jOKU0ybL4WNrDa1q8iXB/gx8DSIvwhdSDlaylMmQn7BditCntE2CPADhG6A8xInS9Hm4BHgAcD3AHcvgl+twjuS5yr6ZXhgAhvTJ0jL71wVoDYqPVL8GZg/0at32Q+XoTbU4dQayrBpArs1wWzI+wcYAdgVoAZ0Y06uQjwv73w5ZxrqpOU4H+BOalzSBMwVITJqUOM1SAcXID1h8LvU2epBxtYHWNVhKsCXFWEwdRhVF+rYHYVFkRYEODgCLOBffDx4LbcBdwIrIlwYxVu6IffpA7VTAbhuVX4YeoceemFrgDVRq1fym4rPrJR6zeTAIe1wy51Nd5amP4ILAzZ90aR7PfXftioSirCFX3w93nW9D94BxmAV2HzSq3rrNQBxmM+/CJ1BmkC5gWYB7y3lL0q/m3gUptZrakEewZ4fsyOXh9Vgd0ee1/Dto+0nz2A5wHPC2Tb10twe4AfV7Pdi99z56Ik1VeEsAoWVuDEAM/aCPOd3yzwi6BjrIXpG909oRYVYH0vfDx1DqnD7EM2M/HMUrYD5XPAZUW4J20sbctgdhTwxcDLgMOjF/Y0wj4RXhWyFwarJfg58K0KXOHuLEmamAhhEPojnFzOfo/t4/ZgPZ4NrA7xCFxn11qtqgJvSJ1B6nCHABcBHy7D1VX4jz74WepQ+otydqzizVU4CehJnaeDFIDDgcO74MISrIhwSQ98fS48nDqcJDW7G2DGFHhNGd4KHJg6j5qbr8p1gAE4LkBf6hzSBP1pAXw9dQhJAPRE+PsAN5Tgp2V4UXR+UjIRQhlOLMFghJ9EeCk2r1LrD/Dfw/D7AfjPsrc+S9IWrYLZJfjYFPgd2UkLm1faLhtYbW4dTA6wJHUOaaKG4JTUGSRt0RERrirDTSV4dQkmpQ7USUrwwjKsjnAF2dwyNZdZAd4SYU0JvjMAC1IHkqRmsAr2HYAvVeBmslEFM1NnUuuwgdXm1sN3aaGb26TH+d0i+HHqEJK2aQ7wBeD/SvByd2Q11gA8owTXAtfg7p5WcUyAFWX4bgn6U4eRpBQGYbcSXFSB/wvwSuxFaAL8omljA9mtOc9JnUOqwTGpA0gas/2Ay8pQGoBnpw7TbtbB5BKcF7IbIY9OnUfjF+EFwPISfHsV7Js6jyTlYSl0l+DdVfg18HY86q4a2MBqU0uzge3fTp1DmqgItxXhptQ5JI3b/ABLS3DZIOyVOkw7KMH89VAGzsWjmu3g+AqsLcG7PXorqZ2thENnwErgg3hUUHVgA6tN7QCXBJiWOoc0UT3wktQZJNXk5VX4ZTmbA+SxwgkayG5lWkZ2VFPtYxrZE7rVK+FZqcNIUj2tg8llOL+QNa+c06i6sYHVhkqwTxe8JnUOaaIC3DkXVqTOIalmM2N2E9uPVmRHDDVGy2DqAHwtwCdwlmU7O7gAS8twwejueUlqaSV42nooR/hn3GWqOrOB1YYi/NRXu9XKqvDq1Bkk1dXiLrix7IsrY1KCPSfDj4M7UTtFiHD2DFi6GvZOHUaSJqoEJ5C9CO2uYTWEDaw2MwCvDbBP6hxSDe7ugx+mDiGp7qZH+HwZvrgWpqcO06wGYH+yF6L6UmdR7o4YgdVl+LvUQSRpPCKEEpwDfBNnXamBbGC1kRJMK8CnUueQalGB01JnkNQ4EV61EUoleFrqLM1mJRwasnlXT02dRcnsGuE7A3B26iCSNBY3wIxB+A7wIewvqMH8Amsv34qeM1Zre6g/+wUoqb0dBKwsw7GpgzSLEjyzkO0+3SN1FiVXCHBBCT7jXCxJzWwV7DgZro3wgtRZ1BlsYLWJ5XBIhKNT55BqUYF/S51BUm5mRPh2Cc5MHSS1gayh9wNgl9RZ1FTOmAGXLoGu1EEk6fHWwO4VuD7AYamzqHPYwGoDEUI3LHVqu1rccD9ckDqEpFx1AR8rZccOOtIy2DnANbjzSlv28v3hq+7EktRMVsKThuFHwNzUWdRZbGC1gUE4H9g5dQ6pFgX4auoMkpI5pwSfjB32uKQEk3rgcuCA1FnU1E6eDpd4w7SkZrAGdi/ADcAzUmdR5+moB4rt6IbsCMY5qXNINYrz4PTUISQl9aYyfL7DmlgXAYtTh1DzC3DaIJyXOoekzrYMpg7DVXjZiBLppAeJbWlKNvDa2QhqaRGWB6ikziEpuVPL8F+dsNOkBG8E3pw6h1pHhH8ue1OvpEQiFHrgi0B/6izqXDawWthKOBQ4MnUOqVYRXpI6g6Sm8cYyfDh1iEYa/f39sdQ51HoifHIQiqlzSOo8g/BB4MWpc6iz2cBqYQW4NnUGqQ7uWgB3pA4hqan8YwnelTpEI6yDyQW4FOhJnUUtaUoVLr8RdkodRFLnGIBTI5ydOodkA6tFjV47vnvqHFKtIrwndQZJTenDA3Bc6hD1th7eBxySOoda2lOG4L9Sh5DUGVbAfgE+kTqHBDawWtJSmBLgwtQ5pDoY7oPPpQ4hqSkVAny53EbNnjIsBM5KnUNt4WVlj99LarAl0NUFXwJmps4igQ2sljQdLoswKXUOqVYRrkydQVJTmxHh26tgx9RBalWCSRE+jxevqE4ifMKjhJIaaf/s2ODhqXNIj7GB1WJWwb4BTkqdQ6pVBH4Dp6bOIanp7VeBS1KHqIM3AU9LHUJtZbchOD91CEntqQTzyY69S03DBlaLqcB1qTNI9RDgd6fAxtQ5JLWEk8vw+tQhJmp0B9m/pM6htvSG0VstJaluYtYnuAQvHFGTsYHVQm6E44H9UueQ6iHAu1NnkNQ6IlxUatEdTCPZZRW7pM6httRVcBeWpDobhNcCvalzSI9nA6tFRAhD8OXUOaQ6GemFy1KHkNRSpgKXRAipg4zH6NH/M1PnUFt74SAcljqEpPawFqZHG+NqUjawWsQq+H/A9NQ5pDr5SeoAklrSkYPwutQhxqOa7TadnDqH2lvFI6qS6uTR7EWX3VPnkLbEBlYLWAZTq1kDS2oLVXhN6gySWlOEC0qwZ+ocY7EGdo9eVqEcBHh+GZ6eOoek1laCWRHelTqHtDU2sFrAZPgS0J06h1QnDyyAO1KHkNSydgQ+mDrEWAzDW8mOPkqNFiK8LXUISS3vjcDOqUNIW2MDq8kthz0inJQ6h1QvMWvISlItXlWGQ1KH2JYSTAPelDqHOsqpax03IWmCSjCJ7IUXqWnZwGpy3fADWmxgrbQ1ESjCP6bOIanl/f/27j3Ozqq+9/hn7ZmEBAgIiKigAgpVgkIyewIiVAKIogLiBetdTyvYqlh62oP1crxUVNraU6xFQawittpAi4Kip15SjhFCZk8gaPBCBAERuYjcTEIys5/zxx40Qi4zez/7+T3Psz/v12teL0yy1vrmZWbPfn57rd9qAB+NDrE1CV4LPDY6hwbKDmvhpOgQkqopg5cDe0XnkLbGAlaJjcOhwDOjc0h5SXB7gg3ROSRVXwbHtWBxdI4tsdefgrw6OoCkakrwJ9EZpG2xgFViGXwlOoOUs49FB5BUK6W84GQcnpY6H0JJhUpwTMudf5Jm6BrYGzgyOIa0TRawSmoFvAmvL1W9ZE0LWJLytXgcRqJDPFIGr8Pj/4oxDBwbHUJStUzAa7A2oArwH2kJZdBowCeic0h5yuCm6AySaqlUffWyTuHqtdE5NLgyOC46g6RqSV4apoqwgFVC18B76NxeJNXGEPxddAZJ9ZPBy6eOPpTCGBwE7BudQ4MrwfMzdwBKmqapn6ELonNI02EBq2RWw+x2p4Al1Um2ED4VHUJSLQ1PwinRIR7WcPeL4u0+Dn8QHUJSNUx2fm5Z9FYlWMAqmbXwT8Cs6BxSnjK4JTqDpFp7/RIYig4x5YXRAaQMFkVnkFQZR0UHkKbLAlaJLIN5Xl+qOkrwD92MWwHz884iqZb23KcEb8Cvgcfg7YMqgQSHRGeQVH5Tx43/MDqHNF0WsEpkDnwJ/z9RzaTO7YMfn+m4FsxqwHfH4NyWuxIlbUOCN0ZnmOxcQT4cnUPK7GcjaRpWwH54870qxGJJSayCxyX7Zqiebu9y3LHALglOyeBby2GPPENJqp2TVsEOwRk8tqVSSPbAkjQNDVgYnUGaCQtYJTEBl3tjjOoo6+ws7Gbcyx7+7wR/OAytlkciJG3Z3I3wvMgA9h1SiezagsdGh5BUbglGojNIM2EBqwSWwwGZLx6qqRu7uFVzKQwnOP4Rv7wXcEXLPnGStuzFUQtnkJKfZKtEMndhSdq2A6IDSDNhAasEZsGXozNI/ZDgwZNh3UzHzes0Y97cJ8fbAZ8eg3NXw+yeA0qqmxdG7WZuwT7ALhFrS1vwpOgAkkrvadEBpJmwgBXse3Bw1mmeJ9VOG67oZtymxwc3J8Epa+F7LXhyd8kk1dQTxqAZsXDyIUAlk2zMLGkrlsAQsHd0DmkmvCkn2By4JIsOIfXJEPyvmY5ZAkMJXrKtP5c6D6mtFryyCUu7CiipdhpwDDBW9LoJ9vbn+RZtAH4z9bWhD/PvAMwBdu7D3JWVefmJpK3YHx4/4YkGVYwFrEDXwOikVW/V18RCuH6mg/aGw5n+p8a7A99owelNOGema0mqpcMiFs1g34h1S+hnwP9L8L0Mrh+Gmw6CXyToe31vGcybA/ulTk+XxVmnqf/AHqNzB5akrdkAu3scS1VjASvQpL2vVGMJft7luBfNcMhs4J9bnYfWU5qwtpt1NfBWAH8fHWKGZgFvAI6NDlIyh041VC96Q9ReBa9XJmsz+GyCC5twdVSIw+EBYOXU1xcyaIx3duS9ncAG/4F2iA4gqbwaFrlVQRawgrRgMfDE6BxSv2RwcTfjErygyyVfA8y/Gl56CNzU5RwaUBn8fBQuis7RhX8bgxcmOB94QnSYknjsik5vyZ8UvO6OBa9XBu0E5wzD3xwEd0aHeaQEbeC/gP9aAc9tdL5PBqlX2ZzoAJLKK4NdQ249kXpgASvOl6IDSH32oZkOWN7ZwXBgD2sePARjY/CqUfhmD/NIlTEKl6+EgzK4IIPjovOUwRA8m4ILWBnsOGAPAne24eRFXV7WUbRFcMVyGBmGf2VwdmNtFx1AUnmlGr1GJBjLOkfYVaDUOcFQqFIWsMbhGRm8pQ1fWBTQiLXfxuHFmVs2VW8PNeG+mQ4agucDvT4D7pbg8hb89Qh8LOAYkVS4hXDXUjhhHnyOzm7EQTcCXFDkgmmwjmvdmsGRi+DG6CAzcSjc34KXJrg4gxOi8xTAHViStijBdnV5k5zBPzcL/rmvGKXs25bBacBpDVjRgh+OwfvHatQcNfObSzWXutz50Mhv98gw8HfjcMly2CmnOaVSWwwTI/B64DPRWUrg6UUvmJX0Q8E++E0GLxytWPHqYU3YuA5eC9wQnaUApXyfL6kc2t5AqAoq3Q+2a+AxwOs2+aWnJ3hfghtasGwcTqnyA+m1cBKwa3QOqZ/a8NmZjlkKwxkcnXOUE4fh6nF4Rs7zSqWUoD0Cp+AlIYUXsAbIX43CD6JD9OJweCDBX0TnkKRIqYS1AGlbSvePdhL+hM1vw28Az8ng3GG4owVLxuH4VucWpsqYgE9HZ5D6KQOa8PGZjtup07PmMfkn4ukZLG/BS/owt1Q6CdrrOzuxim5iXiZ7rR7Mpur99pMb4bzoEHkYga8C34nOIUmSpq9UBawlMAT86TT+6BzgFRlcCtzcgo+thIP6m653Y53jUbtF55D6KcFvEkx2MfT5uYf5nZ2A/2jBe7Pee2xJpTe1w+QNdPe9WAdpHewfHaKG/uXkGv2byjq3EkqSpIooVQFrH3gRM+919QTgL9pwbQtWteB/roQn9iFez5K9rzQYrulmUBuOyjvIIzSAD7bgmD6vI5XCCCzP4FPROaJkFrByl8FF0RnytD1cBkxE55AkSdNTqgJWgnf0OMWzgL9vw60P98sqyxGCqzoPzbtH55D6bRacPdMxqzvXzzf7kecRso0wXsA6UinMhg8C90fniJBK+mFWhd1T1cbtWzIfHgR+Gp1DkiRNT2kKWCtgPrA4p+l+2y9rHdz5cL+spYE3BM2CC6PWlgqUHQQXz3TQejicYvrZ/eAwuKeAdaRSOAjuBD4ZnSNCgj2iM9TM3dEB+uTm6ACSJGl6SlPASnAa/elNM5epflnz4GctOHsFHNyHdbZoFRwBPL7INaUgD3YzKIPn5h1kC75b0DpSaQzDPwEbo3MULbOAlbcsOkCf1PXvJUlS7ZSigHUd7JLgNQUstSdwWgOuacHqFpyxvIA3uBPwpX6vIZVB6v7WsyPzzLElGSwrYh2pTA6G2zL4RnSOolnAkiRJqpdSFLAegjcDOxS87AHAR4fhtnH45hi8flUfMqyCQzL7cGhw/OdMB0z1qRvpQ5ZHsYClATbjo71Vl9z5LEmSVCvhBawlMJTgLYERhjI4JsEFGzvFrM+PwTFZTscZ3X2lQZLBP890zNrOEdsi+l/9bBHcWsA6Uuls17ltbdCOEe4aHUCSJEn5CS9gPRVOAPaJzjFl5wxel+Cb4/DTlXB0L5NdC/tnsHdO2aSym2jCfTMdlArqf+XuKw2yZ8GvM1gVnaNg20UHkCRJUn7CC1gZvD06wxY8uQ039DLBxAAe2dDgyrq/oerwXINsmQUsDbQEV0VnKNic6ACSJEnKT2gBawwOpKDmzTOV4MtNuKXb8Ss6vTeemWMkqezGZjrghs4OiaL6X11dxDpSWSVYEZ2hYBawJEmSaiS0gJXgHeTUhtIKjwAAIABJREFUaypvk51rx7vWgCV5ZZGqoA3nznTMrzvFqyIeMh9qwOoC1pHKbE10gILNzqufpSRJkuKFFbCug12AV0etvw0/GIX/1+3gFuxMcceipFI4BL420zFD8Jx+ZHmkBNc1B6+BtfR7NsJN0RkKltbA7OgQkiRJykdYAWsDnApsH7X+NpydIOt2cAafwU99NUASrOtmXAaH5Z1lC+uMF7GOVGaHwJ10+b1aVWthODqDJEmS8hFSwFoCQ3QKWGX061nwxW4HL4U5CU7KM5BUAT/rctyheYbYkgQri1hHKrOpD2YeiM5RpHvgoegMkiRJykdIAeupcCKwd8Ta25LB+QfBb7odPw/+DyW43VEq2NKZDmjBU+lcdlAEC1hSR9c/3yqovRgmokNIkiQpH1GFlj8NWndbJofhnG4HT+0s++Mc80iVMAmf62LY0/POsQUb5sD3C1pLKrsHowMUaEN0AEmSyirBZHQGaaYKL2CNw9MyOLrodafpsgXdH4XiqfB2YFZ+caRqWARjMx3ThK+lzlHifj9kfn++D7LSwwZph7DHByVJ2jLfH6tyCn8jm3V2X5WywXkDPtHL+DZ8MK8sUoV0/cNvBM5rwJHAbfnFeZRr+zi3VDU7RAcokG/MJUnagrYf9KiCCi1gXQlzgTcWueYMXL8AvtPt4DF4XoJ5eQaSqiCDX/UyfiFc1YAF9PD9tw3X92leqYrKevtvP6yNDiBJUll1e4u4FKnQ66W3g1dmsGuRa05XBh+fuqGpKwk+k2ceqUJ+1OsEC+GupfD8efAh4IwcMv1WBj/Mcz6pqjJI47BzdI4C9VRclySp5u6ODpCj97c67XyqaiLBA1nntui1CR7M4OcZrBmCNQnWLIB7o0OWQaEFrKy8zdvvnQ1f6HbwVF+vJ+UZSKqKNvzfPOaZui3snWOwKsH55LRTZNgClgTANfAEYLvoHAWq0xtzSZJylcFdpezr0529p74qK9vMfyegPfXfLbg7g1aC77XhuxOw4rAB3EVXWAFrBRwMLCpqvRn6zEE9XC2ewZfyDCNVSdbdDYRbNApfXAnXt+E/gX17nG7twXBLHrmkqmv3/v1UNe7AkiRpCybhrkJ3s6hXj03wAuAFDWA2bBzrFLQuzWDJKNwYHbAIhfXAasBbi1prhtoZnNPt4OtgF2BhjnmkKskOhTvynnQhrNoAo/S+u+vH6XcfXEgDLcF+0RmKlCxgSZK0RYfAndgvsspmJXg28JEEP21BqwVnXA37RAfrp0IKWMthJ+BVRaw1Uxl8rZdq5UNwLiW9VVHqtwzW92vuw+CeG+FFwEfovj+dxwelKW04NDpDwTxCKEnSFkz1f/5pdA7lZgT46BCsacFlY3BMVsM6RSEFrFnwSsp7dffHux24BIaAk3LMIlXN7f2c/GSYbMK7EpxAd40LLWBJUxIcFp2hSG34eXQGSZJKbk10AOWuAbw4wTfH4bpxePOVMDc6VF4KKWBl8MdFrNOFHzXh290O3htOTwU3wpdKZmURi4zAV+lskZ3RjYdZDjckSnWwHPYADojOUaQG3BSdQZKkMsvguugM6qsDMzhvNvxkHN6YFdhCql/6/hcYgwOBQ/q9Tpc+mbo/mkSC9+QZRqqavG4gnI4m/Ghupy/WxTMY5rZoCRiGl1GDNy0z0RiQZqaSJPWgkA+jFW6vDD47Dj9owSuiw/SiiDezZd19tXY2XNjt4DFYlGDnPANJVbMrfKXI9ebDgyNwMvBOYHJbf34j3Nz/VFIlvCw6QMEm7vUIoSRJWzULxqMzqFDPAJa04P9Wtdl7XwtYq2F2gtf0c41uZfCFZ8Gvux2f4II880hVtB/cVfSaCbImnJXBMXRuT9mSBw+De4rKJZXV1bA/cGR0joLdshgmokNIklRmB8NteOR+EB071NmNdUbVjhX2New6OBHYvZ9rdCt1bg/synWwC/D0HONIVRT6cDgK/92GZoKxLfwRd19JwBCcTsXenPQqg59EZ5AkqSK+Ex1AIbYHPjoOX18BT4oOM119fUObwV0ZfINpHPUpUgZXNXs477sRPp1nHqmifhMdYBHcmsGRGXxhM79tAUsD7xrYG3hjcIzCJVgVnUGSpIqwgDXYjm3A98c6t76XXl8LWKPw36Nw3CTskeBU4Hv9XG+6GnBOt2OXwFDW2VkmDbo7ogMANGHtKLxu6jVmwya/ZQFLA28SzgTmROcoWmYBS5KkaZkNXwc2RudQqJ0TXDIO78ogRYfZmkKOFBwCvxqB85pweAPmZ/AB4GdFrL0Zd98/s1vMfs8+8KfAcI55pKpaEx1gUyNwHnA0cPvUL1nA0kAbg+cBr4rOESHBNdEZJEmqgqm+0P8dnUPhGhmcOQ5fanWOF5ZS4T0xFsL1o/D+EXgqcETWeeh8sMAI5y+G9d0ObsD/zjOMVFWpJDsqN9WEZQ1oZnBVBrdE55GiXA27JfgsJf8UrU/W3Qg3RIeQJKkqMviP6AwqjZMzuGIVPC46yOaENXVN0G7CslE4dT08kU6Pju8A7T4u28566F+1Ep6SlbQpvVS0DC6LzrA5C+EX28ORQ/Ct6CxShKUw3IB/B/aMzhJk5ckl670pSVKZDXfeN6yLzqFySNDcCN9ZDntEZ3mkUtxKdDg80IQLmnD0MDwZ+HPg2j4s9a1RuLHbwRl8Js8wUpU14fvRGbZkPmxYCHdF55CKthSG58HnUuc47UBKHoOQJGlGFsC9wCXROVQq84fh22UrYpWigLWpg+G2JpzdhAVtOBA4i5yaRfey+2opDLfhyDxySDXQz52SkrrQglnz4IvAa6KzRGrDFdEZJEmqmgSfis6g0pk/XLKdWKUrYG1qEaxuwjtvhD0zeF6CC4HfdDnd3Y/p4cjTDvDWBEPdjpdqpus+cpLydzXslsGlwMujswTbOBuujA4hSVLVjMB3E4xF51DpHDAM31wG86KDQMkLWA87GSZH4Vsj8Ho6xaw3pE5/m2y6c2Tw2f3goW4zNOA93Y6V6iaD+6MzSOoY6/R8uzbBC6KzREswdlD3H3RJkjToPhYdQKX0zDlwYVaC+tFwdICZasJ9wOeBz6+AJzXg1cD/APbf2rhG5zamrqyEp7Thsd2Ol2ro7ugAUp4SzL4OdonOMRMbOtu53wu8isG8bfBR2nB5dAZJkqrqp3DxvnA9cEB0FpXOiePwATrvPcNUroC1qUVwK50eWWeNw0jW2aH1Kh5xU2CCK0bgh92uk/VQ/JLqKMEt0RmknL14A9wTHUK9yeDL0RkkSaqqk2GyBe8HlkRnUSm9ewxWj8KXogKEbwHLywiMN+Edc2GvBCcAFwEbpn671+btf5hLSKk+fhQdQJIeYc0iWB0dQpKkKhuBi4EV0TlUSinBZ1rw9KgAtSlgPWw+bBiBy5pw8iQ8Efiz++E/up1vR3ibzdul3zcJregMkvQI7r6SJKlHCbIEf4a3jmvztgc+uySoRlK7AtamDoFfNeGTi3u4MS3ZvF16lFleUy+pfC6ODiBJUh2MwDjwL9E5VFqH7gvviFi41gWsXl0H+wK7ReeQymYh/CI6gyRt4kdNuDo6hCRJdTEXTgfWROdQaZ05Ds8oelELWFvxkFVnaXOy6ACS9AjnRweQJKlO5sODwJuAyegsKqU5GZybFXwTtgWsLVgKwwkOj84hldDG6ACStImJNvxrdAhJkuqmCcsyOCs6h0rriBa8rMgFLWBtwY7wdmzeLj1KgnXRGSRpE5csgl9Gh5AkqY4SvD/zAidtQYIPFtnQ3QLWFiR4d3QGqYwyeCA6gyQ9LME/RGeQJKmump3TF68E7ozOolJ6xj7wmqIWs4C1GcthD2zeLm1Wgl9HZ5CkKd8dgeXRISRJqrNRuLEBLwJ+E51F5ZPgA6thdhFrWcDajFnwz9EZpLJqw6+iM0jSFHdfSZJUgIXQyjo7bWzqrkfaez28sYiFLGBtRtapLkvajIa9ZiSVw6oRuDQ6hCRJg2IUvgKcHp1D5ZPBnxdxI+FwvxeomhUwCsyJziGV1QTcGp1BkjL46wTt6BwDZM44jESHyFsbdir0/m9Jqrgm/NNY57XzQ9FZVCrPuAaOAr7dz0UsYD1C8vigtFXDsCY6g6TBluCKJnw9OseAeUodb6GyeCVJMzcKZ47BfQnOxlNdmtKGU+hzAct/bJvIoJFgYXQOqcwegh9HZ5A00NoZnBEdQpKkQTYKn8g6fY8morOoNE5owc79XMAC1iZWwOuAoegcUpntDN+PziBpcGVwfhOujs4hSdKgG4ULgVcA66KzqBTmZPCyfi5gAWsTw/CB6AxS2c2He6IzSBpYdyd4d3QISZLU0YQvt+Ew4KfRWRQvwUn9nN8C1pRVsEMGT47OIZVZFh1A0kBLcHoT7o7OIUmSfmcRXDsEzeTtwIKjW7B9vya3gDVlEt6LvTylrWp445ekIBn85wh8ITqHJEl6tAVw70J4CfDXwGR0HoWZCyzu1+QWsKa04dToDFLZZRawJMW4bepmG0mSVFIJsiZ8tA3NOt5cq2k7sl8TW8ACroU9gcdE55AqwE9TJBWt3YA3HAK/ig4iSZK2bRFc+yA8G3gnNngfRH/Yr4ktYAGTcE50BqkiLGBJKtp7FsK3o0NIkqTpWwwTTTgrwbOA/4rOo0It7FcfLAtYQAbPj84gVUGCjdEZJA2US0bgo9EhJElSd0ZgTbPzvH1Egiui86gQwxkc2I+JB76AtRwOBbaLziFVQQYT0RkkDYxrZsHrkhegSpJUeU1YNgJHJjgeWBWdR/3VgIP6NO9gmwUfj84gVciG6ACSBsKaCTjuIPhNdBBJkpSfEfjqCCzM4EXA5XhJVC25A6tPMlgQnUGqigQPRWeQVHt3DsELD4U7ooNIkqT8JWiPwuVNeNEwPDmDDwB3R+dSrvbtx6QDXcBaCUcDw9E5pKrIvEVEUn/dkcHRC+CG6CCSJKn/DobbRuH9D8ATgCPonJD6ZXAs9c4CVt4y+Eh0BqlKEqyNziCptm4dgiNG4QfRQSRJUrGmbi1c1oR33Ah7AUcl+D/ACrxIqoqe3I9JB3r3kccHpRmzH42kfvjREBy3AH4WHUSSJMU6GSaBpVNftGD7NowmODx1moM/DXgqsFNgTG3djlfC3MNyPsEzsAWsFixmgP/+UjcyeDA6g6R6SXDFLDjpWfDr6CySJKl8mp1TIFdMff3WKnjcJDw1g50zmAfsDGwPzN3GlLt0EWMjnQ/zH5Pg/qxTZMvT/wJ2zXnOUMPwWODWnOccTAk+4r3c0sxk7sCSlK/z58Bb53vDqSRJmqGD4E46X5XXglOoXwFrVyxg5SODkegMUtUkHzIl5eOhBKeNwHnRQSRJkpS/Sdgu7zkHsoC1Ep7bHtC/u9SLZANFSb37QRtetwiujQ4iSZKk/mj0oYA1kLcQtuGs6AxSFU3CRHQGSZU1Cfz9ztC0eCVJklRvbXdg5WZhdACpioY8QiipO9cCb2nC1dFBJEmSVIiU94QDtwPrajgCmBWdQ6qihkcIJc3ML4G33ghNi1eSJEnqxcDtwBqCv43OIFXVpAUsSdPzAHDOBHz4ULg/OowkSZKqb+AKWHj7oNQLC1iStuYB4JwN8LeHwT3RYSRJklQfA1XAWgGH4fFBqRc2cZe0OTcAn5kN5z0Lfh0dRpIkSfUzUAWsBB+OziBVnDuwJD1sHfA14NMj8M0EWXQgSZIk1degFbAWRWeQqizBZHQGSaHWZ/DNBvz7Orj08M6RQUmSJKnvBqaA9X3Y4yGYG51DqrI0QK8ZkgDYmMEqYGmCb22A7x7W2XklSZIkFWpgHkbXw5kpOoRUcW2YE51BUt99KoNWA1bfD9cuhvXRgSRJkqSBKWAlODE6g1QDXoIg1d/odvAum7FLkiSpTBrRAYrQglkJdovOIVVdBttFZ5DUdyMPwdeWwbzoIJIkSdLDBqKANQlvycAThFKPkjuwpIGQ4Nlz4RsWsSRJklQWA1HAGoK3RWeQ6sAdWNLgyOCwOfB1i1iSJEkqg4EoYGXw1OgMUk0MTN88SQA8Zw5cvhp2jA4iSZKkwVb7AtY4HJFgKDqHVAcNmB2dQVLhDl8HX7eIJUmSpEi1L2C14W+iM0h10e6hB1Y2AK83Uo0dvg4uXwU7RAeRJEnSYKr9A2WCRdEZpLpowNxux47DV8bh8+Nw/BJ3RUpVdMQEfPnKHl4HJEmSpG7VuoC1Ch6Hb7SlPPVyhChl8LoMLt0Xbm7B2WOwILdkkvoug2Nmw1csYkmSJKlotS5gbYQPRGeQaqbr40MJHtjkf+4JnJZgZQtWt+CMFjyh93iSCvC82fDlpTAnOogkSZIGR60LWMCJ0QGkOsl62HXRhvu38FsHAB8Fft6CZeNwyjKY1+06kgpx7DyLWJIkSSrQcHSAfkqwRxYdQqqXrh9WH7EDa3MawHMyeM4c+McWfDXBhffD1xfDRLfrSuqb5+8Il9wAL9kPHooOI0mqnN2Xw17RIapoGCabcHt0DmlrGrA+7zlrW8C6Co701jMpd9t1OzDBAzMoKM8FXpHBK+bB7S24CLioCcu6XV9S/hK84H5YshpeMR82ROeRJFVHBpfW9mG0/+4BdstrshYcCxw1kzEJZrf7cDtxggQ8Ju95ATKY1+hDDSTrfMjfa3/QPfPIUiZpyydwulbb14xZ8K7oDFINze52YBvuT90NfQJwGnBaC36YwRLg86NwY7dZJOUngxPWdXZivdSdWJIkVdLhwBkzGZDRqTRVSaKTW8VIcF/ec9Z5h9Kh0QGkGuql6J1HBf4ZCd6X4IYWLGvBO67O8dMnSV174b3wby2YFR1EkiRJ8YYsYE3Papid2QRa6oeuH04b2+6BNcPpeA7wj0Od5u+XteAVq3vYIaaB9z3gx9EhqizBS4F/W1rj3d2SJEmalvXPhHvznrSWBaz18OaqbWeUKiJ6B9bmzAFeDCxZB78cg3NbcHhWvV3NCpTBHcNwNB5N7dXL58EXLWJJkiQNtJ+nPpzYrGUBqw1vic4g1dRQtwPb+e7A2pJdEpwCfHccbmrBR6+B/QpYVzVwMNwGLAZ+Fhyl6ixiSZIkDbaf92PSWhawGrB/dAapjlIPrxkJfpVnlml4CnDGJPx4DC4seG1VVBNuGercxOPV1L15+Ty4YEkPRW9JkiRV1s39mLR2BazlsEdmHxypL3o5ljcJd+WZZQZSgucHra0KWgA3ZJ2dWL+MzlJxr97XnliSJEkDJ4Pr+zFv7QpYs+F90RmkGuu6gLUI7gE25phlJnZvwc5Ba6uCRuHHU4XPe6KzVNzJO8GF7sSSJEkaHA0LWNPThhOiM0h1lnX5IDrVxK/oY4Sbrv+0qLVVTSNwXQbH0b8LCAZCBn+0D3w6q+F7DkmSJD3aBKzux7x1fDP5+OgAUp1d1VtT9DtzCzJDbZu5qwujsKIBLwAejM5SZQne1ILzLWJJkiTV3p2HwE39mLhWbySvhn3wmILUV3PhD7odmwILWMkClrq0EK5KcCKwLjpLlSV400p3YkmSJNXdVf2auFZvImfBGdEZpLqbgH27HZvFNXK3gKWejMB3MngZsCE6S5Vl8D9Wwjm9XAghSZKkUru6XxPXqoDV7vQqkdRHjd56SYXtwMosYKlHo/B14JXEXUZQCxmcOg7nWsSSJEmqnzZ8q19z16qABTwxOoBUdxns3cPYsB1YWMBSDprw5QxeBUxEZ6m4N1vEkiRJqp27R2G8X5PXpoC1HPYAhqNzSHWXergooRG4AwvY7UrYNXB91cQo/EeCNwPt6CwV9+Zx+EeLWJIkSfWQwTdSH98j16bgMwTvjM4gDYI27Nbt2Ax+kWeWmdoO9geWR2ZQPYzA51owBzgHCzC9OG0lTAJ/ER1E03Ir9TtCuzM9/FyTJEm/04BL+jl/bQpYCY6PziANiHk9jL0ltxRdaMN8LGApJ034VAtmA2dHZ6myDE4fB0YsYpVegqNGYE10jjy14DT8HpYkKQ/3P9TpGds3tTlCCDw5OoA0IOb2MDa0gJXgmZHrq36a8PEE747OUXUZnD4GfxudQ5IkSV378mGwrp8L1KKAdRM8BpgVnUMaBKmH77Um3Afcn2OcmbKApdyNwIeBD0XnqLoEf9WCv4/OIUmSpJlLcH6/16hFAetXHjuQCpNgqMcpbs0lSHeeFbi2aqwJ7wXOis5RA/+zBX8XHUKSJEkzcv1CWNbvRWpRwAJOig4gDYpebwxLsccIHzt1Y6mUuxH4azpN3dWbv2zBB6NDSJIkado+kSDr9yJ1KWDtGx1AGiRXwH49DA/tgzXkMUL1SYJsBN6WwXnRWWrgvePwvugQkiRJ2qY7gQuKWKjyBayp3SDbR+eQBsmOsLjbse3YI4RgAUt9lCBrwp8C/xqdpeoyeH8L/nd0DkmSJG3VPzRhbRELVb6A1YLnRmeQBs0kjHY7tgE355mlCxaw1FcJ2g/AGzP4z+gsNfCBcXhXdAhJkiRt1t0T8MmiFqt8AQt4W3QAadAMwf49DF+TW5DuWMBS3y2GiQR/lMFl0VmqLoMzx+Dd0TkkSZL0KO87tMBb5itfwErw7OgM0qDJYK9ux86CH+eZZaYSzF8Kw5EZNBiasPFBODnBt6KzVF2CD43DX0XnkCRJ0m/9CPh0kQtWvoAFPC46gDRoEuzS7dhnwa+Bu3OMM1Nzd4IDAtfXAFkM6zM4Efjv6CxVl8Hftjo3PUqSJClYBm9vwsYi16x0AWsV7IA7KaTCZZ3vva4l+EleWbrRhmbk+hosTVg7C14MLIvOUgMfbsEZ0SEkSZIG3AWjAacMKl3AmoC3RmeQBlRPheN2/DHCkcj1NXgOgt8MwfHANdFZauAjLTgtOoQkSdKAuh34y4iFK13AyuCk6AzSgOrptSPBDXkF6ZIFLBVuAdwLHAv8IDpLxSXgH1vw9uggkiRJAybL4E+aQS1hKl3ASvAH0RmkQbUCntTt2AzGgPU5xpmpg1owK3B9Dagm3N2G5xF8jLYGEnB2C/4sOogkSdIA+dgoXB61eKULWBnsHJ1BGlSp8xDelanz0o/P4A3AV4GJ3IJNz5w2zC94TQmARfDLYTgKuDE6S8Ul4BMWsSRJkgqxDHhXZIDKFrBWw45UOL9UdQlGexnfhPtG4fNNOH4Y9gb+HPheLuGmwT5YinQw3DYJxwC3RmepuAR8YhzeHB1EkiSpxm5uwEuLvnXwkSpbAFoPb4zOIA2ylOMOpoPhtiac3YTD23BgBh8Abspr/s2xgKVoh8BNqbMT6xfRWSouZXBuC94SHUSSJKmG7kpw3EK4KzpIZQtYGbw0OoM0yNqwTz/mXQSrR+H9I/A04KgE/wLcl/c6CZp5zynN1AisyTpFrDuis1RcAs4Zg1Ojg0iSJNXIfcALRuCH0UGgwgUs7F8jRdutn5MnaDdh6Qj88c6wR4ITgIuADXnMn8HBLdg+j7mkXozCj1PndsJ7orNUXEpwTqvTW0+SJEm9WZvg+CasjA7ysCoXsHaNDiANsgZsV9Ra+8FDI3BZE04egj0yeEPqNILPeph2FrAwp4hST0bgugyOA+6PzlJxDeAz4/Da6CCSJEkVti6DE0fgu9FBNlXJAlbWyT0cnUMaZBk0Mhgqet0FcO8ofH4EnteGp9Bp/n5tN3MleHa+6aTujcKKdqeI9WB0loobyuBzFrEkSZK68ivg2Kmb40ulkgWsa+Ho6AySYFXw9+IiuHWq+fuCNhwInAXcPt3xbTi0f+mkmVsEVzbgJcD66CwV93AR6zXRQSRJkipkzRA8uwnLooNsTiULWBPw8ugMkmAjvDg6w8MWweomvHME9gKOyOA84IGtjUnwnGLSSdO3EL4NnAg8FJ2l4oYyuKAFr44OIkmSVHYJrgSevQBuiM6yJZUsYCVYFJ1BElDCm/ymmr8vG4VTH4DHbdL8feNm/vgeKzvHEKVSacJ/JXgVMBGdpeKGgAvG/OBLkiRpSzLg7J3gqCbcHR1maypZwAKeHB1AEiTYOzrD1iyG9Q83f98Aj09wKvA9Nmn+PmkfLJXUCFySWcTKw3CCL43BH0UHkSRJKpk76Nw0+Of7VWD3f1ULWDtFB5AEwC7RAabrMLhnBM5rwuEN2Ad4J3CDjdxVZqNwMfAnQDs6S8UNJfh8q9NfTJIkSXAJcGATvhYdZLqqWsDyBkKpHLaLDtCNhXBzE85qwv4N+IfoPNLWNOEC4G1ssnNQXZkF/PtY51ixJEnSoLoNeE0TXlr2I4OPVLkC1jiMRGeQ9FvpBtg9OkQvFsLN0RmkbWnCJ4HTo3PUwOwEF1nEkiRJA2gD8PH18Iwm/Ft0mG5UroDV9kpsqVTug9dHZ5AGQRPOzuA90TlqYHaCJWPwwuggkiRJBciAiyfh6U14x+HbuKm9zCpXwEpwWHQGSb+T4AXRGaRBMQpnJjgzOkcNbJfgknF4cXQQSZKkPmkDF7XhmU14xSFwU3SgXlWxgLVvdAZJv+eA6ADSIBnp7MKyd1vvZmdwUQuOjQ4iSZKUowcTfKIB+zbh5EWwOjpQXipXwAJ2jg4g6XcyeGx0BmnQjMBfAudE56iBOcClHieUJEk1MJ7g1PXwxBF4ex17/VbuNr+sc4uQpPKYHR1AGjQJsgze1oK5Cd4Unafitktw8Uo4fiF8OzqMJEnSNGXANcBXE1w4AmuiA/VbpXZgZTAEpOgckn7fChiNziANmgTZTfBm4IvRWWpgbhsubcHi6CCSJElbcQdwcQZ/DOzZhJEmvG8QildQsR1YK+C5Q9EhJD3KEPwZ7gKRCncyTC6F1+/Y2UX00ug8Fbc9cNkKeNEiuCI6jCRJGmgPAT/LOo3Xvw+sSLCiCbcE5wpVqQJWggcSXB2dQ9Lvm4CV0RnUX224sgGnRufol6zCt7IshonV8Kq18NpGxX6ul1ED9swgpc62/JmM+zCwe59ilcJGuDM6Q94y+E6NX9tuL2KRCVjdgDcWsVYZpM6tXv2c/8xRWgWuAAAAwElEQVQMHt/PNVR9CdbnOV8DLs3g53nOqRm5F1iXYG0G9ya4fQHcPtP3IpIkSZIkSZIkSZIkSZIkSZIkSZIkSZIkSZIkSZIkSZIkSZIkSZIkSZIkSZIkSZIkSZIkSZIkSZIkSZIkSZIkSZIkSZIkSZIkSZIkSZIkSZIkSZIkSZIkSZIkSZIkSZIkSZIkSZIkSZIkSZIkSZIkSZIkSZIkSZIkSZIkSZIkSZIkSZIkSZIkSZIkSZIkSZIkSZIkqUL+P7f4wcThCxI0AAAAAElFTkSuQmCC;" vertex="1" parent="1">
          <mxGeometry x="279.5" y="410" width="90" height="33.97" as="geometry" />
        </mxCell>
        <mxCell id="dlHqHgkgmX-34859HV9w-80" value="Mysql" style="shape=image;verticalLabelPosition=bottom;labelBackgroundColor=#ffffff;verticalAlign=top;aspect=fixed;imageAspect=0;image=data:image/png,iVBORw0KGgoAAAANSUhEUgAABAAAAAISCAYAAABS070pAAAABmJLR0QA/wD/AP+gvaeTAABtzklEQVR42uzdeZxcVZn/8W86ZCHs+77IoqAgCi4oM6DIKIICoq0DId333GpKxYk6LoMbcgXprvuc6ipoRiGiuKFgVBRxQXQcVMDfACLIKqtJV4edsITs6f790Y0GSCd9q25V36r6vF+v89+YrnrOKaaeb517jgQAAAAAAAAAAAAojHdWYEcr8J9QEJfl7Hty9pt/jDC+VC4+T86+oMCfKmdHKChvSeEAAAAAAMi6oHCgnBXl7E45G6ly/F3OrpCzLynwb9HcgRkUFgAAAACATDT+8aFydk0NTf/6xnMK7VcK40+qu/Aqig0AAAAAQKN19W6j0H9Hzobr1Pyva9wuZ19UUNyPCQAAAAAAoN6cHSFnDzew8X/pCO1WhfEn1dW7DRMCAAAAAEDaQp+Ts5WT2vy/cCxTYJcosH9lcgAAAAAASIOzD8jZmgw1/y8et8nFTp3RdCYLAAAAAICqmv/Cm+VsRYab/7VHRWH8SYXxZkwcAAAAAAATbv57t5OzwSZp/tceixXEZykob8kkAgAAAACwIWF8aRM2/y8MApx9UbMHNmcyAQAAAABYl1zx8AZf9VfP8YRC+4w6SxszsQAAAAAArM3Z/2uR5n/tsVAu7lYUdTDBAAAAAACM/vo/0rrD3yLnj2SiAQAAAADtLbSf1NhkL5Wz+xTaTaNX9NnCTD5OEMaXKox3ZsIBAAAAAO0nX9hCzpZX2VT/Xc5/UEE08yX/7uyBzZUrHq7QPiNn18jZqowEAc8o8J9QFG3E5AMAAAAA2ofzp1TVRIfWlejZ+nxhC4X2Xjm7SKE9mYEg4DblioezAAAAAAAA7RIA/Dhh4zyswL+7pr8ZRDMVxrPl7HeT/KjAsJx9m2sDAQAAAABtEADYgoRN8/+k+vcD21ehDcjZM5N4SOC9cnYwiwEAAAAA0JpOizZN/At8GB9Xl9cye2BzBfaxsWZ8MoKA5XL+gywKAAAAAEDr6S4ekrBJvk8amVLX1xRFHXL2Ljm7elIeDwjisjrnT2VxAAAAAABaR+iPStYc2yUNfX1B4UAFdskk3CDwU83xm7BAAAAAAACtIbCjEz4rf/6kvM4e/zKF/itytrSBIcCf1VXYnUUCAAAAAGh+OX9swh0A35zU19tzzg5yvlfOnmpQCPConB3BQgEAAAAANLduOyxhQ3x9Jl53UN5SzuIG7QhYKWf/WfezDwAAAAAAqJueeNfEzXC+sEVmXr/r303Of0vO1jQgCLhG3YVXsWgAAAAAAM1n9MT9lcmuAbT3Zu59dPlXy/mrGhACrJbzP1ZoA3LxlxXGn1ZoeYX+/XKFdyiID5UrvlJdpV0UxpuxwAAAAAAA2eHszwmb4O9m9r2M3mpwV8OvDhx/rFFoT8rZ/XL2Fzm7Rs5+JmffVWD/PXaewUnqKu3CQgQAAAAA1FcQlxM2tSs0x2+f2fcTRRspsI/J2dMZCgImMh6WsysVxKeru3iIoqiDxQkAAAAASE/o35+4WQ3jT2Y/2OjbU86ubLIQYO3xkEKbr8DmKucP4BBCAAAAAEBtcqWt5WxFwuZ0oeYOzGiK9xfEJ8jZgiYOAp4fj8jZZQotr1zfPixcAAAAAEByzq5IvgvAPtI07y+MN1NgP2qBEOCFIYzz31JoXQrjnVnEAAAAAIANC/y/V9GAVtRZ2rh53uTIFDn7r9GT/FsqCBiRs2E5u0GBfY6rCgEAAAAA6wkAopljh9AlPQsgar73Gv+bnD3VgiHA2vPyNwX+THX1v5zFDQAAAAB4odCfUUWzuawpn0fP+QNGt9C3cAjwz3GDQvuITos2ZZEDAAAAAKR8cVs5ey5xgxnYr5vyhPow3lkuvrlNQoAROVssZ15B354sdgAAAABod87iqprLwJ/anKFHNEuh/04bhQAjY2cgfFuufzcWPAAAAAC0q3xhCzl7vIqm8rmmft7c+VPkbEmbBQEr5Wye5vjtWfgAAAAA0I5GT8qvoqH01yk/b1rTvu/AXiPnr2uzEGBEzh5TaHlFUQeLHwAAAADaSWc0Xc7urPJRAGvuNz8yRc7eJWc/k7P71zEWt3AQcKNy8Rv4AAAAAABAOwn8W8bulk9+H30YH9fStenxL1MQn6jAn6kg/rqc/ULO/jp2q8DTTR4CrJGzi5QvbsuHAAAAAADahbNvVNlEPqUwfkXb1i2KOnRy31YK+/aSs4Pl/JEKrFNh/CE5/3mFcb+c/9bYLoPbMnn2QGhPKohPU+f8qXwQAAAAAKDVzR7YXM4erLKJvEuzBzaniBOUL++kID5RLj5vLBTISBgQ3yxXeDMTBAAAAACtztkRY9vCq2kgfyqNTKGIVcj17aPQPqPQbspAEDAsZxfp5L6tmBgAAAAAaGVBfFYNzeMXKWCNwr69FMSny9kdkxwEPCRnH2BCAAAAAKBVdc6fKmf/W/WhcoEdQxFT4vwbFdgFk3wbwS+UK+7BZAAAAABAKwrjneXskSobxsdpGFPWWdpYYTxbzv40SSHAEjn7Tw4JBAAAAIBWFMT/VvV5AIH9n+YOzKCIdZCL36DALpGzFZNwW8BNcnYwkwAAAAAArcbZ2dU3i/4rFLCOAttx7LyGJxocBKxSaOcQ8AAAAABAK4miDjn7RdXNYuBPpoh1dlq0qQL/CTmrNDgIuE3dxUOYAAAAAABoFUF5S4Xx36psEp9Rt+1NERugM5qu0Ofk7L6G7gZw8ZfVGU1nAgAAAACgJUIA27eGk+j/TIPYQFHUocA65ezuBgYB9ylXPJziAwAAAEArcP54ORuu7lGA+CwK2GCd0XQF8WkNfDRgpYL4LMIeAAAAAGgFYRxV2RyukfNHUsBJkJ83TaHl5ezRBgUBdyqw11B4AAAAAGhmUdSh0H5VZWNYUVfvNhRxkpzct5VCX5CzZQ0IAZYpiE9XFHVQeAAAAABoVqPXzy2qsjH8HgWcZD3x/nL+qgbtBric0AcAAAAAmpmzI+RsdVVNYRjPpoAZEMQnytnfGxACVHj8AwAAAACaOgSIP1tlQ7hEXf0vp4AZkJ83TYF9TM4/W+cQYFjO5ikfzaLoAAAAANBsOudPVRD/vrpdAHatOudPpYgZEdi+NZztkGTcoKBvTwoOAAAAAM2mJ95Vzh6vLgTwZ1DAjAn9e+r+WEBoTyqMj6PYAAAAANBsnD9+bIt30mZwhboLr6KAGZOPZsn5XjlbWedHAorKz5tGwQEAAACgqUIAK1a9JZxHATI6p8VXytn/q/MjAX9Wt+1NsQEAAACgWeTnTZOzP1XVBAb2MQqYUVHUodDycrakjiHA0wqsk2IDAAAAQLMIivtV2Sg+ra7SLhQwy3NbOFDObqzrIwFBfJaiqINiAwAAAEAzcLGrsgG8nOJlXBRtpNA+I2fL6xgE/EyzBzan2AAAAADQFCGAfb/KWwGOyu6bGpmisG8vBfEJcvYpBdYnZxcptPkKbb5c/AO5wpvbYn7DwkFydnsdQ4C7FMav4IMEAAAAAFk3e2BzOVtQReN3p6Joo2w1u/7jo2cb+GcndKuBsw+3xRzn501TGEdytro+IYB/Vi5+Hx8mAAAAAMi6nD+2usYv7s7U+4iijeTsroTN6w91ct9WbTHPgR0tZw/VaSfAGjn/eWlkCh8oAAAAAMgy579VxS+/92ZuF0Dg311F8/p3Of/G9pjn3u3k7Ir6PRLgf6g5fhM+UAAAAACQVUF5SzmrJD8LwLqy1+Tad6toXlco8Ke2zXw7/9GxxyDqEQTcqHx5Jz5UAAAAAJBV1T0KcHvmtn2H8WZVHnw3LBe79pnv+A2jux/qEgIsUFA4kA8VAAAAAGSV8z9M3OwF8b9l7n10295y9ngVjetyddvebTPfo2HJZXUKAZbI+eP5UAEAAABAFvX4l8nZssT3wWezuX1rddvc4x+03byHlq/TIwGrFcSn88ECAAAAgCwK4nLiJi9X3COj72XO6Nb+hO+nx7+s/ebd/lVBvKguuwECb4qiDj5cAAAAAJCtRnBHOXsu2WGAvpDZ9+PsU1U0rRe25dx3lXaRsxvqEgKE8aXKz5vGBwwAAAAAsiSM+xM2eI9r7sCMDIcASW8GWKqeeP+2nPsgmqnQf6dO5wL8Qp2ljfmAAQAAAEBW5Ip7yNmahM3dBzL7fjpLG8vFNye84vDatl4D9TsX4Ebli9vyIQMAAACA7DSAv014G8DPmyDUWJzsisN2XwOFf5Gzh+sQAtyprtIufMgAAAAAIBsBQJCwqVsp17tdtt9THCX6pRpSYPvK2T11CAHuluvfjQIDAAAAwOQ3y5sl3wLuP5rp95QvbCFnT03w/VzJIni+bsVt5fx1dQgBFqir/+UUGAAAAAAmm7PfJWzo/tIEwcZEDzj8KgtgLZ3R9DodDviouvyrKTAAAAAATGoA4D+fuKHL+i+6PefsIGdLJ3AIYJ4F8CJR1CFnvg4hwENyxVdSYAAAAACYLEHx9cnve7fPZD/YsHkbPtTQXsMCGEdoH5Gz1SmHAA+ru/AqigsAAAAAk6Fz/tQEz8w/P27IfgDQv9v6zzfw9zL5G6qhP17OlqUcAjyioHAgxQUAAACASWn07IrkuwD69mqC9/W99byHs5n4CcjFb5Czx1MOARYrF7+B4gIAAABAo4XxJxM3cYF9LPvNqz9AzobX8fqXZP46w9YPAR5TWDiI4gIAAABAIwXF/ao4B+Da5nhv9qN1vP4PM+kJhX17ydn9KYcAj3MmAAAAAAA0mrO7EzZvaxTGO2f/ffk3vuh1X64o6mDCq5Av7yRnt6UcAgypx7+M4gIAAABA4wKAYvLmzX+wSd7b/4y95l8oiGYy2TWHAHemHALcrTl+e4oLAAAAAI3QbYdVcQ7Ar5vjvcVvk/Pnq3P+VCY6BYHtKGd3pRsCxDcrX9iC4gIAAABAIzi7J2Hjtkr54rYUrh3XSu92Cu3WVEOAwP5PYbwZxQUAAACAujd1vreKwwC7KFybqs9OgF8qP28axQUAAACAehq9Ni9p0/ZTCtfGRs8ESDkE8N+SRqZQXAAAAACop+Tbupdqjt+EwrV9CHB3uo8D+DMpLAAAAADUk7NPJX8MwL+fwrW5OX771HcCBPFpFBYAAAAA6iWMd5az1ckCgPhSCge5/t3k7MEUQ4DVCuPjKCwAAAAA1K2Rs98lbNSeURDNpHBQrm8fOXsoxRDgGQX2GgoLAAAAAPUJAHqquMLtGAoHSVJQOFDOnkgxBBhSV2F3CgsAAAAAacuVtpazFQmbtAspHP65hoqHy9lzKYYAN6qztDGFBQAAAIC0ObsiYYP2kKKog8JhrTX0rsTnSax/l8klFBUAAAAAUm/e4vclbtByxcMpHF4g8CfL2XBqIUDoz6CoAAAAAJBq4xbNlLPFCa9tK1M4rCMEODPFRwGG5eL3UVQAAAAASJPzFydszv4ujUyhcHjpWrJvpBcC+GeV8wdQVAAAAABIrWkrvCP5Fu3CQRQOL9EZTa/iesn1jbuUL2xBYQEAAAAgDVG0kZw9nPDX2V4Kh3UKylvK2e3pHQoY/5yDJwEAAAAgLc5KCRuzhTRlGFdXYffkoRKBEwAAAADUXxi/rorG7AgKh3G5wpvlbHl6hwL64ykqAAAAANRsZIqc3Z2wKfsqdcN6BfFpKZ4H8Kh64l0pKgAAAADUKow/mewgQHtScwdmUDisl4vPSzEEuIE1BwAAAAC1CmxHOVuV8NlstmVj/fLzpimIf59aCBDG/RQVAAAAAGrl7KfJGrL4lxQNG15XvdvJ2d9TOw8g9O+hqAAAAABQi8C/O2EztkZh314UDhteW8XXp3go4FPqtr0pKgAAAABUK4o65GxBwmasSOEwIc6fkt55APHN6oymU1QAAAAAqLpJs7MTNmOLlY9mUThMSBB/PcVDAWMKCgAAAABVN2i27+i964kOAzyFwmFC5vhN5Oy2lAKA1eq2wygqAAAAAFTL2TWJt2MDExXGr5Czp1MJAQJ7QLMHNqeoAAAAAFBdAPCB5M1Y4R0UDhMWWGd6VwP671BQAAAAAKhG5/ypCuyBZL/Exr+ncEjE+fNTCwGCeA4FBQAAAIBqhPGnEzdhPI+NJOYOzFBot6YTAvhnlevbh6ICAAAAQFJdvdvI2dKEv8L+nMIhkVz/a+VsRTqPAthvpZEpFBUAAAAAknL21SoasSMoHBIJ40+mdx5A/CEKCgAAAABJ9cS7ytnyhFuxb1EUdVA8TNzIFDn7WUohwHM8CgAAAAAA1XB2URVbsd9L4ZBIvryTnD2WUgjwGx4FAAAAAICkwr695GxVwgbsHnVG0ykeEnHx+1J7FMD5D1JQAAAAAEjcmNk3qtgF8BkKhyrW2mUphQDPKFfcg4ICAAAAQBKj27OXJGzAlqrHv4ziIZGgvKWcDaYUAvwvjwIAAAAAQFLO4ioasMsoHJKHAPGJqT0KEPhTKSgAAAAAJHFy31YK7cnkjwL4oygeEnP2/ZRCgMXKl3eioAAAAACQrCn7zyoasCHlSltTPCSSL2whZwtTOhDwxxQUAAAAAJLoLG1cXVPmL6Z4SCy096b3KIAdTUEBAAAAIIkgnlNVAxb691M8JF9v9qOUQoAFOi3alIICAAAAwER1zp8qZ7dX0YA9rJ54VwqIRLoKu8v5Z1PaBdBHQQEAAAAgiZw/tsom7Eblo1kUEIlUd/bEusZK5fwBFBQAAAAAEjVl/ofVPQpg17IVG4lEUYecXZ9SCHCDOudPpagAAAAAMFG54h5ytqS6Jiz+pYJoJkXEhHUXD5Gz1amEAKHlKSgAAAAAJOHsv6pvxAgBkHi9nZvSLoDHdXLfVhQUAAAAACYqP2+aQru1hl9if0UIgImvt8IWcvZwSiFAiYICAAAAQBKu+Eo5W1ZDI/YbzR2YQSExIdVeQ/nSsUrdhVdRUAAAAABIFALYF2tsxi6kiJiQ0QMBb0gnBPA/pKAAAAAAkMToowA31XgwWxeFxISE/k1yNpxCCDCsoHAgBQUAAACAJILifnL2dA3N2GIFtiOFxARDgO+kswsg/gHFBAAAAIDEIUD8b3K2tIaG7CKKiIkFAPHOcvZMCiHAGrniKykoAAAAACTl7Ag5e6rKZmwp17NhwgL7XCq7AIL46xQTAAAAAKprzF4jZw9VdxZA/EkKiAnJR7PkbCiFEGCpunq3oaAAAAAAUFUIUNxPzh6v4mT2WygeJiy0fEq7AE6nmAAAAABQdQhgR1dxWvsKRVEHxcOERNFGcnZ3CiHAAkXRRhQUAAAAAKoPAX6U/NfYaCaFw8TXWHxiKrsAQnsvxQQAAACAqpsz/5bEd7PzSywSGZkiZ/8vhRDgGmoJAAAAANWaOzBDzpYlaMIep2hIbPT2idp3AXT5V1NMAAAAAKhGt+0tZ8sTbMO+lqKhKqH9NoUQYB6FBAAAAIBqOPtNwgasRNFQ3VrzR6YQACzR7IHNKSYAAAAAJGv+q9iW7U+hcKh+zcU3134loIUUEgAAAACSCG1+8uaruB+FQ/UBgJ2Uwi6A6ykkAAAAAEy4EevdTs5WJmy8BikcahJFG8nZgppDgO7CqygmAAAAAExE4E+tovG6kMIhhbV3Zs0BQGgDFBIAAAAAJsLZlcm3/8cnUjjULOzbS86GawwBHtfcgRkUEwAAAADWZ3Qb9jMJG66Vyhe2oHhIhbP/rf0wQP/vFBIAAAAA1icovr6KhusXFA7prcF4TgqHAf4vhQQAAACA9Qn9x6totk6icEjNadGmcrakxgBgWD3x/hQTAAAAAMYNAOJLEzZaTymIZlI4pMrZd2vfBeDPp5AAAAAAMH7jdV/CJutiiobUBXZ0Co8BPKU5fhOKCQAAAAAv1tW7TeIT2Lvjt1E4pG70MMqHUzgM8FSKCQAAAAAvFvqjEjZYD6lz/lQKh/qsRxuoPQCw/6OQAAAAAPBigX0uWXMVlyka6rceCwem8BjAiJwdTDEBAAAAYG3Orky2/b94CEVDndfk9SkEABdRSAAAAAB4XhR1yNniCTdVod1K0VB3QTwnhQBguQLbkWICAAAAgCR1+Vcn3P5/OkVD3eWjWYmCqXEDK38GxQQAAAAASQrjTydoqFap55wdKBoawvneFHYBPKrO0sYUEwAAAABC+1WCk9V/TcHQMD3xrnK2svZdABZQTAAAAADt7bRoUzlbnuBu9X+naGiowL6Zwi6A26WRKRQTAAAAQPsKi+9M0EQ9rXw0i6KhwQHAa1K5ErA7fhvFBAAAANDGAYD/ysS3UceXUjBMzjpN8JjKuMNfRSEBAAAAtK/AHkhw+v8cCobJCQD8UansAujyr6aYAAAAANqwqYpfkaB5WqN8cVuKhknj4ptTCAEuopAAAAAA2rCh8h9M0DjdQMEwyQGASyEAeE5dvdtQTAAAAABt1lDZtyf+/L8vUDBMqrkDMxTEi2oOAQL7HMUEAAAA0GYBgL83wfV/76ZgmHRBfHoKuwAeUhDNpJgAAAAA2qSRsh0TPf8flLekaJh0c/wmcvZYCiHAhykmAAAAgPYQ+vckaJb+SsGQnbUbRyk8BvCAomgjigkAAACgHQKAQoKG6RsUDJnhereTsyW1hwDxiRQTAAAAQBs0UXZ1gl9L51IwZGz9+hQeA/iLNDKFYgIAAABobUlOU88VD6dgyNb6tR3lbGnNIUB3/DaKCQAAAKB15YvbJmiShjkAEBkNAS6ofReAv4pCAgAAAGhdueLhCZqkQQqGjAYA+8rZ6hpDgGHl/AEUEwAAAEBrcvF/JGiQ/oeCIbtr2b6bwlkA36OQAAAAAFpT6L+SoDm6iIIhu2u5cJCcDdcYAKyU69+NYgIAAABowabJfpXgqrTTKRgyvp5/UvMugNAGKCQAAACA1uPs9ok3Rv79FAzZDgD8m1I4DPBZdfVuQzEBAAAAtFgA4J9NsAPgUAqG7K9p+10KZwF8iUICAAAAaB3JrgAcUVdhd4qGJggAjkghAHiaKy8BAAAAtFKjdHCiK9I6o+kUDc2xtv0faw4BAvschQQAAADQGsL4uAQN0eMUDC26tscbD6mztDHFBAAAAND8AgsTNEO3UzA0j5EpcvbXFG4E+Ai1BAAAAND8wvjTCRqhaykYmkpgnSnsAhjk0RcAAAAALRAA+MLEG6H4lxQMTSWKOhJdczn+6KGYAAAAAJo8AIi/liAA+AEFQ9MJ/KkpBAB3K4o6KCYAAACA5uXs8ok/AhB/jYKh6XRG0+VsKIUQ4CSKCQAAAKB5hfbbBA3QuRQMTcn5z6cQAPxFGplCMQEAAAA0a2OU5K50T8HQlHKlreX8symEAO+imAAAAACaNACwGybc/ATWR8HQxGu9yC4AAAAAAG3cFPlbEjQ/Z2f+/YSFgxT07cnE4iWCvj3lbFXNIUDg300xAQAAADRhAGB3JWh8zsz0e5njN1EY/03OHlZPvCuTi3Ws9++nsAvgz+wCAAAAANB8AnsgQePzpUy/lxdcaciVhVhnAHBwCgHAiJw/nmICAAAAaLaG6MEETU9vZt9H4E9+0etdpXx5JyYYL5Hs5otxRnwzuwAAAAAANFsAcE/T3wLQE++/zhPeQ/sIE4yXrvnCO1LZBRD691BMAAAAAM0UANyR4FfP8zL3+vPFbdezi+FnTDDGWfd/SSEEuENR1EExAQAAADRJI5TgFoDALsjUa4+iDjm7cvxfaO1JGjSMEwD0pLILIIhPpJgAAAAAmqURuiFBAHBJxl772RM4t+CNTDJeorO0sZw9WvtjAHYrIRMAAACAJgkA/HUJGp7sbKkP4hPlbHgCz2kXmGSMs4bOSudGgPh9FBMAAABAEwQAdnWC7c6/z8Rr7ra95ezpCd5ccC+TjHUHALajnC1PIQT4KzcCAAAAAGiGAOCyBNcA3jLpr3d06/ZtCU9rP4qJxjjr/6J0zgKwTooJAAAAINsCuyBBo7Ng8hu2+LzkDZr/MRONdQoLB6XzGIDdSDEBAAAAZLwBsnMSNDkrJnWrc+BPrrI5W6Owby8mG+teV/brdHYB+HdTTAAAAAAZDgDiTydqcrp6t5mU1+l6t5OzJ2po0GImG+uU88emEgCEdi3FBAAAAJDhAMDnEjU53YVXTU4A4C+usUF7XJ2ljZlwvNTIlMTnSoy/C+At1BMAAABANgV2TOYP1AviQyd05d+GRw8TjnHW2JyUrgT8JcUEAAAAkE05f0DCXzhPbfhrdPablA5qu4Pr2rBOnfOnytk9Ka2zgykoAAAAgOzJF7ZIeKJ+b0NfX+jflFJTNvYIQ/w2Jh3rXmvxh1JaZ9+nmAAAAACyyflnEzQ3lzX4tX0r1QAgsB8x4VinfDRLzh5JYZ2tVFdhdwoKAAAAIIMBgN2ZoLm5oWGva47fJGE4MZGxiuYM438W/OdTWmfnUkwAAAAAWWx6rkrQ2DzVsOfonT8l5eb/+YMMC0w61ikobylnz6SwzpYqjHemoAAAAAAyFgBYKVFzkyvu0ZDXFdpv6xIAOFusOX4TJh7r/jz43pTW2YUUEwAAAEC2hJZPFgD4Y+v+mnrO2UHOVtcpAJic2wzQJJ+HeGc5W5bCOlvO4yYAAAAAssUV3pzwrvPP1v81xd11a/5Hxz2Kog4mH+OEAP3prDN/McUEAAAAkB0n922VuWvOArukzgHAiJy9i8nHOuXLO8nZc6ncCNBte1NQAAAAANnhbCjBVXoP1PW1RFGHnD1W/wDA/5GJx7gC60tprV1NMQEAAABkKACIf5msqendro5hxMEN+PV/dHQXD2Hyse512LtdatdQBvEJFBQAAABANoRxlJmDAEP/8YYFAI14nAHt87kYf1TU1bsNBQUAAAAw+QI7JuFBgF+uY9N1aQMDgFUK+vZkAWCd5vhNEj0es/5xOQUFAAAAMPnyxW3lbDhBM3N9HcOIBxoYAHBfO9bPxS61tRbaZygoAAAAgAw0OnZfol/O84UtUn8Nc/z2DW7+R+RshVz/biwArNPooZR/SW29BfHXFZS3pLAAAAAAJk/iq/f88am/hpw/NpXT/ZMe3hb6r7AAMC5nRyTcIbOh8bRCG1AYv4LiAgAAAJiEJifhVud6NM1BfHoKzdW7FNpAwv/NcnWVdmERYPy1ad+sw+6T4dHAyj6sfHFbigwAAACgMXriXRM2L4PSyJR0Qwj7do0N1RrNHthcXaVd5GxZwuezB1gEGFdX7zZy9lgdH0VZKed/rMCOVhR1UHAAAAAA9eXszoTb7d+Y8t+/obZD1uK//fPf8ucn/N8vUxjvzCLAuELrasy5FP5eOetRZzSdogMAAACoUwAQn5ewWYnT++MjUxI/u//Sxumqf/xzozsalnMjANJdo3Z1Aw+orMjZf2qO34TaAwAAAEhX8kP47k/tMQDXv1sK16y9cBt/6L+S8N9Ypa7+l7MQMK7Rx0ueaPBNFY/J2Rd1ct9WTAAAAACAdATRTDl7JmFzckQ64UPx8NoDAJ9bR6iQcBeA/yELAesV+vdPwnWVI3L2jIK4rFzfPkwCAAAAgNo5+17CpuTb6YQP8ZyaG6Tu4iHreD9fTXwyey5+AwsBG/icfHeSQoDRwy6dXakg/rfUD+IEAAAA0EaC+ISEzcgSzR7YvOa/G/ozamyKlq/z0LSuwu5ytiLhv/U7FgLWK1/YQs7unsQQ4Plxh8L4Q5wTAAAAAKCKAKCKxwCC+LQUgoev19QIBfZ/4//bdkEV/97RLAasV49/mZzdkYEQYETOFiuwPgW2IxMDAAAAIEEzbpck/hWy1q3Iof22xuf/vzLuv50r7lHFLoC/cB87Nui0aNOx2zNWZyQIWCZnF3JOAAAAAICJ6Y7fVsUVfEfW9DdH7z6vofGJ3fr/fZuXPFSIZ7MYMCG5/tfK2Z8yEgKMyNlqhTZ/nediAAAAAMA/jUxJ3pD7H1f956Koo4pf6Dd8AOALGrQqdgEE9sA6zxUAxvvcBHa0nF0tZ8MZCgN+o247jPkBAAAAsG5BfHrCJmOVXP9uVf2t0bvVa2tygvKWG/w7Yfy1KnY2fJTFgOSfn8KBcnahQnsyM0FAEP9cYeEgJgcAAADAC/Wcs0MVv5j3VfW3uu2wGpubxybWlPXtKWcrE/7bjyqMN2NBoLogIJopF79Pzn5W8y6X9K4Q/Lby5Z2YHAAAAAD/5OIfJGwunlK+sEXyJsmfXGNT86eJvye7qIp//0ssBtRs9OrAD8jZ9+Vs8SQHAU8rjD+p/LxpTAwAAAAAqbt4SBWH8X02eQCQ+HGDF+88uGTCf2v06rakuwCWqCfelQWB9MKAedPUHb9NoQ3I2YOTGATcplz8BiYEAAAAgBTYrxNvmZ/I8/hrc/78Gp9tPivZ37Nv1DVkAJIKCwcp8GcqtFsn5cYAZ16dpY2ZCAAAAKCtAwD/lioainOTNT/2kxp3AITJ/l7fXqOHFib6O8NyhTezIFB33ba3QvuMnN3Z2CDA3ytnRzABAAAAQDtzdn3iGwFy/oAEAcBNNTYuRyZ/T/7iKv7WjYqiDhYEGib0bxq7veLpBgUBw3L2VQ6+BAAAANpVd/y2KpryWxREMycYMDxcU9MS9u2V/D3Z3lXsAhiRix0LAg2Xj2YptC45u2asSa/zlYH2gHLFwyk8AAAA0I6cXVFFI/HVDf67cwdm1NjQrK76JPPAvlnF33tIswc2Z0Fg0nTb3gr9GXJ2V92vDAzj/gkHeQAAAABaRGD7VnWPeeg/vt5/d/R5/FqalPuqfk9hvLOcPVHF34xZEMgEZwfLWVHOKnUMAu5UGL+OYgMAAADtJIz7q2wgPjXuv5krHl5jc/KzGt/T7Cr+5nLl+vZhQSAzOudPVWDHKLAfVRXUTeRcD2dfVOf8qRQbAAAAaAdBeUs5e6jKZ4ov0By/SUoN+No7DAo1vy/nf1zF376CBYFMyhe3Veg/Lmf3pH82QPx79cS7UmQAAACgLUIA66yhgVgo5095wTP7QXx6bQGAddX8nub47eXs0Sr+9ttZEMiszvlTFfr3K7RbUw4CHpfzx1NgAAAAoB1UdyDg2mNQgf23nJXk7LEa/62DU3lPob23ir99h6JoIxYEMi2KOhT4k+VsQbrXBfrzOSAQAAAAaHWjh+c92qB7ydc3nkm1AQ9toIrrDj/KgkCTfG43Gwve1qT3GfS3KCjuR3EBAACAVhbYMQ25j3z9W/B/lep7ys+bJuevS/g6Fitf3okFgabRbYelfIXgEgUWUlgAAACgtUOAvkneAfDh1N9Tzzk7VHGl2i9YDGgqUbTR2Pkby1L8PP5UXb3bUFwAAACgFXVG0+X8Hyep+R9WV2H3uryvMH6rnK1OthshPo4FgabT5V8tZzek+Lm8X7n4DRQWAAAAaEX54rZydn/DA4DAfl3X9+XsU4kPNpw9sDkLAk0nijaSiz8rZ8tT+nyuVGAfo7AAAABAK+qJ95ezxY19/r8Bv7iH8dcSHoh2PosBTSsoHCgX35xiSHeJ8tEsCgsAAAC0mu74bSk/T7y+w/+ulUam1P095edNk7OrE7y2NQr9m1gMaFr5edMUxpGcrUztloCwby8KCwAAALSa0N4uZ0vrHACskLODG9cQFbaQs9sTvL7b1BlNZzGgqTk7WM7+mtJn9gkFdjRFBQAAAFpNYP8qZ0/U8dn/xj9bHPTtKWcPJ3idX2AhoOnNHZghZ7GcrUnhs7tGzn++ITt3AAAAADSyYS7uJ2d3pt/8x+VJe09h/Do5e3qCr3WZuvpfzkJAS3D+yCquxhzv8Z2fcFgmAAAA0Gry0SwFdoGcDafz62H85Un/9dDZEQkecbiGXzvRMnKlrRXYj1IK8+5WT7w/RQUAAABaTbcdJmd/qaFZuFPOjsjM+wnsmLFzCCby2ntYAGgpoc/J+WdTCAGeURCfSEEBAACAVhNFHQriE+T8dRPcEbBm7P/2JEVRRwaboPfL2eoJbHd+UvnyTiwAtJTA9pWzG1IIAYblfG8mP+MAAAAAUpAv76TQAjn7qpz9QaHdpNBukrM/yNk8hfGH1FXapQmaoHCCYcbPmHS03ud43jQ535vSAYE/1WnRphQVAAAAQHY5+4CcrZrAToA8xUJLysVvkPP3phAC3KMwfgUFBQAAAJBdgXXK2coNNDdLlOvbh2KhJYXxZnI2L4UQ4Ak5fyQFBQAAAJBdOX+snC3fwC6Aa3nWGa0dBNh7R5v4mkKAVXLxf1BMAAAAANkVxCdO4HaAD1MotLRu21vOrql5N0DoCwRmAAAAADIcAtgxcrZkvY8CBLYvhUJrG5mi0OcU2pM1BgFXcDggAAAAgOzK+QPkrLKepuY2BdFMCoWWF5S3HDsbYLimwwGD4n4UEwAAAEA2dfW/XIE9sN7tzUDbBAF2jJwtqCEEeETddhiFBAAAAJBNudLWCu3acRqaYeX8sRQJbaOztLHCOJrAjRnjjRUK4hMpJAAAAIBsmj2wuZy/apyGZlBdvdtQJLSV0L9Jzm6vMgRYrjA+jiICAAAAyKYo2kiBXTBOQ3M5BULb6YymK/BnTuDWjHFCAH8URQQAAACQXYH/hJyteWlD4z9KcdCWnH9jdWcD+Gfl7GAKCAAAACDLDc/x67gmcIWC+FCKg7bU1buNgvjnVewEeFC50tYUEAAAAEB25fpfK2cPvqiZWah8cVuKg7YURR1y8XmJQ4DQfqUo6qCAAAAAALKrq3eblx4O6K+imUFbC+NPy9lwohAgiM+icAAAAACyLYo65OzsFzQ8QVymMGhrQXx6wp0Aa+TsXRQOAAAAQPaF8XFy9tQ/G5r4PygK2pqzyxKGAE8o6NuTwgEAAABogoan+Eo5u2+smVnNL5po789D73brOCxzQ+MGzR2YQfEAAAAAZN/ouQB/5JozQJKz71VxPeD5FA4AAABAc8hHs9Y6HPBhddveFAXZW6fzpilX3ENh4V8UxrPl7FNydrZCG5Czb8vZT+Xsf+Xim+Xs/rXGQwrtyQkNZ8uquBpwRM5OYoIAAAAANIe5AzPGGqgRObtfge1IUdBwnfOnKte3j5w/Xi7+rAK7RM5fJ2eVscdURjI6lqq7eAgTCAAAAKBJmq9ouoL452Pbmm9RvrAFRUFdm/2gcKBCyyuwb479cr8sw03+hsageuJdmVgAAAAAzSGIZsrZ1WPXA/5e+WgWRUEqoqhD3XaYgvgsOfuNnD3dxM3+eOM2ndy3FZMNAAAAoDnko1lyds1YQ/M/hACobS354+XsG3L2SAs2/C8dgfUx8QAAAACax2nRpnJ2vZyNKLTfqrO0MUXBhETRRgr8uxXYj+TsubZo+tceYdzPIgAAAADQXPKFLf55RaD9hhAA69XlXy1nJTl7uO2a/n+OxxX4U1kMAAAAAJowBHjBFYHX8HwzXiDXt49c/Fk5+0ubNvxr5OxGBfFZCuJD1Tl/KosCAAAAQPOaOzBDof/OWMNzhwLbl6K0q5EpcnawAn/m2Kn97fkrfxhfqiCeozl+e9YEAAAAgNYT+o/L2So5e1qhfw8FaSOzBzaX85+Xs8G2/JU/tJvk7GyF/k38yg8AAACgTUKAwr/I2Z1yNiwXf5aCtIEgPlTOFrRPw++fVRD/XoE3BfGJ6jlnBxYBAAAAgPbUGU1XYJ+TsyUK4tMpSAvL9e0jZ0+3YKP/tEK7Vc6ukIvPG93dUniHcsU9mHQAAAAAeElzWNpaQXy6AptLMVqUs+83YXO/Ws4qcv46ObtMzryc/6icP165/tdykCUAAAAAVItnols5AKhkvNlfKWfXy1mswJ+sXP9rFUQzmTgAAAAAABIFAHF3Bq/d+7NCX1Doj9IcvwmTBAAAAABAKiGA/WGSm/4FCuKvy9kHlC9uy4QAAAAAAFAPOX9sgxv+R+TscoX2EXX1v5wJAAAAAACgIUamyNnddWr2l8rFN8v5i+VipzB+BfUGAAAAAGCyhPGn02v6/bNydpK6bW9FUQfFBQAAAAAgKwLbcezE/XRCgNAXKCoAAAAAAFnk/MUpbv1frHxhC4oKAAAAAEDW5Pr2kbNVKYYAF1JUAAAAAACyyFmcYgAwrLD4TooKAAAAAEDWRNFGCu2mVA8EDAoHUlgAAAAAALImjF+X8qMA96mrtAuFBQAAAAAga5ydnWIAMCJndymwHSksAAAAAABZ0hlNl7M/pRwCLFBgr6G4AAAAAABkSWA7KogXpRwCLFdoXRQXAAAAAIAsCYvvlLM1KYcAw3L+89LIFAoMAAAAAEBmQgB/RsoBwPPjegW2LwUGAAAAACALOudPVWC/rlMIsFhBPIciAwAAAACQBWG8mUK7qU4hwIic/7Hm+O0pNAAAAAAAk62rdxs5u6t+IYA9pcA+ps75Uyk2AAAAAACTqSfeVc4W1jEEGJGLb1ZQfD3FrrcgmqmwcJBC/x6FlpezL8jZuQrsEoU2/x/D+Yvl4i/L+Y/K2UnqLh6iuQMzKCBSM3dghsL4dXJ2kgL7mEI7R85f/MJ1aN9VEJfl/OflrEfOH6/uwqvUGU2ngAAAAECddBcPkbPF9Q0BbIVCO0f5aBYFT0PPOTvI+eMV+oKcv0qBPVDj9Q4rFdqtcvYNOfuAcqWtKTImLFfaWs4+IGffGFtHq2pYi6vl/L0K4p8riM9SYMewHgEAAIA0+8l4fwXxojqHACMK4kUKrYsrA5NyvdvJ+VPk7Ltydn/dJ2q0CbtOzj6sfGELJgAvMXtgczn/QTn/x9H1Utf1OCxndymIv67AOhWUt2QCAAAAgBrk/AFytqABveWInP1Cub59KPr6dBcPURCfJWc31Pjrfq3jOTn/LQXF/ZgUqKv/5aOPkdiSSVyTq+T8HxXY59RdeBWTAiCpkRFNWdCnrRaUtdeiog4ZKuuoSlnvG+zXqZWy8pWy8kMlfXqwX6cP9uv0Slm9Q2UVhsoqVEq6oFLSPEZjx2BJ72HljnrkXO2woKy9Fpr2XlTUIYuKOqTSr7cOlXVUu47n67CoqP0WlLXXUL92uyMSjxWOWTRPszLxWS7rfcxGxozuLL+uQd/hl8nZl9RZ2pjCP8/ZwXLxeXI2OInN1fi/woY2X922NxPVhsK+vcae3V+TwbX5oEJfUGD7MlEAnvew1yaLijpksKzZlZLOqZT0o8GS7qiUtLhS0gijyUZZve2ydh+MNHOoX68d7NcpQyX1VUr6UaWk6yolLaiUtIL1kGg8Uinpr0Ml/WqwpK9X+vWJRSW9fbCkXdrpv4cL+rRVRuajyP93yqDO+VMVxlEDv+cPjT4W0M4Ce42cXZnBxmpdY4mC+DSe42gXI1MU+FPl7JkmWJtrFNglBAFAe1pU1B6D/Tpl7NfiOyolDdP8EABk3aNf0aaDJR0xVNanKiX9oFLSPZWSVjPnDRmLB0v6Q6Ws8lBZJw2W1LLbkwkAMLGeND5BoT3ZwO/uVyhX3KO9itxte4/9qjrcJM3/2uNq9cS78klpYfnyTnLxL5twba5SEH9d+fJOTCLQwvFkpI6F5+rwsS35gzQzBADNYLCkjQfLeudQSecNlXQ7zX7mxhOVkn4+VNJ/tFIgQACACesq7SJnf2jg9/alCuLT1Tl/ausXN/Q5Of9sEzZXLzzVMdf/Wj4prZgAFg7M6KMoScbjCuITmEygtSw8TwdUSirS9BMANIsHTTsOlfWRoX5dVSlpKfPZVOPeoX4NDJb1lpFIHQQABABtIYo2avAjASNy9ie54itbs6Cd86cqsAuavLFaezwjV3gHn5QW4vyRcvZUi6zPYYVxxKQCze3+grYYKuk/KmXdRENCANAMFhW1baWkD1VK+h2/8rfMWDTUr4FFRf3LyIia6lFYAgBUJfTvkbPFDX3UvOXOBuicP3XsKr+RFhsrFBbfyaekJT7oR8nZ8hZco57JBZrPQ0W9slLSdyolLaf5IADI+nodGdGUobKOqpR0ZaWkNcxbS4/KYL+iRUVtSwBAANDSevzLxm6la+D3dn+x8tGs1iigs2ILNlb/DAECO5pPSTM3//Fb5Wxpy67RMP4kkww0h0XnafdKWd+slLSKRoOR9QBgJFLHYEkns0OlLcczlZK+sug87U4AQADQsjqj6XLmG3xu3e3N/0hAYEc36WF/ScZTCor78Slpyub/FS207X+8sVLdxUOYbCC7Hixry8F++UpJy2gsGFkPAEbma2qlrHylpAeZo7YfqyolfWdBWXsRABAAtKwgPlSBPdDA7+7LFFrQrM3VZnK2sMWbq+fHba2zZaNNzPGbyNltbbE+Q7tVUbQRkw5krJEa/QX1Y5WynqSRYDRDALCwpNdV+nUDc8N40XhuqKwz7x3QDAIAAoAW7Ru2b/AtYcNyvrf5bgkI/Rlt0vyP3Q5g3+TT0URa81yK9YQAPsekA9nxyLnaYbCkX9M4MJohABgsaeuxcymGmRfGesb9i0p6OwEAAUCLxvZTRm+0a+ABgaH9Sif3bdUc9Tkt2rTBpydmY+T8sXw4mkAQn9h2a9PZ/YqiDiYfmHwLz9U7KiU9RrPAaIYAYOG5ej3b/RkJxnClrPJIpEnfeUgAgLo4uW8rOZvXwB+ZH1B34VXZL0wYf6gNG6zRJquztDGfjEyvzc3kbLBN1+e7WADA5Bq7Io1D/hhNEQAM9ut01iujyrV702QfEkgAgLpy8fvkbKhB3+GfkPNHZrwgdk2bNlgjCuKz+ERkWBCX23ZtOvseCwCYHCOROipl9dMYMJohABhbr2XmgFHjWFDp10EEAAQALeu0aFO5+MtytqwhB3uHls9og1XeUs5WtW+T5Z9VV+82fCIyqKuwu5ytaOMAYHHzHSYCtEjzP/r8NA0BI/MBwIORZlbKuoL6M1IaS4bKOooAAK39A2PfngptfkNuvwv8mdkrgPNHtnGD9XwI0MsnIYOcXdT2a7Mn3p+FADTWUEl9NAGMZggABkvauFLSldSe0QohAAEAGt9rFF/ZoCDg29m64Sv0HycAsMXKF7bgU5ClD2T/bnK2vO3XZujfz2IAGthQ9etUvvwzmiEAGInUMdivn1B3Rp3Gskq/DiUAQFsI/Zvk7Or6fqePL1VnND0jjZb/FgGAjcjZf7H6sxQAxOexJtmdAjTSoqIOqZS0nC/+jGYIAColnUPNGfUcQyU9NNSv3QgA0DaCwoEK/Xfq9nh8YL/OxgH0zm6kyRq7soHnrbNh9sDmcvY069JG5OwKFgRQf3dEml7p12186Wc0QwAwVNLxlZKGqTmjAeP6Rl0RSACA7AQBfXuO/Ri5tA7f7a+e/BDA2d9psp7fmmHvZcVngLP/Yj3+Y1zPggAa8mvq2XzRZzRDAPCw1/aVkh6n3owGruszCADQnj1J73YK40ihPZnyLXS/12nRppPZbD1Bk7XWZGBy5edNk7MK6/Ef43YWBVBfi87T7mz9ZzRLAFAp6VJqzWjwWLHwPB1AAIC21dW7jcI4krPHU/yOf6Xy86ZNVgCwiiZrrdFdPIRVPplJm53EOnzBWMiiAOprqKSv8QWf0QwBwGBZb6HOjEkavyUAQNvrjKYrtC45uyel7/k/bfztAJ2ljWmwXnJC49dY3ZMaAPyJdfiiGyoA1M3CWDu32K//yyplPcmYnDFU0hfrtVZHRjRlqKQbaUQZkzUWlfR2AgBAUhR1KLBOObs9lSsCNTKlcS/+5L6tMnLS+R8z1HA9p1xpa1b2JBi9giMr62C1nL8uA69jBQsDqJ9Kvz7bRL8uP1kp6ZpKWRdWSvpCpV9dlX69dehcveKRc7XDg5FmMqMtHFadq3e0SCO5qlLS34ZKurxSUnGwpM8MlZSr9Kuz0q/OoX4dN1TWUS0x+nVcpV+dlbLyg/366GC/Th/q10ClpP+plPRYE87dtQQAwFo6509V4P9dzt9S4/f9s9swADAvZ9dk6Oq1z7OiJ4GzyzO0E+RSOfsuAQDQukZGNKVS0t8y/GX7rsGSzh8q6fjKgHZlxto8rCrpd03a8K8c6tfvK2WdUenXWx/22oTZHPXIudphsF/HDJV0Xsb/W7T2LoB/JQAAXvKNYopy/lg5+0sNh9Hn2y8ACOPjMvTr79DkHcrQpnJ9+8jZmgwFAK8jAABa26KyDs7gF+zVlZJ+OFjSG5gh/GOtjh5UuabJzkO4qVJW/v6CtmAGJ9gAl7XXYL+isd0+mZzXoZLq9qgsAQBaQuiPkrO/VvGdf42C+IT2CgA0MkXO7sxQCPABVnAjPyw2kKG5/4MkEQAAra3Sr89nrGG6b2FJr2Nm8JK1WtLnmqXxH+rXVQvP1eHMWvWeGNDmgyV9plLSoxmc48X1etyIAAAtY+7ADAX+E3L2VMLv/c8oLBzURgGAJGcfztBjANexehukq3cbOXsuQ9dBnkAAALRFU3VNhr5U37OoqG2ZFYyzVv/aBL/4Dw2W9B5mKz0PlrXl2JkBw5l6DKCsuvxKSQCAltNzzg5y/mI5G07w3X9QPefs0D4BQD6aJWePZacRLL6eldsAQXx6hn79v0dR1EEAALS2kfmaWilpSUa+bD6zqKz9mRWsy8Ne22etAVzH+AUBVv0sKuuESknPZmW+B0s6nwAASMD5N8rFNyf4MfL39XscPWsBwGjTdXZ2ngP332HF1llnNF3OKhn69f+0tdYiAQDQul+o98/QL6dnMCMYT6VfnRlv/i8YidTBTNV9HRyambMB+nUbAQCQUBR1KLT8hHc9B3ZB+wQAc/z2crYsI69rhQLbkRVbR2E8O0O//j+ufDSLAACgqWrgL2lPP1jWlswIxjPYr//O8PP+F42MaAqz1BhDZR1WKWlZBuZ++KEBbUcAAFTT+xQOmvBtAWE8uz0CAEljz0pk5BdhfyYrtY6c/Tk7Oz7snBe9NgIAoFW/SJf06Yx80fwus4H1hlXZOqviBXfC3xFpOjPU8EDo1EyEl2W9hQAAqFJ+3jQ5+5Kcrd5AH7BcYfGd7REA5PwBCQ9LqOeW8EXqjPh/cPVp/o/I0K//y15y4AYBANC6TVVZ5Yx80Xw/s4ENBACVDDb/SwfP077MTuONjGhKpaTfZuA6wBwBAFCj0WvH79tAL7Ay3esBsxoASJLzV2XoRoBTWKF1CQB+mp2dHvbNdbw+AgCgdQOAy7LwRfNBE4+ZYVyL5mlWJg8ALOvLzM7kGerXayd7XQyV1EcAAKRg9sDmcva9xoUAWQ4AQnt7hraG38TqTFlQ3C8zuzycDSvnDyAAANooACjp5xn4kvkoM4H1Nnrn6hUZ/PX/ucp/axtmZ3INlvTrSQ4AvkcAAKRlZIoCmytny9e7W9kV3tHaAYAkOX9Lhk6HP5TFmWYAYP+doe3/V697/REAAC0cAPwmA18y72EmsD4LS3pd5g7+K+lyZiYD4VBJ/z7Ja+FnBABAynri/eXs9vX2Bc4f3+IBQOwy1CR+n1WZkq7ebSZ8BUZjtv8fTQAAtFkAUNYfM/Al8y5mAuszWNIRWQsABsvqYWYm31izvHoS18LvCACAOjgt2lTOvr/e3iCMj2vdAGDuwAwF8aKMvMaV6ol3ZVWmwMWfzdDjHbeO/zoJAICWDQBKuo4AAJkPAPp1TOYeAejXQcxMZv479tdJXAc3EAAAdRRa13p+MK0hBMh6ADDahH0hQ7sAzmY11qgzmi5nQ9kJAHyOAAAgACAAQBYtKuuErAUATwxoc2YmI/8dK2v+JK6FWwgAgDoL4kPlbME4PcJShYV/ac0AIFfaWs6WZOR1PqogmslqrGkhz8lQoPOQ5g7MIAAACAAIAEAAMKGxZmREU5iZbBgs6esEAAQAaHFhvJmcXTZOn3C38vOmtV4AMNqIfTVDW8YDVmK1RqYotFsz9Ov/GRtYdwQAAAEAAQAIAP45ljErGfrvWFkXEgAQAKBNeqggPl3OVq3jLLOwNQOAwPaVszXZeK3xzSzCKgX+LRn69X+JcqWtCQAAAgACABAAEAAQABAAEAAg80J/lJwtfmGv4BN+FpslABhtxq7I0Knx/8oKrEKW5tDZhRN4vQQAAAEAAQAIAAgACAAIAICM9FPFV77kXIDQv6k1A4Bc8fAMPQYwn9WXUFDcT86GMzKHa9TV/3ICAIAAgAAABAAEAAQABAAEAGgqPfGucnbfWv3CZa0ZAEhSYP+Xkde7Sl2F3Vl9CYT+Kxn69f9nE0vYCAAAAgACABAAEAAQABAAAFnrrfr2WisEWKF8eafWDACcnZShxwD6WHkT1NW7zXrusZyEufNvIQAACAAIAEAAQABAAEAAQACA5g0B4s3k7MqxswC+1ZoBQBRttJ67EBv9GMCTykezWHkTENjnMvTr/w0Tft0EAAABAAEACAAIAAgACACArMrPmyYXf1nOVqjbDmu9AGC0KftUhprJHlbdBnRG0+VsKDvnN8SzCQA28B+R0B816SPXtw8fngZz9mE5mzfpgwAAIAAAAQABAJBMT7yrcv2vbc0AYPbA5nL2VEZe9+3SyBRW3HqE1pWhwGaB8vOmEQCsx9yBGTxi07YBwOWZmHsCAIAAAAQABABAnTRjADD6RbWUoV+U38pCGs/IFDn7a4YCgP9KuM7a8xEAZ8sIAAgACAAIAEAAQABAAEAAABAAZCMAyBX3kLNVGTkL4CcspPEaCn9khpr/pzV7YHMCgAm974cJAAgACAAIAEAAQABAAEAAABAAZCMAkCQX/yAzd8qHfXuxmNbZUFyZoQDg3Cpef7sGAPcTABAAEAA0ZNzNwgMBAAgACAAAAoCJCOPXZai55D8UL9YT7y9nwxmZn1UK+vYkAJjw+76HAIAAgACgIeNBFh4IAEAAQAAAEABM+Aur/2NGXv9inRZtyoJaS2AXZCeg8T+ssiFq1wDgLgIAAgACgIaMVQ9GmsniAwEACAAIAAACgIkI/XsytAvgwyyoMfnitnK2NDNzExRfTwCQ6H3fTgBAADB5AUBjblbJSAAwsvBcvZ7FBwIAEAAQAAAEABMRRR1y/t6M3AbwN64E/Ecj8YUM/fp/XQ3voz0DgNBuJQAgACAAaNj4HIvv/7d37lFylGX+/+YewkVA5S4gLig3QRB1WVAUFJUVdHVcBRK6OjGs+RFddYVdXLBZlUxXdb01GYM6Lq6KrkhQ8QYqcPAKZiWAIlnQEJKZeqsTEsItEHLv3x/TsBC659qXt7o+n3Oew+GcyfRUPW9Vv8/nvQECABAACAAABMCIO63Fi9w5EtB/R+bbVK4wXZ7/sEM5eT8CYNTP1N0IAARAxwuASL91pKN5C40PEACAAEAAACAARsrcwgx5/iOOXMdPMt+m8n7OoWUZD6pr8SQEwKiv+04EAAIgAzMAfupIR3PjuqJ2pwECAgAQAAgAAATAiDuuwZWOXMcO5Yuvzm6DqkyQ5//Zoen/HxtnQZRVAbAEAYAAyIAAuMaZoirUhTRAQAAAAgABAIAAGCn54gHy/M2pPW++U8gHZzg0+v+IZga7IgDGJNRuRwAgANoWhcLEVlxuYrTAoaJqxfJeTaMRAgIAEAAIAAAEwMg7r9905Fqe1Hm9e2S0gLjRnbX/QXcDrgcBgABAAHSoAIiN3udSYRUbXUEjBAQAIAAQAAAIgJGS6z5Wnr/DjWPn/PmZa0tzikc6c/89f7NmmQMRAAgAQADUY6CoAxwrrLbaUG+lIQICABAACAAABMBIyfu3OrL2fHmrOrEOFQ9fcWj6/7cadE1Z3QPgDgQAAqDTBYAkWaM/OTYL4Akb6k00RkAAAAIAAQCAABiRACi9y5kiNOe/OzPtaG7pZfL8jc5sxDgreC0CAAEACIDhSCJd7FhxVbFGT9lQXTRIQAAAAgABAIAAGJbKBHn+MkdmAfw8M+0oH1zm0Oj/bQ0siBAACAAEQCcLgFCvsEbbHJQAFWt07ZpAr6RhIgAQAIAAQAAAIACG7sTOcWYkek7xyI5vQ7nCdHn+w84IgNnBWQgABAAgAEbcgTb6hqMCoGKNNttI37SR/rZS0EQaKQIAAQAIAAQAAAJgZ+b3TpPnr3ZkGcCizi8aip5Do///29AzxLMrAH6PAEAAtC26Fk9q5WWvjnSoNdrssAR4NtYmob4dG51rQx2xtE9TaLQIAAQAAgABgAAAQABIUi74rCPLADYoF+3ZuQ2oMkGe/2d3jv7z5za4IEIAIAAQAB0uACQpDhWkQAC8+NQAo+XW6KbE6Kux0ReTSN021GfiUJc4H0Yft5HmPhux0blJqLNtqLeWSzqxvFAHLytoKgIAAQAIAAQAAAJgBB3ZK1/uzKZ0ueCTHdt+csW3OzT6v0bze6chABAAgAAYLSsLmm5D/TmFEqDTY0ditNoa3WUjfTcxutyG6uo3OrpS0GQEAAIAAYAAQAAAIACe35ntc+TaVrajQ9uagqF4kzuj/8VCE9pQVgXAEgQAAiBLAkCSbKjjrNEmiu7UxCZrdJc1+q/EaF6/0dGViiZ02mOJAAAEAAIAAAEwUmaFR8jztztSnJ7decVC6Sh5/g5H2s9GzQz2QQAgAAABMB5io3Ot0Q6K69TGWmv0vTjSnFWR9kcAIAAQAAgABABAlgSAJOWKP3VkbfqtHdd28sWvOjT9/z+bVBAhABAACIAMCQBJskaXUkh3xvIBG2mpDfWZ/kiHIQAQAAgABAACACALAiBffKszReqs4LUd027mfGFfef4mR+7tduWLr0YANFKc+f+DAEAAtPEYwLav7bZGJQrojoslidG8tVdpNwQAAgABgABAAAACoFMFgCR5xbsduca+jmk3zpyy4FfkFW9qYkGEAEAAIAAyKAAkKTG6yBptp3DuuHjGGl0zsFDHIAAQAAgABAACABAAHSkAgvOdWac+68qXpr/4L0yX5z/szuZ/wRkIAAQAIACa1Lmea402UzR3ZGy3kX5kQ52OAEAAIAAQAAgAQAB0kgCY2zdFnj/gyHVenPo2kw9mO7T2/54mF0RZ3QPgDwgABAAC4LkO9vHWaDkFc+dGYnRnHOk0BAACAAGAAEAAAAKgEwSAJOWKlzhynf2udW5HR2WCPP8+d0b//VkIAAQAIACa3slepJdaox9TLHf8poHfdW3DQAQAIAAQAAAIgDEJgGhPecEGR4rW96e3QOg+06HR/1hz+6YgABAAgABoFUmkD1ujhymWOzo2W6PSmkC7IgAQAAgABAAAAiCtAkCSvOJCR671V+ktEIKfO7T537+1oCDKqgC4EwGAAGhbNFvsjbfDvUgvjUN9zRpto1ju6FieRPo7BAACAAGAAABAAKRVAMwJXinP3+bE9eb841PXVmYFr3Wn+A826NwFeyEAEACAAGgXq0s6yhp9zxrtoFju2NiWGF1eWaxJCAAEAAIAAQCAAEibAJCknP89R673a6lrK7ni1Q4JgC+2qCBCACAAEAAIgKELtJJOjEPdwJGBHR232kVqyyk+CABAACAAABAA4+rgdp/syPVu0sxgn/QU//5+8vxNjty7bZoTvBIBgAAABIBLrI50aGK00Bo9RcHceREbPbS6pKMQAAgABAACAAABkCYBMNjJvcORZQCXpqad5IsFhzb/+0EL20o2BUDeX4oAQAAgAMbGwz3a1xp9whrdReHccfGwDXUcAgAQAAgAAARAqgRA8QOOXHOSio5ul9lFnr/WnaP/uk9BACAAAAGQBsqRjrSRPm+N7qd47phYX450AgIAEAAIAAAEQFoEQNfiSfL8Bx257n9MQVEwx6HR/9+3+NoRAAgABECro6swtRNvb7xQh1ujT1mjX3GCQLojMVq9OtKhCABAACAAABAAaRAAkpTzP+7IZna3u91AKhPk+fc5JABaK0yyuwfAXQgABAACoHmsK2r32Oid1ugLNtJvrdEmCuvUxb2x0S4IAEAAIAAAEABpEAD54u7y/Mfc2AugdJKz7SPnv9Oh4n+Fuha39iim7AqAexAACAAEQOtYWdD0AaPXJ5HyNlJoI91sjcoU2Y5HpC8hAAABgAAAQACkQQAMdnaLbqxpD65xWAD8wiEB8Ik2tJGMCoDgjwgABAACoP2s79Ue5Ugn2FBdNtS/xUZXx0a/sEZ3JEb3WaN+a/QYxXjbYke5pKbuS4MAAAQAAgAAAdAoZpkD5fmbnSjwcv5+zrWNfPdxDhX/jytf3B0B0LLrvhcBgABAAKSPcp9m9C/QXi7Gwz3ad6BHJ8WR/iEO9bHYyE9Cfdsa3WGN1qVYAtxTKWgiAgAQAAgAAASA6wJAknL+t91YBhB81sFi4GsOCYBSm+5BVgXAfQgABAACAFpJ/wLtlUT6u+pGidfbSI+mZlPAUE3bnwYBAAgABAAAAqCxHd4T3BAAxbJTnd6cv588f5MjbWOL5hQPQgC09LqXIQAQAG2L+b3TSAYsK2hqYvQeG2mxNdrq+iwABAAgABAAAAiANAiAwU7vLx05EeB8hwqBKxwa/f9OG+9DVgXA/QgABAACAFyhvFAHx0ZfdFkExD16LQIAEAAIAAAEQBoEQC54jxubAfpLnWgTXWYXef5aZwTABaUTEQAtJl/8CwIAAYAAANeIjY61Rvc6KQBCFRAAgABAAAAgANIgAAbPuv9fR5YCvKntbSLvz3Wm+M8Vf93mgiirpwAsRwAgABAA4CLritrdGt3ooAS4HQEACAAEAAACIBUCQJIXXJj56e6SVChMlOc/4M70/+AcBEBblgA8iABAACAAwFWW9mmKNbrJscJ4YzNOA0AAAAIAAQCAAGgGg9Pe12V6wztJyvnvdmjt//1SZQICoA0CIOc/hABAACAAwGVWRtrTGt3vVHHcq4Z/fyMAAAGAAABAADSt6Cn+hyP34nNtLABucWj6/zwHCqKszgBYhQBAALQv94XpJANGQrxQh1ujjZ28ESACABAACAAABECzmBnsI89/xoF7sbYtHeCcf7xDo//rNLcwAwHQNgHQjwBAACAAIA0kRgtcKY6TUCcjAAABgAAAQACkRQBIUq54tSMnAuTaIAC+7o4AKH7ekYIoqwIgRgAgABAAkIoCqFcHuVIcl0s6BQEACAAEAAACIE0C4ILuo+X5OxwogO9u6XXPjfaX5292pC08o5nBPgiAtgqABAGAAEAAQFqIjR5CACAAEAAIAAQAAAJgbOT9n7nRCfZPbWHH/3PurP33v+5QQZTRTQCLZQQAAgABAGkhCfVrBAACAAGAAEAAACAAxlr8vN2RZQCLW3K9M4Nd5fnrHWkHOzQ7OAYB0PYZAGsQAAgABACkpggy+ikCAAGAAEAAIAAAEADj6Qjf48A92apZ3Qc3/1qDCx0a/f+FY+0gqwJgLQIAAdC26DK7kAxAACAAAAGAAABAALSwI1y8wJGCuLlFUKEwUfniX9zZ/K/7TASAEwLgEQQAAgABAAgABAACAAGAAABAAGRDAHQVpjqxDjrvP9rU4/BmB2e5U/wHf3Tu+ciuAFiPAEAAIAAAAYAAQAAgABAAAAiAbAgAScr5lzpyb+Y07Rrz/q0OTf/PIwCcEQCPIQAQAAgAQAAgABAACAAEAAACIDsC4NwFe8kLNjhwb+6TKhOaIDiOd6f4L5Y1v3caAsAZAfAEAgABgAAABAACAAGAAEAAACAAsiMABovkRW6cCFB8a+M7+8E3nBEA+eAyRwuirAqAJxEACAAEACAAEAAIAAQAAgAAAZA1AXC4PH+7A3sB3NDQ65ob7S/P3+xI7p/SbLM3AsApAfAUAgABgAAABAACoN0CoLxQB/dHOszFWNqnKQgABADASFlZ0PQ40mmJ0TxrZKzRddboJmt0S/W/19lIoQ310djoLct71aTZ0QiA4cn7Nzhwf7Yrv+CwxnX0i593aO3/lx0uiLIqADYiABAACABAACAA2i0AbKjTrdGTjt2DZ+OXK7r1EgQAAgCgHrHRgXGk+dboVmv0zCjb4UYb6ebEaN6qSPsjAFpJzj+1o+7RzGBXJ3Z5f1Zs5PzDEQDOCYBNCAAEQPtyX5hOMgABgAB4lgGj11ujtU5KgFB/jo0ORAAgAACeTxLq5Njoh9Zoe4Pa5HZr9L3Y6A0IgNZ1jJc4cI8e07zCbg24lo+6c/Sf/2PH855VAbAZAYAAQAAAAgAB4MoeAAO+XmUjPeiiBIiNHooXqi2DGQgABAC4RbxQh1ujG5v8zvlhf6RxzAxHAIyMXPAhR+7TR8d1HYXCRHn+Xx0SAG9BADgpALYiABAACABAACAAXNoEcFWk/a3RPY4uB1hTjnQCAgABANmkUtBkG+kya7S5Ve/i2OhfK4s1CQHQLAqFyfL8VQ7cp/8d15GAueA9Dq39/58UFERZFQDbEQAIgLaFi0eCAgIAAeDEKQArI+0ZG/3GUQmwYaBHZyIAEACQLcolHWKNloywbe2wRn+xRtfHRlfEoS55NqzR56zR963RihG31Ui/Hf0yJATAaIrnT7pROBffPo4O/m3uCIDgXASAswJgBwIAAYAAAAQAAsDFYwCX92qaNbreUQmwOTH6EAIAAQDZYMDo9YnR6mHa09bY6Iex0fv6F2ivkfze1b16eWL0ocToZyPYRyC2kY5HADSDfHF3ef7jDtyrn4zp758dvs6hqf/9KhQmIwBcFACVCY7MEEEAIAAAEAAIgNrfVIs1yRr1OSoBdthQn0QAIACgs0lCnWyNnhqq8LeRvrQ60qHj+h4o6TXW6Jrq7IF6+wI8MdCjkxAAzZEAoQP3aodmhUeM/m8PrnFGAOSLn05JQZQ9ATC4TwQCAAGAAAAEAAKgZoe2UtBEJyRARROqZ2m7KQGMLkUAIACgQ793Qh1njR4bog3dlYR6XUO/D4xOtUYPDPGZj6wu6SgEQKOZUzxInr/FgfvVk9K/uyLPf1zn9e6BAHBWAExGACAA2hpdhakkAxAAzgqAiu3VQS7lP4l08VAjY+2MxGhhM4VJbHR1JwmAtVdpNyfyFqqXNyvUfS+X9DJr1D+UQFpWUFP6MmsC7WqN/muIPQEeXBlpTwRAo8kXr3Xgfj05qiLaC650Z+1/MUpRQZQ9AdBVmIoAQAAgAAAB4IYASEKd7VxhG+ksB9vABdZoq6OzAa5tVjGQGP13G6/r7kZfT3VWx/Z25yw2upo3K9RsowVNtJFurtN2tidG85792eW9mta/QHuNJMp9mjGqd97giQP12vCPKxVNQAA0VgC83pECaf6I/t55hd2U9x91JM9blVtwKALAYQGQK0xHACAAEACAAHBkBoDRO5wb1Y7U7WQ7iHSWNXraUQlwy7qidm/4NYf6QxuvaUmTnucNDkiuH/FmhVrEoT4yxIyfi3YSdPPG2AbL1ui22MiPe/TGesV8HKpQV2KFOh8B0PiO8m/af8+C5SoUhp9Wlvf/nztr//3FKctzBmcAmF0QAAiAtsbcvikkA0ZZMNzYwQLgVAeLWWeP8a1uyrXe0eUAd64JtE/DChGjXazRM22cJv/rpuRw+B3VWzEDYBlvVtiZ1b16+RDvl54abXleg9rk7eVIJ+z8+6szZr5V59+sqb8UAAEwNnLF9zpSJL17yL9zcEO3v7oz/b90UqrynEUBMDPYFQGAAEAAQJpIjO7rWAFQ0okOFrPbyiW9zNlOeklHWaMBR2cC/HVNoFc24joHenRmm4XGz5qRv9homQvHOa4JtCtvV3hB2wxVrNNefr+0T1OaKAAq1mjjQI/OfNF3RJ9m1PsOjI2uQAA0EmcK6+DnQ3fog3PcOfovuD2FBVH2BMDgcZcutJcr+apBAAAMx7KCprZzFPQFna0evbHR1zdQ1AGOFrKfcLldrPS1nzW629F7t95G+tvxXuMQI3+tim81SQD80AmhZ/QO3rDw3PO2SC+tszxl68BCHVNHTtcSAA9boxU7xSpr9PgIZqY8sSrS/i/6nMGZT7U2Qn1sRbdeggBoJLniPCeOBJxTPHKIDv2vHNr87x8QAMwAGMUMgK/zdYMAABi2WIg0x5XCrl4ncDxUz7t3cXO7+105DnCIQnJva3SHoxLg8djoLWO9tupU5I3tPuGgGXlLInU7stkl/RB4frv8lzrt5Ct1/00NAZCE+sehPmdNoFcmRrOt0f112uZVdYTgtTWlQaT5CIBGMrcwQ57/iAOF0qLagqJ0kjuj//6DI9qvAAHQfgEweN0bHbjuO/m6yagAKBQmkwwYUXFc0GRXpv9bo0p5oQ5uysjT0MdNtXMzwA+73kbKfZrhyiaRNeKZONI/jLFN9LR9xkuoS5pSaA0WPxUH9gF4ovboKWQRG+rPtZZD9Uc6rJEC4FlWFjTdGt1S4zNtrU0BY6Nja80CSIzuRAA0mrz/BQemSm9QLtrT0eJ1dCcWIADcEAA5/yEHrnu7ZpcO4SsHAQAwxIhMt0PF3NbKYk1qxnXGRr9wtIAtD3/etBuiyEb6pqP3cJsNdeGopEakE6zRZgf+9g82I18DPTqJEy/AJfqNjq4jwW4YRmaNWQBUpcMRdeTUgXXE4C11fv5vEACNZG60vzx/c/sL7OCTL+zIh6+Q529xJLePaG5hRirzm9kZAMHtbpwaEVzG1w4CAKBmRyfS26zRNocKuZVNvNYrHS1eK3GoG1xfCiAN7pYdG/mu3sck0mdHch0ruvWSIaYGt3rTyxObkqvFmmQjPepIbjY1Y28PSBdxqI/Vef+9v5kCoFrUP/miZ6/GiQDVn72gZjt+kWREADSiWPqGA/dvpboW/9/IQ85f4NDof3p3c8+qAMgXQ0faz2qd17sHXz0ZEwDPf5cB1O5UnWONNjlWxF3fRAHwAVcL1+oa2DA14sjoU3U2y3LhPn5pqFkkywqaaiPd7MqMl9holybm6XsO5caujnQob95MC4Abap0UUe7TjGYKgEpBE2vN9omN3lDr5/sXaC9rtL3Gu+W7CIBGMzs4Rp6/o/2jpcWzJUnzCrsp7z/qSF43K188AAGQtiUAwXsc2j/ia3z1IAAAnutQhTrblV3/dxrBvbhZ1/xwj/at2alzq3iNmrUEogmd+fOt0RZH7+X1y3s1bee/ee1V2s2xpSD3NFnU/JNjeVllQx3BGzijAsDooRpt4o4RyOpxCYB6y2GGElLW6J5am7YiAJrTcb65/QLAv3Xwbyle5Ezxlg+uSXleMyoAoj0dWkJSUT74Z75+EACQbaob/l3ubCEc6rgmF0RLnBYAgx3bn68JtE8qOvSR3mWNnnL0Xt62vlfPzX7rNzq6zgZkbZ2t0Mz8VI9xdE3SbIhDfaTWBmzQuVQ349teY/r/omYKgKV9mmKNflmjHa4datlVbHR1jX+zpVLQZARAwwsm/51O3MfZ4esc2cBt8IjCWcFrEQApFACSlPcXOzQLYIc8/3IKw4wIgDSeGAJNZaBHb7ZGdzlc/K5sdlFgjf7ddQHwbOc0jnReGoqkuEdvtEaPOHof7y4v1ME21GfafdxfnSMAz2l2fqzR9x3NzZJySafwZs4GSY9eXUf6Djs4NVoBUKlowppAr7ShZtUZya9Yo74h32uhLhl+1gACoFFjExPk+fc7cB/vdWftf/HXHVAQZVcAeP5bHBIAz85y+Z1y3cfydYQAgGyMulSnav/O+ZFvo8ubfT/6Ix3m/DKAF44QL7WRPvDCUSf3KJf0GlePWXRsk8sXbIy3rqjdWyD+znS8nd+TGF3UrOM/wRkBfVKdGU/DjuTXEgDW6Ckb6dEXhdGGEbS5J5NQrxhSnEWaOfwsNQRA48gHs50rmNo6GyE4CwGQYgEgSV7wRwfb1jblilenfnYJAgABAC/U6INHtf2tNbq0epTRxpQUu5ttrw5qyUhUqJ+nRgA8bwO1JFSvjfQ2V2VAbHSgc1Ps3Y7vt+idMNEaLU/JPfmjjRTFRu9LQr2CZQKdgw311jqSc9g6p44AGPuJFKHePYL32fvqnNpxCgKgGczvnSbPX03x71fk+cukSvpfflkXABcUT3e8nS1Rzr9U+e7jWB6AABgNywqamkQ6g2htlI3eYUN1xaE+Ehv9qzXqqxb7K6zR1jQWQ4nRV1s2Wh3pvSkvHNfHob6TRLrYRjprdaRDXSmUqrtn/47ifkRt/j0tK76MPpjS+7TRGv3JGv3URvp6Eqk7DnWJDfXPNtLc2OhcG6qL74XmRxzptHEKgNNrHgEY6V0tEwCRfjvSfWaqG+W+6HcM9OjNCIDmzQK4jOLfrygXfKRDCqJsC4DBWQDXp6PdBRvk+b9Szl+kXPES5YvnKR+coZx/qi4onahZ4RHKLziMGCJy/i+cyGUL5GF1gyk688R44+lySYe0bJZERROGWBea1njSGq2wkZZao9tspB/ZSIvbEkY/cfaIQHdieatPe7CRfst9J8YRj49rhtDgXiG1ivIPNFEAPGKNvm9D/ZuNdPwoZzSdW2fJwusQAM1ittlbnv9UxgXAGs3vnYYA6BABMLt0iDz/ccQWgQAgiBeNhH66DdNR/557T7Rxb4e5rW7z5ZJOQcwQ7RIA/UZH11lTf+FYBMDOewes79Ue1qi882yplb72G5OwCPWxmjMWjP4GAdDcovErme6854uFDsolAkCScsW3y/O3UZwSCACC+L9d2pcVNLUdr2RrdCv3n2hD3L+0T1Pa0eYTowXcf6IdAmBdUbvXElBxqKARAqAqdrtq/N0/HZMAMPpirQ1Fl/dqGgKgmcwKj5Dnb89o532jvCtfjgDoMAEweC+uoDglWiMAmg8CgBjv+t5+o6Pb9Toe8PUqa/Q0eSBaGQM9OrNdbb5S0GT2aCDaIQCq0rVcYwbYzxolAKrLu26rIRneP4a/9Ve1jqp94U8hAJpVLP04o6P/X+2wPCIAnqVQmKy8fwMFKoEAIDIe20ay+3MLlgL8M7kgOnGzy7pTsQePwnycfBBtEAC31Nq/ZLiTTUYqACRpdUlHWaMtOz13q2OjvUcx+r+LNXpm+NkECIAmTZkOTstgx327vNJRCIAOFQCS1LV4kvLFaylSCQQAkdlCKNLFLryOqyNG15ETogXF/33lPs1wod1XN2TbQF6IlgqASJfVOQngtEYJgGoB79f4nG+M4u88a2TfWwiA5pH3b83Wzv/+tzsuhwiAFzN43OWNFKpEk2IHAoBwOP7dpddxuU8zrNFd5IVoYqztj3SYS+3eRnpbnVFOgmiKACgbnVrnd3+5kQJg7VXazRrFNTbwe+cIZyp8q84GgG9AALSseOw+OUOd9m3K+YcjADIgAJ6bCRB0y/N3ULASCAAiA7EjifRZF7+mqm35AXJENDpioyeSUCe72O6t0Qet0WbyRLRCAFQKmlirMLdGT66MtGejBIAklSO9t8bnlPsXaK+h/t2qSPtbo001/u2KSkUTEACtLSBvy0in/Tsdmj8EwND35x/l+U9TtBIIAKKDY5MNNcvlr6qBog6wRn8lV0QDY125pBNdbvc21JsSo9Xkimi2AKjOPAlHuyxsLAKg+lk31/isq4aRYl+oc3TnlS/+aQRAswukt2Ri7f+c4pEIgAwKAEmaXXyDPP9+ClcCAUB0YKywoY5Lw9fVqkj7J0Z3kjNi3BHqzwO+XpWGdh8bHWgjLSVvRLMFQDnSkdZoe43f/9iaQPs0UgAkPXp1jRku2wd69OZaP7860qF1TobZVvtZRgC0oIgs3tTha/+/3rm5QwCMiLl9U5QrXiLP30IBS4xbKCIACBemP4e6oV6nzlWqewJ8n/wR44hr1xW1e5ra/YpuvcRG+ia5I5opAKqj7NfX+b74TiMFQHUWwJU1PusvsdEuL1ieMLgh7E11rv2a2r8dAdB8ZnUfLC/Y0KGd9bWabfbu2NwhAEZHvvsU5f0/UcQSCAAixTEQh3p3Wr+2KgVNTCL9S521oARRLx6LI52X5i5b2egdddZpEwiARs04OdYaba0z1X5mIwVAVeiuqrE3h7/TUph6R8JutqGOQAC0k1zwyc7srBcv6Oi8IQDG0v2coJzfJc9/kGKWQAAQKYrtidHC9b3aoxO+vqod1XvIKzFcu4+Nrk7bbJd6rO7Vy6uzAbaTW6LRAqA6Mv/5IQru0xslACRpoEdn1npmyyWdUn3Pv69uWw/1mfq/GQHQuqLI83/UYR31/1angwAYx7KAwgzl/Evl+WspaolRnSiCACBaH78b7jznNLK0T1Os0ac4N52oVURYo+vSssfFaEl69GobabE12kGuEQBNWGpV7+SVR2yoNz0nC3p1UBLpjOfHwz3ad1QyN9JpO/+OcqQjk5LePsS7/d7lvZqGAHCBmcE+yvkPdUgn/QGdu2AvBAACYFi6ClOV92fJ8++luCUQAIRjcaurx5w1eDbAgYnRfzMqSlijLTbS15MevVoZwIZ6qzW6jbwjABr6Tu3Ra63Rxjqf97QN1dXkdn2hNdpS5/M3lEt6zdC/AQHQWi7oPlqe/1jKO+iPKOcfnol8IQAaR6EwUV5wTnUmzGYKXQIBQLRxl/M/2EhnKWOUIx1ZFQHbaAfZPNJyoEcnKYMM+HpVEqnbGq2nHSAAGrQUYOZQM0ySUL1rr9JuDZa5e1ujbw05s2dE8gEB0Hpy/vGpnRadK5aVK70mM7lCADRpVoDZpbpPwE/k+VspegkEANGC2GiN+pJQr1PGiRfq8DjUIpYGZDL+2h/psKy2/ZWR9owjzbdGt7M8AAHQgIL848N8trWhcpXFmjSez1lW0NTE6CJr9MgQn7XDGv3TyH4jAqCdEsCmrGNule8+LlN5QgA0nznFg5QLPiLP/0EHn5ZBjDy2IgCIhh7nZ7TMhvpMEuoVghewolsvsUafio2W0VayE4nRahvp+Ky3/3JJhyRGn7ZGd9EuEABjlgCDQmm4WVUPWKNP2F4dNJrf3R/psNjoX2udBrBTbLWhLhz5b0YAtI988QB5/pJUdMrz/lLNMgdmLkcIgBbPDChMVT44Q15wpTz/lwgBBAACgBhjPBCHKjLaP3JsqOOqU6RX0X6yURR14saX45ABL7OhuhKjhTbSUtoHAmA0JKHOjo2eGLGUNvqyDXVh2ejUckknPhux0VtsqI8mof7TGv11RNcX6dGBHp05ur8YAdBeCoXJ8vx/d3hN9FZ5xc+rqzA1k/lBALRZCCyepHz3cfKCC+X5/ykv+K08/xGKZAQAAoDYedMjG+nmJNK/xAt1uGBcVEedPm6NfsfGgR0dW5NIeVp8DSEQ6cg40hwb6UvWaMkQG74RCABJ0sM92tca/aTFM9x+OLYjPBEAbjCneJA8v0+ev92hUf/FmdnsDwGQLuaWXqacf6pywUeULxbk+V+R5/9Qnn+HPH+lPH8jhXRqYwsCgBgmtlWnU15Xnb7+hkpBk3kxNmlmwOAxVh+Ojb5oje5mA8EOfJ5CfZSWPjSVgiYPLNQxcajzq+fAX2eN7rFGT9GGEADPaycTE6PZ1ujhJl9T2YaaValowtj+UgSAW8wOXyfP/1obC5gt8orX6QL/70gGAiD15ArTde6CvZTz91N+wWHEMOH5TyAACFdG9GOjh2Kj39hI30wifdaGmhUbvaHcpxm83NrH2qu0mw11emL06STUtxOj+6zR1gy20c3VTv4D1mhJEurn1uhaa/TlxGhBEuliG2muDdWVlPT2AaPXJ0YLHN4r4wpa99gl2UCP3pwYfSg2+ngSqdtG+ma1Tdxrjaw1epr3eucLgOf6GJH2TIwut0ZrG3wta6zRpeuK2n2cI2l9U5QPzmh7ZH2keWfmFXaT539YXnB986c8Bxvk+TfK8+dottmbm/98IRMc0/ZnwwveRiKgRcLrsawIgGUFTU0inUG0PwZ69OZySSfaUMfFRgcu79U0HsZ0sbKg6eWSTkyMzkmM5sVGVyRGX61Oh70lMbqzWgitcDTusUa/TIx+YI3+y0YKbaTL4kjz41Dn21B/Xy7plH6jo2OjA9cE2nWs96q6YZiryyr6xrtbOQz9nKyKtH+/0dHlkk4cMHo93wHNj3budVHu0wwbaaaN9CNr9MxYT7BJjH4QRzpvZUHTeZKyQqEwcXAdtD9HOX+R8v6t8vxlY+isP6188S/KFX+tXPFqecWL5HWfrLl9U7jJAJAlAQAA0C6SUGc7vKb8lvGPLgLAi+Sf0S5JpDNspM9XZeO91mi9NdpSffa2VP//T9bo+9boczbS2yj6oTb54u6aGeyj/ILDlPOP1wWlEwfDf5XyxQOUi/bkJgFASgQAS14AoOOxod40zJne7YtQf1jdq5eTJQAAAAAEAAIAAKAB9BsdbY0GHJ0JcH95oQ4mSwAAAAAIAAQAAEADKJd0iDW631EJULahjiNLAAAAAAiAZsUmEgEAWSI22tsa3e6oBHisbHQqWQIAAABAACAAAAAawJpAu1qjGx2VAJtspA+QJQAAAAAEAAIAAKABVAqaHBtd7agE2GYjzSVLAAAAAJ0jANY5IACeIREAkFkJUNGEJFK3oxJgRxyqQJYAAAAAOkMA9CMAAADaT2z0cWu03UUREIdaVCloIlkCAAAASLcAWIUAAABwRAKEOt8abXFRAiRGP1hZ0HSyBAAAAJBeAeDCDICnSAQAwCA21OnW6ElHlwTctr5Xe5AlAAAAgLRRKEyW5292QACsIxkAAP/HQI9OskZrHZUA9w4UdQBZAgAAAEgTs8IjHCj+K/L8AZIBALCTBPD1KhvpQSf3BDB6KF6ow8kSAAAAQFrIBec6IQDy/lKSAQDwYlZF2t8a3ePoTIA15UgnkCUAAACAVAiA4k8dEQA3kAwAgNqsjLRnbPQbRyXAhoEenUmWAAAAAJwu/ruPlefvcGQJgCEhAAD1Wd6radboekclwObE6ENkCQAAAMBFugpT5fl3OVL8V5QvnkdSAACGprJYk2ykrzgqAXZYo0+RJQAAAAC3upAT5Plfcab49/yKcqXXkBcAgJERh7rEUQlQSSJ1VyqaQJYAAAAA2k1XYarywVVOFf+eb6UKnUUAgFGQRPp/1mi7oyLgG5WCJpMlAAAAgHbhlY6S5//BseK/olzxapIDADB6ypHea42ecVQC/Dg22oUsAQAAALSSmcE+8vySPH+Lc8W/51eU899NkgAAxkYc6TRr9LijEuD3dpFeSpYAAAAAmklXYarypXfJK14nz9/sZOE/GLG6Fk8iYQAAY2dgoY6xRtZFCRAbLUtCvYIsAQAAADSMygTNKR6pnJ9XvnitPP8Jh4v+543+B58ldwAA4ydeqMNtpLkuRhLpDDIEAADgGnO+sK/ywRlECsILzlEu+KQ8/0vy/Jvl+etTUfC/MJ7QbLM3Dx4AAAAAAECryQUfSmERSaQ1csX/4KEDAAAAAABAABCdHSuUK0znoQMAAAAAAEAAEJ0bO+T5f88DBwAAAAAAgAAgOjsMDxsAAAAAAAACgOjodf/+/zD1HwAAAAAAAAFAdHbEmhvtz4MGAAAAAACAACA6NxLNXvA3PGQAAAAAAAAIAKKTi/9c97E8YAAAAAAAAAgAoqPX/Pv78XABAAAAAAAgAIjOje+w4R8AAAAAAAACgOjc2CYvuFJdiyfxUAEAAAAAACAAiE6MvL+U9f4AAAAAAAAIAKJzY6ty/gKm/AMAAAAAACAAiM6M7fL8Ps0uHcIDBAAAAAAAgAAgOjN+otnBMTw4AAAAAAAACACiIzf483+kvP8OHhgAAAAAAAAEANF5sU75oFu5BYfyoAAAAAAAACAAiE4r+r3iQuW7T1GhMJEHBAAAAAAAAAFAdE6sl+d/V57/Yc0MduWhAAAAAAAAQAAQnRGb5flL5Pmfk9d9sroWT+JBAAAAAAAAQAAQ6S/275Xnf0s5f7684I2a3zuNhg8AAAAAAIAAINIXO+T5sXLFX8sLviHPv1z54IO6oPtoze2bQiMHAAAAyBb/H0YhJwo/CmiwAAAAAElFTkSuQmCC;" vertex="1" parent="1">
          <mxGeometry x="291.47" y="570" width="97.05" height="50.23" as="geometry" />
        </mxCell>
      </root>
    </mxGraphModel>
  </diagram>
</mxfile>
